<?xml version="1.0" encoding="utf-8" standalone="no"?>
<!DOCTYPE svg PUBLIC "-//W3C//DTD SVG 1.1//EN"
  "http://www.w3.org/Graphics/SVG/1.1/DTD/svg11.dtd">
<svg xmlns:xlink="http://www.w3.org/1999/xlink" width="720pt" height="360pt" viewBox="0 0 720 360" xmlns="http://www.w3.org/2000/svg" version="1.1">
 <metadata>
  <rdf:RDF xmlns:dc="http://purl.org/dc/elements/1.1/" xmlns:cc="http://creativecommons.org/ns#" xmlns:rdf="http://www.w3.org/1999/02/22-rdf-syntax-ns#">
   <cc:Work>
    <dc:type rdf:resource="http://purl.org/dc/dcmitype/StillImage"/>
    <dc:date>2022-06-17T01:52:51.290511</dc:date>
    <dc:format>image/svg+xml</dc:format>
    <dc:creator>
     <cc:Agent>
      <dc:title>Matplotlib v3.5.2, https://matplotlib.org/</dc:title>
     </cc:Agent>
    </dc:creator>
   </cc:Work>
  </rdf:RDF>
 </metadata>
 <defs>
  <style type="text/css">*{stroke-linejoin: round; stroke-linecap: butt}</style>
 </defs>
 <g id="figure_1">
  <g id="patch_1">
   <path d="M 0 360 
L 720 360 
L 720 0 
L 0 0 
z
" style="fill: #ffffff"/>
  </g>
  <g id="axes_1">
   <g id="patch_2">
    <path d="M 90 320.4 
L 648 320.4 
L 648 43.2 
L 90 43.2 
z
" style="fill: #ffffff"/>
   </g>
   <g id="matplotlib.axis_1">
    <g id="xtick_1">
     <g id="line2d_1">
      <defs>
       <path id="m1b8b3893bc" d="M 0 0 
L 0 3.5 
" style="stroke: #000000; stroke-width: 0.8"/>
      </defs>
      <g>
       <use xlink:href="#m1b8b3893bc" x="115.363636" y="320.4" style="stroke: #000000; stroke-width: 0.8"/>
      </g>
     </g>
     <g id="text_1">
      <!-- 0 -->
      <g transform="translate(112.818636 333.47875)scale(0.08 -0.08)">
       <defs>
        <path id="DejaVuSans-30" d="M 2034 4250 
Q 1547 4250 1301 3770 
Q 1056 3291 1056 2328 
Q 1056 1369 1301 889 
Q 1547 409 2034 409 
Q 2525 409 2770 889 
Q 3016 1369 3016 2328 
Q 3016 3291 2770 3770 
Q 2525 4250 2034 4250 
z
M 2034 4750 
Q 2819 4750 3233 4129 
Q 3647 3509 3647 2328 
Q 3647 1150 3233 529 
Q 2819 -91 2034 -91 
Q 1250 -91 836 529 
Q 422 1150 422 2328 
Q 422 3509 836 4129 
Q 1250 4750 2034 4750 
z
" transform="scale(0.015625)"/>
       </defs>
       <use xlink:href="#DejaVuSans-30"/>
      </g>
     </g>
    </g>
    <g id="xtick_2">
     <g id="line2d_2">
      <g>
       <use xlink:href="#m1b8b3893bc" x="236.373352" y="320.4" style="stroke: #000000; stroke-width: 0.8"/>
      </g>
     </g>
     <g id="text_2">
      <!-- 500 -->
      <g transform="translate(228.738352 333.47875)scale(0.08 -0.08)">
       <defs>
        <path id="DejaVuSans-35" d="M 691 4666 
L 3169 4666 
L 3169 4134 
L 1269 4134 
L 1269 2991 
Q 1406 3038 1543 3061 
Q 1681 3084 1819 3084 
Q 2600 3084 3056 2656 
Q 3513 2228 3513 1497 
Q 3513 744 3044 326 
Q 2575 -91 1722 -91 
Q 1428 -91 1123 -41 
Q 819 9 494 109 
L 494 744 
Q 775 591 1075 516 
Q 1375 441 1709 441 
Q 2250 441 2565 725 
Q 2881 1009 2881 1497 
Q 2881 1984 2565 2268 
Q 2250 2553 1709 2553 
Q 1456 2553 1204 2497 
Q 953 2441 691 2322 
L 691 4666 
z
" transform="scale(0.015625)"/>
       </defs>
       <use xlink:href="#DejaVuSans-35"/>
       <use xlink:href="#DejaVuSans-30" x="63.623047"/>
       <use xlink:href="#DejaVuSans-30" x="127.246094"/>
      </g>
     </g>
    </g>
    <g id="xtick_3">
     <g id="line2d_3">
      <g>
       <use xlink:href="#m1b8b3893bc" x="357.383067" y="320.4" style="stroke: #000000; stroke-width: 0.8"/>
      </g>
     </g>
     <g id="text_3">
      <!-- 1000 -->
      <g transform="translate(347.203067 333.47875)scale(0.08 -0.08)">
       <defs>
        <path id="DejaVuSans-31" d="M 794 531 
L 1825 531 
L 1825 4091 
L 703 3866 
L 703 4441 
L 1819 4666 
L 2450 4666 
L 2450 531 
L 3481 531 
L 3481 0 
L 794 0 
L 794 531 
z
" transform="scale(0.015625)"/>
       </defs>
       <use xlink:href="#DejaVuSans-31"/>
       <use xlink:href="#DejaVuSans-30" x="63.623047"/>
       <use xlink:href="#DejaVuSans-30" x="127.246094"/>
       <use xlink:href="#DejaVuSans-30" x="190.869141"/>
      </g>
     </g>
    </g>
    <g id="xtick_4">
     <g id="line2d_4">
      <g>
       <use xlink:href="#m1b8b3893bc" x="478.392783" y="320.4" style="stroke: #000000; stroke-width: 0.8"/>
      </g>
     </g>
     <g id="text_4">
      <!-- 1500 -->
      <g transform="translate(468.212783 333.47875)scale(0.08 -0.08)">
       <use xlink:href="#DejaVuSans-31"/>
       <use xlink:href="#DejaVuSans-35" x="63.623047"/>
       <use xlink:href="#DejaVuSans-30" x="127.246094"/>
       <use xlink:href="#DejaVuSans-30" x="190.869141"/>
      </g>
     </g>
    </g>
    <g id="xtick_5">
     <g id="line2d_5">
      <g>
       <use xlink:href="#m1b8b3893bc" x="599.402498" y="320.4" style="stroke: #000000; stroke-width: 0.8"/>
      </g>
     </g>
     <g id="text_5">
      <!-- 2000 -->
      <g transform="translate(589.222498 333.47875)scale(0.08 -0.08)">
       <defs>
        <path id="DejaVuSans-32" d="M 1228 531 
L 3431 531 
L 3431 0 
L 469 0 
L 469 531 
Q 828 903 1448 1529 
Q 2069 2156 2228 2338 
Q 2531 2678 2651 2914 
Q 2772 3150 2772 3378 
Q 2772 3750 2511 3984 
Q 2250 4219 1831 4219 
Q 1534 4219 1204 4116 
Q 875 4013 500 3803 
L 500 4441 
Q 881 4594 1212 4672 
Q 1544 4750 1819 4750 
Q 2544 4750 2975 4387 
Q 3406 4025 3406 3419 
Q 3406 3131 3298 2873 
Q 3191 2616 2906 2266 
Q 2828 2175 2409 1742 
Q 1991 1309 1228 531 
z
" transform="scale(0.015625)"/>
       </defs>
       <use xlink:href="#DejaVuSans-32"/>
       <use xlink:href="#DejaVuSans-30" x="63.623047"/>
       <use xlink:href="#DejaVuSans-30" x="127.246094"/>
       <use xlink:href="#DejaVuSans-30" x="190.869141"/>
      </g>
     </g>
    </g>
    <g id="text_6">
     <!-- Residue Number -->
     <g transform="translate(319.303125 348.260625)scale(0.12 -0.12)">
      <defs>
       <path id="DejaVuSans-52" d="M 2841 2188 
Q 3044 2119 3236 1894 
Q 3428 1669 3622 1275 
L 4263 0 
L 3584 0 
L 2988 1197 
Q 2756 1666 2539 1819 
Q 2322 1972 1947 1972 
L 1259 1972 
L 1259 0 
L 628 0 
L 628 4666 
L 2053 4666 
Q 2853 4666 3247 4331 
Q 3641 3997 3641 3322 
Q 3641 2881 3436 2590 
Q 3231 2300 2841 2188 
z
M 1259 4147 
L 1259 2491 
L 2053 2491 
Q 2509 2491 2742 2702 
Q 2975 2913 2975 3322 
Q 2975 3731 2742 3939 
Q 2509 4147 2053 4147 
L 1259 4147 
z
" transform="scale(0.015625)"/>
       <path id="DejaVuSans-65" d="M 3597 1894 
L 3597 1613 
L 953 1613 
Q 991 1019 1311 708 
Q 1631 397 2203 397 
Q 2534 397 2845 478 
Q 3156 559 3463 722 
L 3463 178 
Q 3153 47 2828 -22 
Q 2503 -91 2169 -91 
Q 1331 -91 842 396 
Q 353 884 353 1716 
Q 353 2575 817 3079 
Q 1281 3584 2069 3584 
Q 2775 3584 3186 3129 
Q 3597 2675 3597 1894 
z
M 3022 2063 
Q 3016 2534 2758 2815 
Q 2500 3097 2075 3097 
Q 1594 3097 1305 2825 
Q 1016 2553 972 2059 
L 3022 2063 
z
" transform="scale(0.015625)"/>
       <path id="DejaVuSans-73" d="M 2834 3397 
L 2834 2853 
Q 2591 2978 2328 3040 
Q 2066 3103 1784 3103 
Q 1356 3103 1142 2972 
Q 928 2841 928 2578 
Q 928 2378 1081 2264 
Q 1234 2150 1697 2047 
L 1894 2003 
Q 2506 1872 2764 1633 
Q 3022 1394 3022 966 
Q 3022 478 2636 193 
Q 2250 -91 1575 -91 
Q 1294 -91 989 -36 
Q 684 19 347 128 
L 347 722 
Q 666 556 975 473 
Q 1284 391 1588 391 
Q 1994 391 2212 530 
Q 2431 669 2431 922 
Q 2431 1156 2273 1281 
Q 2116 1406 1581 1522 
L 1381 1569 
Q 847 1681 609 1914 
Q 372 2147 372 2553 
Q 372 3047 722 3315 
Q 1072 3584 1716 3584 
Q 2034 3584 2315 3537 
Q 2597 3491 2834 3397 
z
" transform="scale(0.015625)"/>
       <path id="DejaVuSans-69" d="M 603 3500 
L 1178 3500 
L 1178 0 
L 603 0 
L 603 3500 
z
M 603 4863 
L 1178 4863 
L 1178 4134 
L 603 4134 
L 603 4863 
z
" transform="scale(0.015625)"/>
       <path id="DejaVuSans-64" d="M 2906 2969 
L 2906 4863 
L 3481 4863 
L 3481 0 
L 2906 0 
L 2906 525 
Q 2725 213 2448 61 
Q 2172 -91 1784 -91 
Q 1150 -91 751 415 
Q 353 922 353 1747 
Q 353 2572 751 3078 
Q 1150 3584 1784 3584 
Q 2172 3584 2448 3432 
Q 2725 3281 2906 2969 
z
M 947 1747 
Q 947 1113 1208 752 
Q 1469 391 1925 391 
Q 2381 391 2643 752 
Q 2906 1113 2906 1747 
Q 2906 2381 2643 2742 
Q 2381 3103 1925 3103 
Q 1469 3103 1208 2742 
Q 947 2381 947 1747 
z
" transform="scale(0.015625)"/>
       <path id="DejaVuSans-75" d="M 544 1381 
L 544 3500 
L 1119 3500 
L 1119 1403 
Q 1119 906 1312 657 
Q 1506 409 1894 409 
Q 2359 409 2629 706 
Q 2900 1003 2900 1516 
L 2900 3500 
L 3475 3500 
L 3475 0 
L 2900 0 
L 2900 538 
Q 2691 219 2414 64 
Q 2138 -91 1772 -91 
Q 1169 -91 856 284 
Q 544 659 544 1381 
z
M 1991 3584 
L 1991 3584 
z
" transform="scale(0.015625)"/>
       <path id="DejaVuSans-20" transform="scale(0.015625)"/>
       <path id="DejaVuSans-4e" d="M 628 4666 
L 1478 4666 
L 3547 763 
L 3547 4666 
L 4159 4666 
L 4159 0 
L 3309 0 
L 1241 3903 
L 1241 0 
L 628 0 
L 628 4666 
z
" transform="scale(0.015625)"/>
       <path id="DejaVuSans-6d" d="M 3328 2828 
Q 3544 3216 3844 3400 
Q 4144 3584 4550 3584 
Q 5097 3584 5394 3201 
Q 5691 2819 5691 2113 
L 5691 0 
L 5113 0 
L 5113 2094 
Q 5113 2597 4934 2840 
Q 4756 3084 4391 3084 
Q 3944 3084 3684 2787 
Q 3425 2491 3425 1978 
L 3425 0 
L 2847 0 
L 2847 2094 
Q 2847 2600 2669 2842 
Q 2491 3084 2119 3084 
Q 1678 3084 1418 2786 
Q 1159 2488 1159 1978 
L 1159 0 
L 581 0 
L 581 3500 
L 1159 3500 
L 1159 2956 
Q 1356 3278 1631 3431 
Q 1906 3584 2284 3584 
Q 2666 3584 2933 3390 
Q 3200 3197 3328 2828 
z
" transform="scale(0.015625)"/>
       <path id="DejaVuSans-62" d="M 3116 1747 
Q 3116 2381 2855 2742 
Q 2594 3103 2138 3103 
Q 1681 3103 1420 2742 
Q 1159 2381 1159 1747 
Q 1159 1113 1420 752 
Q 1681 391 2138 391 
Q 2594 391 2855 752 
Q 3116 1113 3116 1747 
z
M 1159 2969 
Q 1341 3281 1617 3432 
Q 1894 3584 2278 3584 
Q 2916 3584 3314 3078 
Q 3713 2572 3713 1747 
Q 3713 922 3314 415 
Q 2916 -91 2278 -91 
Q 1894 -91 1617 61 
Q 1341 213 1159 525 
L 1159 0 
L 581 0 
L 581 4863 
L 1159 4863 
L 1159 2969 
z
" transform="scale(0.015625)"/>
       <path id="DejaVuSans-72" d="M 2631 2963 
Q 2534 3019 2420 3045 
Q 2306 3072 2169 3072 
Q 1681 3072 1420 2755 
Q 1159 2438 1159 1844 
L 1159 0 
L 581 0 
L 581 3500 
L 1159 3500 
L 1159 2956 
Q 1341 3275 1631 3429 
Q 1922 3584 2338 3584 
Q 2397 3584 2469 3576 
Q 2541 3569 2628 3553 
L 2631 2963 
z
" transform="scale(0.015625)"/>
      </defs>
      <use xlink:href="#DejaVuSans-52"/>
      <use xlink:href="#DejaVuSans-65" x="64.982422"/>
      <use xlink:href="#DejaVuSans-73" x="126.505859"/>
      <use xlink:href="#DejaVuSans-69" x="178.605469"/>
      <use xlink:href="#DejaVuSans-64" x="206.388672"/>
      <use xlink:href="#DejaVuSans-75" x="269.865234"/>
      <use xlink:href="#DejaVuSans-65" x="333.244141"/>
      <use xlink:href="#DejaVuSans-20" x="394.767578"/>
      <use xlink:href="#DejaVuSans-4e" x="426.554688"/>
      <use xlink:href="#DejaVuSans-75" x="501.359375"/>
      <use xlink:href="#DejaVuSans-6d" x="564.738281"/>
      <use xlink:href="#DejaVuSans-62" x="662.150391"/>
      <use xlink:href="#DejaVuSans-65" x="725.626953"/>
      <use xlink:href="#DejaVuSans-72" x="787.150391"/>
     </g>
    </g>
   </g>
   <g id="matplotlib.axis_2">
    <g id="ytick_1">
     <g id="line2d_6">
      <defs>
       <path id="m6617cfc755" d="M 0 0 
L -3.5 0 
" style="stroke: #000000; stroke-width: 0.8"/>
      </defs>
      <g>
       <use xlink:href="#m6617cfc755" x="90" y="317.690492" style="stroke: #000000; stroke-width: 0.8"/>
      </g>
     </g>
     <g id="text_7">
      <!-- 50 -->
      <g transform="translate(72.82 320.729867)scale(0.08 -0.08)">
       <use xlink:href="#DejaVuSans-35"/>
       <use xlink:href="#DejaVuSans-30" x="63.623047"/>
      </g>
     </g>
    </g>
    <g id="ytick_2">
     <g id="line2d_7">
      <g>
       <use xlink:href="#m6617cfc755" x="90" y="279.770354" style="stroke: #000000; stroke-width: 0.8"/>
      </g>
     </g>
     <g id="text_8">
      <!-- 60 -->
      <g transform="translate(72.82 282.809729)scale(0.08 -0.08)">
       <defs>
        <path id="DejaVuSans-36" d="M 2113 2584 
Q 1688 2584 1439 2293 
Q 1191 2003 1191 1497 
Q 1191 994 1439 701 
Q 1688 409 2113 409 
Q 2538 409 2786 701 
Q 3034 994 3034 1497 
Q 3034 2003 2786 2293 
Q 2538 2584 2113 2584 
z
M 3366 4563 
L 3366 3988 
Q 3128 4100 2886 4159 
Q 2644 4219 2406 4219 
Q 1781 4219 1451 3797 
Q 1122 3375 1075 2522 
Q 1259 2794 1537 2939 
Q 1816 3084 2150 3084 
Q 2853 3084 3261 2657 
Q 3669 2231 3669 1497 
Q 3669 778 3244 343 
Q 2819 -91 2113 -91 
Q 1303 -91 875 529 
Q 447 1150 447 2328 
Q 447 3434 972 4092 
Q 1497 4750 2381 4750 
Q 2619 4750 2861 4703 
Q 3103 4656 3366 4563 
z
" transform="scale(0.015625)"/>
       </defs>
       <use xlink:href="#DejaVuSans-36"/>
       <use xlink:href="#DejaVuSans-30" x="63.623047"/>
      </g>
     </g>
    </g>
    <g id="ytick_3">
     <g id="line2d_8">
      <g>
       <use xlink:href="#m6617cfc755" x="90" y="241.850216" style="stroke: #000000; stroke-width: 0.8"/>
      </g>
     </g>
     <g id="text_9">
      <!-- 70 -->
      <g transform="translate(72.82 244.889591)scale(0.08 -0.08)">
       <defs>
        <path id="DejaVuSans-37" d="M 525 4666 
L 3525 4666 
L 3525 4397 
L 1831 0 
L 1172 0 
L 2766 4134 
L 525 4134 
L 525 4666 
z
" transform="scale(0.015625)"/>
       </defs>
       <use xlink:href="#DejaVuSans-37"/>
       <use xlink:href="#DejaVuSans-30" x="63.623047"/>
      </g>
     </g>
    </g>
    <g id="ytick_4">
     <g id="line2d_9">
      <g>
       <use xlink:href="#m6617cfc755" x="90" y="203.930078" style="stroke: #000000; stroke-width: 0.8"/>
      </g>
     </g>
     <g id="text_10">
      <!-- 80 -->
      <g transform="translate(72.82 206.969453)scale(0.08 -0.08)">
       <defs>
        <path id="DejaVuSans-38" d="M 2034 2216 
Q 1584 2216 1326 1975 
Q 1069 1734 1069 1313 
Q 1069 891 1326 650 
Q 1584 409 2034 409 
Q 2484 409 2743 651 
Q 3003 894 3003 1313 
Q 3003 1734 2745 1975 
Q 2488 2216 2034 2216 
z
M 1403 2484 
Q 997 2584 770 2862 
Q 544 3141 544 3541 
Q 544 4100 942 4425 
Q 1341 4750 2034 4750 
Q 2731 4750 3128 4425 
Q 3525 4100 3525 3541 
Q 3525 3141 3298 2862 
Q 3072 2584 2669 2484 
Q 3125 2378 3379 2068 
Q 3634 1759 3634 1313 
Q 3634 634 3220 271 
Q 2806 -91 2034 -91 
Q 1263 -91 848 271 
Q 434 634 434 1313 
Q 434 1759 690 2068 
Q 947 2378 1403 2484 
z
M 1172 3481 
Q 1172 3119 1398 2916 
Q 1625 2713 2034 2713 
Q 2441 2713 2670 2916 
Q 2900 3119 2900 3481 
Q 2900 3844 2670 4047 
Q 2441 4250 2034 4250 
Q 1625 4250 1398 4047 
Q 1172 3844 1172 3481 
z
" transform="scale(0.015625)"/>
       </defs>
       <use xlink:href="#DejaVuSans-38"/>
       <use xlink:href="#DejaVuSans-30" x="63.623047"/>
      </g>
     </g>
    </g>
    <g id="ytick_5">
     <g id="line2d_10">
      <g>
       <use xlink:href="#m6617cfc755" x="90" y="166.009939" style="stroke: #000000; stroke-width: 0.8"/>
      </g>
     </g>
     <g id="text_11">
      <!-- 90 -->
      <g transform="translate(72.82 169.049314)scale(0.08 -0.08)">
       <defs>
        <path id="DejaVuSans-39" d="M 703 97 
L 703 672 
Q 941 559 1184 500 
Q 1428 441 1663 441 
Q 2288 441 2617 861 
Q 2947 1281 2994 2138 
Q 2813 1869 2534 1725 
Q 2256 1581 1919 1581 
Q 1219 1581 811 2004 
Q 403 2428 403 3163 
Q 403 3881 828 4315 
Q 1253 4750 1959 4750 
Q 2769 4750 3195 4129 
Q 3622 3509 3622 2328 
Q 3622 1225 3098 567 
Q 2575 -91 1691 -91 
Q 1453 -91 1209 -44 
Q 966 3 703 97 
z
M 1959 2075 
Q 2384 2075 2632 2365 
Q 2881 2656 2881 3163 
Q 2881 3666 2632 3958 
Q 2384 4250 1959 4250 
Q 1534 4250 1286 3958 
Q 1038 3666 1038 3163 
Q 1038 2656 1286 2365 
Q 1534 2075 1959 2075 
z
" transform="scale(0.015625)"/>
       </defs>
       <use xlink:href="#DejaVuSans-39"/>
       <use xlink:href="#DejaVuSans-30" x="63.623047"/>
      </g>
     </g>
    </g>
    <g id="ytick_6">
     <g id="line2d_11">
      <g>
       <use xlink:href="#m6617cfc755" x="90" y="128.089801" style="stroke: #000000; stroke-width: 0.8"/>
      </g>
     </g>
     <g id="text_12">
      <!-- 100 -->
      <g transform="translate(67.73 131.129176)scale(0.08 -0.08)">
       <use xlink:href="#DejaVuSans-31"/>
       <use xlink:href="#DejaVuSans-30" x="63.623047"/>
       <use xlink:href="#DejaVuSans-30" x="127.246094"/>
      </g>
     </g>
    </g>
    <g id="ytick_7">
     <g id="line2d_12">
      <g>
       <use xlink:href="#m6617cfc755" x="90" y="90.169663" style="stroke: #000000; stroke-width: 0.8"/>
      </g>
     </g>
     <g id="text_13">
      <!-- 110 -->
      <g transform="translate(67.73 93.209038)scale(0.08 -0.08)">
       <use xlink:href="#DejaVuSans-31"/>
       <use xlink:href="#DejaVuSans-31" x="63.623047"/>
       <use xlink:href="#DejaVuSans-30" x="127.246094"/>
      </g>
     </g>
    </g>
    <g id="ytick_8">
     <g id="line2d_13">
      <g>
       <use xlink:href="#m6617cfc755" x="90" y="52.249525" style="stroke: #000000; stroke-width: 0.8"/>
      </g>
     </g>
     <g id="text_14">
      <!-- 120 -->
      <g transform="translate(67.73 55.2889)scale(0.08 -0.08)">
       <use xlink:href="#DejaVuSans-31"/>
       <use xlink:href="#DejaVuSans-32" x="63.623047"/>
       <use xlink:href="#DejaVuSans-30" x="127.246094"/>
      </g>
     </g>
    </g>
    <g id="text_15">
     <!-- $Å^{2}$ -->
     <g transform="translate(61.234375 189.36)rotate(-90)scale(0.12 -0.12)">
      <defs>
       <path id="DejaVuSans-Oblique-c5" d="M 3188 5081 
Q 3188 5278 3048 5417 
Q 2909 5556 2713 5556 
Q 2513 5556 2377 5420 
Q 2241 5284 2241 5081 
Q 2241 4884 2377 4746 
Q 2513 4609 2713 4609 
Q 2909 4609 3048 4746 
Q 3188 4884 3188 5081 
z
M 2203 4397 
Q 2034 4513 1945 4689 
Q 1856 4866 1856 5081 
Q 1856 5438 2106 5689 
Q 2356 5941 2713 5941 
Q 3069 5941 3320 5689 
Q 3572 5438 3572 5081 
Q 3572 4834 3458 4643 
Q 3344 4453 3128 4341 
L 3938 0 
L 3278 0 
L 3084 1197 
L 984 1197 
L 325 0 
L -341 0 
L 2203 4397 
z
M 2584 4044 
L 1275 1722 
L 2988 1722 
L 2584 4044 
z
" transform="scale(0.015625)"/>
      </defs>
      <use xlink:href="#DejaVuSans-Oblique-c5" transform="translate(0 0.171875)"/>
      <use xlink:href="#DejaVuSans-32" transform="translate(78.214036 38.453125)scale(0.7)"/>
     </g>
    </g>
   </g>
   <g id="line2d_14">
    <path d="M 115.363636 279.770354 
L 622.636364 279.770354 
L 622.636364 279.770354 
" clip-path="url(#p2119c1876e)" style="fill: none; stroke: #1f77b4; stroke-width: 1.5; stroke-linecap: square"/>
   </g>
   <g id="line2d_15">
    <path d="M 115.363636 248.43554 
L 115.605656 261.356307 
L 115.847675 258.633824 
L 116.089695 264.471164 
L 116.331714 260.037333 
L 116.815753 272.25923 
L 117.057772 273.090045 
L 117.299792 276.946046 
L 117.541811 285.920739 
L 117.783831 286.418204 
L 118.02585 282.830359 
L 118.26787 281.163125 
L 118.509889 281.490748 
L 118.751908 274.570948 
L 118.993928 276.614522 
L 119.235947 273.798733 
L 119.719986 286.711822 
L 119.962006 286.574495 
L 120.204025 287.840014 
L 120.446044 290.786052 
L 120.688064 291.433214 
L 120.930083 291.244029 
L 121.172103 293.352123 
L 121.656142 291.328234 
L 121.898161 291.144984 
L 122.14018 292.99714 
L 122.624219 287.707979 
L 122.866239 287.737739 
L 123.108258 290.041813 
L 123.350278 288.346885 
L 123.592297 284.802784 
L 123.834316 286.922205 
L 124.076336 290.174824 
L 124.318355 291.756178 
L 124.560375 297.426278 
L 124.802394 297.933413 
L 125.044414 297.033188 
L 125.286433 295.037542 
L 125.528452 299.440977 
L 125.770472 300.191278 
L 126.012491 299.340082 
L 126.49653 303.450733 
L 126.73855 303.904292 
L 127.222588 302.593489 
L 127.464608 300.316008 
L 127.706627 299.942351 
L 127.948647 299.075408 
L 128.190666 298.628084 
L 128.432686 300.741509 
L 128.674705 301.172215 
L 129.158744 303.332842 
L 129.884802 296.32704 
L 130.126822 296.545473 
L 130.368841 296.450815 
L 130.85288 301.379488 
L 131.094899 301.469259 
L 131.578938 305.704653 
L 131.820958 306.259833 
L 132.062977 303.479296 
L 132.304997 296.993924 
L 132.547016 294.759159 
L 132.789035 295.496053 
L 133.031055 292.576797 
L 133.273074 295.439933 
L 133.515094 296.035849 
L 134.241152 300.979269 
L 134.483171 299.584674 
L 134.725191 302.658724 
L 134.96721 301.957665 
L 135.451249 298.344664 
L 135.693269 301.646141 
L 135.935288 300.94517 
L 136.177307 295.639064 
L 136.419327 294.481257 
L 137.145385 279.260984 
L 137.387405 282.757675 
L 137.629424 280.402675 
L 137.871443 272.163562 
L 138.113463 274.036807 
L 138.355482 280.683014 
L 138.597502 272.519497 
L 138.839521 274.09631 
L 139.081541 274.526151 
L 139.807599 287.432734 
L 140.049618 290.625677 
L 140.291638 295.689653 
L 140.533657 296.158189 
L 140.775677 294.109375 
L 141.017696 297.777962 
L 141.259715 298.009339 
L 141.743754 294.00843 
L 141.985774 294.135827 
L 142.227793 296.105979 
L 142.469813 294.93043 
L 142.953851 291.85115 
L 143.195871 292.403507 
L 143.43789 291.494009 
L 143.67991 287.330733 
L 143.921929 285.806515 
L 144.163949 286.326406 
L 144.405968 285.869918 
L 144.647988 278.677623 
L 144.890007 277.699841 
L 145.132026 278.251185 
L 145.858085 294.899285 
L 146.100104 293.470701 
L 146.342124 289.725749 
L 146.584143 288.970771 
L 146.826162 280.576213 
L 147.068182 277.808273 
L 147.310201 278.311918 
L 147.79424 267.814079 
L 148.03626 268.249882 
L 148.278279 264.712647 
L 149.004337 250.294291 
L 149.246357 250.716685 
L 149.488376 247.35544 
L 149.730396 247.672404 
L 149.972415 243.828567 
L 150.214434 242.509491 
L 150.456454 231.559729 
L 150.698473 230.60768 
L 151.182512 252.179524 
L 151.424532 250.149063 
L 151.666551 255.753863 
L 152.15059 246.329548 
L 152.392609 257.077015 
L 152.634629 258.945796 
L 152.876648 251.715624 
L 153.118668 255.501224 
L 153.360687 261.363129 
L 153.844726 252.433525 
L 154.328765 263.148784 
L 154.570784 255.97336 
L 154.812804 252.962962 
L 155.538862 272.590366 
L 155.780881 269.273451 
L 156.022901 274.823317 
L 156.26492 276.52902 
L 156.50694 272.738771 
L 156.748959 273.783898 
L 156.990978 270.919011 
L 157.232998 272.000619 
L 157.475017 275.917252 
L 157.959056 265.346929 
L 158.201076 271.182254 
L 158.443095 268.822813 
L 158.685115 262.930349 
L 158.927134 264.985622 
L 159.169153 268.97476 
L 159.653192 260.488229 
L 159.895212 260.489739 
L 160.137231 260.020999 
L 160.379251 253.292549 
L 160.62127 256.640847 
L 160.863289 262.026875 
L 161.105309 264.646489 
L 161.347328 268.904823 
L 161.589348 268.879966 
L 161.831367 269.001163 
L 162.799445 282.252357 
L 163.041464 281.260712 
L 163.525503 276.752354 
L 163.767523 272.681339 
L 164.009542 273.023343 
L 164.251561 279.363575 
L 164.493581 278.07005 
L 164.7356 279.986363 
L 164.97762 277.782873 
L 165.461659 282.702493 
L 165.703678 281.379682 
L 165.945697 281.205823 
L 166.187717 280.278184 
L 166.429736 274.179049 
L 166.671756 272.225458 
L 167.155795 254.155276 
L 167.397814 253.684975 
L 167.639833 258.770207 
L 168.123872 264.138027 
L 168.849931 275.916327 
L 169.09195 284.636542 
L 169.333969 285.026765 
L 169.575989 291.259704 
L 169.818008 289.546825 
L 170.060028 293.757915 
L 170.544067 293.292589 
L 171.028105 289.486397 
L 171.270125 291.144297 
L 171.512144 289.64108 
L 171.754164 291.934264 
L 171.996183 296.244872 
L 172.238203 297.10635 
L 172.480222 301.635474 
L 172.722241 303.137014 
L 173.20628 304.182032 
L 173.4483 303.658109 
L 173.932339 301.96914 
L 174.174358 303.104833 
L 174.416378 303.196748 
L 174.658397 305.089016 
L 174.900416 303.773312 
L 175.142436 298.000361 
L 175.384455 297.554583 
L 175.626475 301.71451 
L 175.868494 302.4871 
L 176.110514 304.092016 
L 176.352533 304.643131 
L 176.594552 304.688629 
L 176.836572 302.45441 
L 177.078591 302.146712 
L 177.320611 304.125489 
L 177.56263 301.61219 
L 177.80465 305.183317 
L 178.046669 301.887975 
L 178.288688 301.963337 
L 178.530708 298.236422 
L 178.772727 298.738732 
L 179.014747 296.610479 
L 179.256766 295.915244 
L 179.498786 294.030333 
L 179.740805 294.200499 
L 180.224844 292.170128 
L 180.466863 289.324742 
L 180.708883 289.530261 
L 180.950902 281.488195 
L 181.192922 279.934706 
L 181.434941 263.838547 
L 181.67696 261.469031 
L 181.91898 263.165653 
L 182.160999 257.663972 
L 182.403019 255.446833 
L 182.645038 249.643943 
L 183.129077 227.760931 
L 183.371096 207.595747 
L 183.613116 147.829003 
L 183.855135 55.8 
L 184.097155 215.94 
L 184.339174 237.786722 
L 184.581194 235.460388 
L 184.823213 236.604311 
L 185.065232 229.705293 
L 185.549271 251.956347 
L 185.791291 258.136229 
L 186.03331 255.784375 
L 186.27533 270.319749 
L 186.517349 276.901352 
L 187.001388 266.634717 
L 187.243407 262.03415 
L 187.485427 251.717266 
L 187.727446 253.094794 
L 187.969466 250.122772 
L 188.453505 263.712381 
L 188.695524 260.034658 
L 188.937543 261.080308 
L 189.179563 269.440246 
L 189.421582 270.075597 
L 189.663602 265.602184 
L 189.905621 271.883828 
L 190.147641 274.440133 
L 190.38966 271.134272 
L 190.631679 272.601752 
L 190.873699 279.010484 
L 191.115718 277.743775 
L 191.357738 278.361132 
L 191.599757 275.778832 
L 191.841777 271.279255 
L 192.083796 272.121699 
L 192.325815 273.696431 
L 192.567835 271.223543 
L 192.809854 265.513717 
L 193.051874 263.433669 
L 193.293893 268.649811 
L 193.535913 266.104021 
L 193.777932 273.641823 
L 194.019951 273.091352 
L 194.261971 285.770445 
L 194.50399 291.855174 
L 194.74601 286.308715 
L 195.230049 301.176157 
L 195.472068 297.442906 
L 195.714087 295.882516 
L 195.956107 293.245495 
L 196.198126 286.864841 
L 196.440146 291.107326 
L 196.682165 290.782644 
L 197.166204 292.483343 
L 197.408223 289.897985 
L 197.650243 299.682636 
L 197.892262 301.733159 
L 198.134282 298.426318 
L 198.376301 297.228051 
L 198.86034 292.872917 
L 199.102359 292.732186 
L 199.344379 294.331603 
L 199.586398 293.769853 
L 200.554476 302.913978 
L 200.796495 298.481921 
L 201.280534 283.03189 
L 201.522554 281.253237 
L 202.006593 284.411103 
L 202.490632 291.324717 
L 202.732651 291.678987 
L 202.97467 295.175913 
L 203.21669 294.244457 
L 203.458709 298.145839 
L 203.942748 289.557211 
L 204.184768 296.596599 
L 204.426787 297.465665 
L 204.668806 288.196869 
L 204.910826 286.16777 
L 205.394865 269.42039 
L 205.636884 263.097265 
L 205.878904 253.770767 
L 206.120923 258.424833 
L 206.362942 256.677627 
L 206.604962 247.393229 
L 206.846981 244.596029 
L 207.089001 252.454829 
L 207.33102 247.778305 
L 207.57304 251.492019 
L 207.815059 250.483535 
L 208.057078 256.192705 
L 208.299098 265.086945 
L 208.783137 270.650368 
L 209.025156 280.471131 
L 209.267176 281.479425 
L 209.509195 275.46159 
L 209.751214 284.019502 
L 209.993234 286.157739 
L 210.235253 285.344063 
L 210.477273 281.15468 
L 210.719292 283.776106 
L 210.961312 287.853172 
L 211.44535 281.111166 
L 211.68737 284.318267 
L 211.929389 285.918366 
L 212.171409 282.19923 
L 212.413428 280.339005 
L 212.655448 282.315865 
L 212.897467 281.861565 
L 213.139486 278.864236 
L 213.381506 278.842513 
L 213.623525 279.722612 
L 213.865545 279.296133 
L 214.107564 281.058471 
L 214.349584 288.542575 
L 214.591603 292.217292 
L 215.559681 276.98367 
L 215.8017 276.117209 
L 216.04372 276.075042 
L 216.285739 276.444435 
L 216.527759 275.78052 
L 217.011797 272.008405 
L 217.253817 272.902009 
L 217.495836 268.035254 
L 217.737856 266.546329 
L 217.979875 268.973589 
L 218.221895 268.317772 
L 218.463914 274.050903 
L 218.705933 270.948092 
L 218.947953 271.767247 
L 219.189972 266.541222 
L 219.431992 269.369864 
L 219.916031 282.436569 
L 220.15805 284.731406 
L 220.400069 289.813716 
L 220.642089 287.831892 
L 220.884108 281.457239 
L 221.126128 283.479965 
L 221.368147 287.187282 
L 221.852186 280.061834 
L 222.336225 285.749538 
L 222.578244 281.980962 
L 222.820264 281.414779 
L 223.062283 288.295185 
L 223.304303 287.204855 
L 223.546322 286.679624 
L 223.788341 288.087437 
L 224.27238 286.992137 
L 224.5144 283.889815 
L 224.756419 277.556132 
L 224.998439 276.88894 
L 225.240458 279.117395 
L 225.482477 279.672382 
L 225.966516 283.585519 
L 226.208536 286.944447 
L 226.450555 285.445592 
L 226.692575 283.079738 
L 226.934594 287.315225 
L 227.176613 286.953298 
L 227.418633 285.182084 
L 227.660652 286.442064 
L 227.902672 290.765536 
L 228.144691 288.765502 
L 228.386711 289.932075 
L 228.870749 296.569039 
L 229.112769 296.692054 
L 229.354788 299.125773 
L 229.596808 300.094625 
L 229.838827 300.110811 
L 230.080847 298.463449 
L 230.564885 291.826009 
L 230.806905 288.051323 
L 231.048924 287.676208 
L 231.290944 288.10164 
L 231.532963 283.319893 
L 231.774983 281.703323 
L 232.017002 283.600574 
L 232.259022 284.024388 
L 232.74306 288.041537 
L 232.98508 285.446288 
L 233.227099 280.264157 
L 233.469119 278.523031 
L 233.711138 280.842991 
L 233.953158 279.93357 
L 234.195177 284.106587 
L 234.437196 283.582633 
L 234.679216 286.919375 
L 235.163255 281.972131 
L 235.405274 281.585665 
L 235.647294 280.223114 
L 235.889313 276.989485 
L 236.131332 278.632466 
L 236.373352 277.671259 
L 236.615371 279.021063 
L 236.857391 277.873104 
L 237.09941 278.334127 
L 238.067488 271.653196 
L 238.309507 272.769586 
L 238.551527 271.363172 
L 238.793546 275.28889 
L 239.277585 270.28822 
L 239.761624 265.554736 
L 240.003643 271.985351 
L 240.487682 278.683982 
L 240.729702 287.211174 
L 240.971721 287.208747 
L 241.21374 297.032377 
L 241.45576 298.987314 
L 241.697779 302.182322 
L 242.181818 303.313255 
L 242.423838 303.145558 
L 242.907876 301.836991 
L 243.149896 302.391134 
L 243.391915 303.263138 
L 243.633935 303.140777 
L 243.875954 298.210256 
L 244.117974 296.760455 
L 244.359993 300.174843 
L 244.844032 302.553529 
L 245.086051 302.12304 
L 245.328071 300.27767 
L 245.57009 296.585856 
L 245.81211 297.468755 
L 246.054129 299.886056 
L 246.538168 300.866574 
L 246.780187 297.332533 
L 247.022207 296.672584 
L 247.264226 290.313957 
L 247.506246 290.277582 
L 247.748265 285.336585 
L 247.990285 284.49846 
L 248.232304 278.660798 
L 248.474323 278.444767 
L 248.716343 277.635491 
L 248.958362 278.152665 
L 249.200382 277.995946 
L 249.442401 277.240474 
L 249.684421 275.671394 
L 249.92644 283.32569 
L 250.168459 271.986115 
L 250.410479 275.944666 
L 250.652498 276.586701 
L 250.894518 276.514132 
L 251.378557 275.047664 
L 251.862595 264.866342 
L 252.104615 253.913866 
L 252.346634 219.569085 
L 252.588654 160.568436 
L 252.830673 220.087517 
L 253.072693 233.290345 
L 253.314712 230.076205 
L 253.556731 229.679456 
L 253.798751 223.068653 
L 254.524809 246.829821 
L 254.766829 250.690267 
L 255.008848 265.979431 
L 255.250867 270.007782 
L 255.492887 264.469604 
L 255.734906 265.710135 
L 256.218945 254.416907 
L 256.460965 263.332772 
L 256.702984 254.909621 
L 256.945003 259.953914 
L 257.187023 270.631664 
L 257.429042 273.249265 
L 257.671062 269.786879 
L 258.155101 279.041509 
L 258.39712 279.90357 
L 258.639139 278.947499 
L 259.123178 284.028512 
L 259.365198 283.65802 
L 259.607217 285.372234 
L 260.091256 286.644847 
L 260.333276 286.977305 
L 260.575295 286.737851 
L 260.817314 287.568612 
L 261.301353 286.286041 
L 261.543373 290.170547 
L 261.785392 288.140229 
L 262.027412 293.557496 
L 262.269431 290.985969 
L 262.51145 291.565129 
L 262.75347 287.504363 
L 262.995489 294.232003 
L 263.479528 298.439652 
L 263.721548 304.369178 
L 263.963567 302.466524 
L 264.205586 302.42304 
L 264.447606 302.107694 
L 264.689625 301.154877 
L 264.931645 297.287331 
L 265.173664 296.169515 
L 265.415684 295.899273 
L 265.657703 294.488798 
L 265.899722 297.913148 
L 266.141742 294.32944 
L 266.383761 296.002891 
L 266.625781 302.504746 
L 266.8678 300.87179 
L 267.10982 302.777029 
L 267.835878 296.913938 
L 268.077897 300.166565 
L 268.319917 300.387913 
L 269.287994 304.720355 
L 269.772033 299.532252 
L 270.014053 292.38093 
L 270.256072 291.413522 
L 270.498092 288.378116 
L 270.740111 288.41915 
L 271.22415 289.474828 
L 271.466169 289.305636 
L 271.708189 289.987002 
L 271.950208 288.775712 
L 272.192228 292.700149 
L 272.434247 294.331912 
L 272.676266 287.886397 
L 272.918286 285.37486 
L 273.160305 289.287767 
L 273.402325 287.2862 
L 273.644344 276.868624 
L 273.886364 276.959972 
L 274.370402 263.208501 
L 274.612422 251.022269 
L 274.854441 251.355317 
L 275.096461 253.767737 
L 275.33848 242.233625 
L 275.5805 238.638571 
L 275.822519 246.501329 
L 276.064539 240.210845 
L 276.306558 245.732024 
L 276.548577 243.810537 
L 276.790597 244.460534 
L 277.032616 260.858957 
L 277.274636 264.221559 
L 277.516655 261.503767 
L 277.758675 270.364583 
L 278.000694 274.192735 
L 278.242713 272.530596 
L 278.484733 277.059177 
L 278.726752 284.057469 
L 279.210791 281.179071 
L 279.69483 286.591633 
L 279.936849 285.945422 
L 280.178869 286.379671 
L 280.420888 287.802718 
L 280.662908 288.237906 
L 280.904927 287.719149 
L 281.146947 286.621505 
L 281.388966 286.621414 
L 281.630985 285.326854 
L 281.873005 285.536699 
L 282.599063 279.809633 
L 282.841083 285.188902 
L 283.325121 290.375245 
L 283.567141 288.852347 
L 284.293199 279.016657 
L 284.535219 280.612897 
L 284.777238 280.487195 
L 285.019257 278.499476 
L 285.261277 274.306959 
L 285.987335 266.762811 
L 286.229355 261.947525 
L 286.471374 259.975631 
L 286.713393 259.12097 
L 286.955413 256.040712 
L 287.197432 260.059896 
L 287.439452 255.724616 
L 287.681471 254.248225 
L 287.923491 244.095639 
L 288.16551 246.643308 
L 288.407529 253.412111 
L 288.649549 264.314909 
L 288.891568 263.96208 
L 289.133588 269.086654 
L 289.375607 258.604962 
L 289.617627 258.92654 
L 289.859646 267.963176 
L 290.101666 265.932787 
L 290.343685 258.508967 
L 290.827724 269.710421 
L 291.311763 260.747342 
L 291.553782 266.098239 
L 291.795802 267.063758 
L 292.037821 260.318725 
L 292.27984 261.397752 
L 292.52186 264.769843 
L 292.763879 278.247776 
L 293.005899 277.178495 
L 293.247918 278.351475 
L 293.489938 283.980249 
L 293.731957 284.086953 
L 293.973976 281.917948 
L 294.215996 283.036196 
L 294.458015 282.783885 
L 294.942054 289.335771 
L 295.184074 287.491032 
L 295.426093 282.689347 
L 295.668112 287.58139 
L 295.910132 286.108395 
L 296.152151 279.13091 
L 296.394171 280.241933 
L 296.63619 283.138227 
L 296.87821 275.666971 
L 297.120229 272.614849 
L 297.362248 273.552242 
L 297.846287 262.325052 
L 298.088307 249.067387 
L 298.330326 276.478669 
L 298.814365 283.253827 
L 299.056384 283.778694 
L 299.298404 282.245777 
L 299.782443 288.247291 
L 300.024462 293.458433 
L 300.266482 293.398601 
L 300.75052 288.463229 
L 300.99254 287.525009 
L 301.476579 282.746588 
L 301.718598 286.806024 
L 301.960618 285.950274 
L 302.202637 287.217996 
L 302.444656 286.377705 
L 302.686676 286.833126 
L 302.928695 288.157813 
L 303.170715 288.365953 
L 303.412734 289.113045 
L 303.654754 286.626957 
L 304.864851 268.656493 
L 305.590909 276.230906 
L 305.832929 276.878539 
L 306.316967 283.028654 
L 306.558987 286.686712 
L 306.801006 286.445936 
L 307.043026 291.313171 
L 308.011103 284.226909 
L 308.253123 280.81637 
L 308.495142 274.176411 
L 308.737162 277.095159 
L 308.979181 274.659465 
L 309.221201 275.604305 
L 309.46322 282.078908 
L 309.705239 283.275406 
L 309.947259 289.415106 
L 310.189278 290.593898 
L 310.431298 293.960206 
L 310.673317 294.965967 
L 311.399375 296.283 
L 311.641395 295.988099 
L 311.883414 296.450814 
L 312.125434 298.255909 
L 312.367453 296.826155 
L 312.609473 293.672322 
L 312.851492 293.158504 
L 313.093511 295.242713 
L 313.335531 295.858499 
L 313.57755 295.502113 
L 313.81957 294.549765 
L 314.061589 292.832473 
L 314.303609 289.281453 
L 314.545628 289.553172 
L 314.787647 290.535365 
L 315.029667 288.244414 
L 315.271686 292.184097 
L 315.513706 288.890944 
L 315.755725 290.381433 
L 315.997745 285.78595 
L 316.239764 288.071647 
L 316.481783 284.132181 
L 316.723803 285.811052 
L 316.965822 284.0376 
L 317.449861 287.281719 
L 317.691881 288.241807 
L 317.9339 287.532448 
L 318.17592 289.414604 
L 318.417939 284.680303 
L 318.659958 284.00907 
L 318.901978 270.636933 
L 319.143997 270.006897 
L 319.386017 272.291574 
L 320.112075 262.744479 
L 320.354094 256.750727 
L 320.838133 228.267856 
L 321.080153 189.214105 
L 321.322172 89.409524 
L 321.564192 180.437837 
L 321.806211 191.928047 
L 322.04823 181.125998 
L 322.532269 174.264829 
L 323.258328 217.462408 
L 323.500347 222.502209 
L 323.742366 250.768035 
L 323.984386 261.480915 
L 324.226405 248.957574 
L 324.468425 247.735202 
L 324.952464 219.73149 
L 325.194483 223.448774 
L 325.436502 213.553252 
L 325.920541 237.707576 
L 326.162561 233.663608 
L 326.40458 232.726279 
L 326.6466 242.969511 
L 326.888619 245.65098 
L 327.130638 241.717571 
L 327.372658 245.587981 
L 327.614677 253.268005 
L 327.856697 251.448675 
L 328.098716 252.73256 
L 328.340736 261.011643 
L 328.582755 263.524547 
L 328.824774 268.352849 
L 329.066794 265.756247 
L 329.308813 258.044054 
L 329.792852 264.506911 
L 330.034872 260.667483 
L 330.276891 252.945441 
L 330.51891 248.884633 
L 330.76093 253.688037 
L 331.002949 249.28469 
L 331.244969 253.457973 
L 331.486988 248.534276 
L 331.971027 259.932521 
L 332.213046 268.419007 
L 332.697085 296.87716 
L 332.939105 298.83252 
L 333.423144 296.660962 
L 333.665163 291.284928 
L 333.907183 291.747601 
L 334.149202 291.627683 
L 334.391221 292.858154 
L 334.633241 291.884256 
L 334.87526 294.457429 
L 335.11728 298.606167 
L 335.359299 299.206177 
L 336.327377 292.111283 
L 336.569396 292.29304 
L 336.811416 294.293191 
L 337.053435 294.009751 
L 337.537474 298.870515 
L 337.779493 302.676452 
L 338.021513 303.005532 
L 338.747571 268.0151 
L 338.989591 264.033837 
L 339.473629 266.991413 
L 339.957668 275.644146 
L 340.199688 276.49121 
L 340.441707 280.136172 
L 340.683727 279.880385 
L 340.925746 286.58834 
L 341.167765 284.70934 
L 341.409785 274.149525 
L 341.651804 273.800144 
L 341.893824 283.005822 
L 342.135843 277.585547 
L 342.377863 259.032542 
L 342.619882 256.592117 
L 342.861901 261.420144 
L 343.58796 225.339305 
L 343.829979 220.393942 
L 344.314018 203.237018 
L 344.556037 207.131125 
L 344.798057 191.865442 
L 345.040076 202.848733 
L 345.282096 203.555367 
L 345.524115 206.76817 
L 345.766135 233.636273 
L 346.008154 238.335219 
L 346.250173 230.650139 
L 346.492193 237.634022 
L 346.734212 252.180079 
L 346.976232 244.738137 
L 347.218251 253.03567 
L 347.460271 265.610138 
L 347.70229 264.332266 
L 347.94431 258.054236 
L 348.428348 271.693892 
L 348.670368 266.992756 
L 348.912387 266.016052 
L 349.154407 272.257336 
L 349.396426 273.661531 
L 349.638446 269.501934 
L 349.880465 269.72209 
L 350.122484 272.173525 
L 350.364504 271.810877 
L 350.606523 268.338305 
L 350.848543 271.235053 
L 351.090562 271.506798 
L 351.332582 270.045142 
L 351.81662 279.874324 
L 352.05864 279.939912 
L 352.784698 269.916247 
L 353.026718 266.998528 
L 353.268737 266.863357 
L 353.510756 267.752099 
L 353.752776 269.328529 
L 353.994795 269.066034 
L 354.478834 266.159151 
L 354.720854 268.034758 
L 354.962873 262.710908 
L 355.204892 260.788026 
L 355.446912 265.411425 
L 355.688931 264.7815 
L 355.930951 271.233729 
L 356.17297 268.347719 
L 356.41499 270.478045 
L 356.657009 265.222354 
L 356.899028 267.033062 
L 357.141048 272.080355 
L 357.383067 279.8255 
L 357.625087 281.7714 
L 357.867106 285.294428 
L 358.109126 282.774232 
L 358.351145 278.919588 
L 358.593164 279.723408 
L 358.835184 283.593742 
L 359.319223 277.59792 
L 359.803262 285.058537 
L 360.2873 278.643166 
L 360.52932 286.426424 
L 360.771339 286.346097 
L 361.013359 285.614256 
L 361.255378 288.913243 
L 361.497398 287.278009 
L 361.739417 286.638627 
L 361.981437 281.91692 
L 362.223456 272.377948 
L 362.465475 272.976189 
L 362.707495 275.614279 
L 362.949514 274.80002 
L 363.675573 284.308 
L 363.917592 284.812971 
L 364.159611 281.441342 
L 364.401631 285.100934 
L 364.64365 286.492945 
L 364.88567 284.693403 
L 365.127689 284.321498 
L 365.369709 288.358702 
L 365.611728 289.533956 
L 365.853747 287.571884 
L 366.095767 290.956764 
L 366.337786 290.538522 
L 366.579806 289.870625 
L 366.821825 291.030615 
L 367.305864 298.297828 
L 367.547883 298.405019 
L 368.273942 285.837668 
L 368.757981 288.693307 
L 369.242019 280.961538 
L 369.484039 282.505126 
L 369.726058 281.243048 
L 370.210097 286.283679 
L 370.452117 284.738013 
L 370.936155 275.12864 
L 371.178175 276.749015 
L 371.420194 273.813429 
L 371.662214 278.63687 
L 371.904233 277.795528 
L 372.146253 280.599796 
L 372.388272 279.184494 
L 372.630291 276.464527 
L 372.872311 275.234705 
L 373.11433 275.638878 
L 373.35635 274.226807 
L 373.598369 273.749981 
L 374.082408 275.768 
L 374.324427 273.867633 
L 374.566447 274.703843 
L 374.808466 272.015995 
L 375.050486 272.149688 
L 375.292505 265.366994 
L 375.534525 262.70126 
L 375.776544 263.922425 
L 376.018563 258.436544 
L 376.260583 258.492757 
L 376.744622 248.102294 
L 377.228661 244.895311 
L 377.47068 253.197864 
L 377.954719 258.519785 
L 378.196738 272.895008 
L 378.438758 275.244238 
L 378.680777 286.844622 
L 378.922797 288.069962 
L 379.164816 292.596369 
L 379.406836 293.797733 
L 379.648855 292.757283 
L 379.890874 293.58812 
L 380.132894 290.966961 
L 380.374913 291.365174 
L 380.858952 296.949889 
L 381.100972 297.732859 
L 381.342991 294.70671 
L 381.58501 293.76106 
L 381.82703 295.092747 
L 382.069049 295.711451 
L 382.311069 295.784614 
L 382.553088 295.302448 
L 382.795108 293.058834 
L 383.037127 292.500944 
L 383.279146 294.016554 
L 383.521166 294.228997 
L 384.247224 283.656164 
L 384.489244 283.852666 
L 384.731263 276.230415 
L 384.973282 278.107663 
L 385.215302 268.801664 
L 385.457321 268.48876 
L 385.699341 260.814029 
L 385.94136 257.81096 
L 386.425399 262.775773 
L 386.667418 263.846721 
L 386.909438 265.966096 
L 387.151457 266.546713 
L 387.393477 277.774845 
L 387.635496 267.248077 
L 387.877516 271.912692 
L 388.119535 273.159675 
L 388.361554 273.425141 
L 388.603574 271.878349 
L 388.845593 271.474691 
L 389.087613 268.412036 
L 389.571652 254.28063 
L 389.813671 236.969252 
L 390.05569 186.172975 
L 390.29771 195.041112 
L 390.539729 239.969333 
L 390.781749 235.498008 
L 391.023768 237.930926 
L 391.265788 234.751473 
L 391.507807 240.940511 
L 391.991846 268.143432 
L 392.233865 264.509752 
L 392.475885 279.626406 
L 392.717904 283.570331 
L 392.959924 280.961438 
L 393.685982 257.630904 
L 393.928001 259.399106 
L 394.170021 254.857198 
L 394.65406 268.834176 
L 394.896079 264.447621 
L 395.138099 265.876673 
L 395.380118 273.779188 
L 395.622137 273.40498 
L 395.864157 269.273657 
L 396.106176 275.5605 
L 396.348196 278.934418 
L 396.590215 274.946218 
L 396.832235 276.169567 
L 397.074254 281.93372 
L 397.558293 281.469506 
L 397.800312 280.11322 
L 398.042332 276.552626 
L 398.284351 275.824613 
L 398.526371 276.348185 
L 398.76839 273.990412 
L 399.010409 269.371164 
L 399.252429 268.603902 
L 399.494448 273.214307 
L 399.736468 274.260569 
L 399.978487 280.022354 
L 400.220507 279.505456 
L 400.462526 293.413365 
L 400.704545 294.093052 
L 400.946565 291.235821 
L 401.430604 301.146362 
L 401.672623 300.099106 
L 402.398681 281.551278 
L 402.640701 284.721757 
L 402.88272 283.32889 
L 403.12474 284.72981 
L 403.366759 284.893182 
L 403.608779 280.902792 
L 403.850798 289.271869 
L 404.092817 293.086177 
L 404.334837 292.263821 
L 405.060895 287.069772 
L 405.544934 288.893487 
L 405.786954 289.402738 
L 406.755031 300.604481 
L 406.997051 299.588678 
L 407.23907 292.410529 
L 407.48109 288.554141 
L 407.723109 291.308826 
L 408.207148 289.891634 
L 409.175226 299.288192 
L 409.417245 297.801039 
L 409.659264 302.131295 
L 410.143303 291.804971 
L 410.385323 297.69089 
L 410.627342 299.292986 
L 411.111381 287.974025 
L 411.3534 287.972475 
L 412.079459 252.792807 
L 412.321478 258.730002 
L 412.563498 258.373354 
L 413.047536 242.462645 
L 413.773595 256.353553 
L 414.015614 253.318763 
L 414.257634 256.836286 
L 414.499653 267.34513 
L 414.983692 273.064876 
L 415.225711 281.706962 
L 415.467731 285.840245 
L 415.70975 280.103638 
L 415.95177 288.306769 
L 416.193789 292.192476 
L 416.435808 289.777778 
L 416.677828 286.06859 
L 416.919847 287.452126 
L 417.161867 291.946852 
L 417.645906 286.601695 
L 418.129944 289.706043 
L 418.613983 284.268172 
L 418.856003 285.617552 
L 419.098022 284.907509 
L 419.582061 282.06853 
L 419.82408 283.104632 
L 420.0661 282.816412 
L 420.792158 295.183612 
L 421.034178 292.349388 
L 421.276197 287.506898 
L 421.518217 285.524345 
L 421.760236 281.876155 
L 422.002255 279.936561 
L 422.244275 279.722723 
L 422.486294 279.954438 
L 423.212353 275.446445 
L 423.454372 274.71494 
L 423.696391 269.356457 
L 423.938411 267.929498 
L 424.18043 270.708048 
L 424.42245 268.505252 
L 424.664469 274.010882 
L 424.906489 272.16638 
L 425.148508 272.60985 
L 425.390527 267.906447 
L 425.632547 270.153144 
L 425.874566 274.456088 
L 426.116586 281.691009 
L 426.358605 283.837606 
L 426.600625 288.918136 
L 426.842644 286.229213 
L 427.084663 281.374769 
L 427.568702 285.42422 
L 428.052741 279.418161 
L 428.294761 283.00747 
L 428.53678 283.76435 
L 428.778799 280.311072 
L 429.020819 280.019527 
L 429.262838 284.515313 
L 429.504858 284.439565 
L 429.746877 283.676559 
L 429.988897 284.89383 
L 430.230916 284.59795 
L 430.472935 285.179264 
L 430.714955 283.571117 
L 430.956974 277.277011 
L 431.198994 277.792186 
L 431.441013 279.828421 
L 432.167071 282.626127 
L 432.409091 286.961056 
L 432.65111 285.996762 
L 432.89313 283.46503 
L 433.135149 286.689387 
L 433.377169 287.344664 
L 433.619188 284.888826 
L 433.861207 285.613592 
L 434.103227 290.222471 
L 434.587266 288.839625 
L 434.829285 294.495326 
L 435.071305 296.587688 
L 435.555344 297.336634 
L 435.797363 300.21035 
L 436.039382 300.997976 
L 436.281402 300.215964 
L 437.00746 286.810103 
L 437.491499 287.989574 
L 437.733518 279.618337 
L 438.217557 284.687206 
L 438.459577 283.169173 
L 438.943616 286.591697 
L 439.185635 284.513441 
L 439.427654 280.332103 
L 439.669674 278.733983 
L 439.911693 281.069057 
L 440.153713 280.727558 
L 440.395732 285.018465 
L 440.637752 285.217286 
L 440.879771 288.948982 
L 441.36381 283.623175 
L 441.605829 283.184833 
L 441.847849 280.330308 
L 442.089868 275.816884 
L 442.815926 279.44129 
L 443.057946 278.905615 
L 443.299965 279.306157 
L 443.541985 278.574259 
L 443.784004 276.74331 
L 444.268043 275.78383 
L 444.510062 277.812747 
L 444.752082 277.009827 
L 444.994101 278.102582 
L 445.47814 277.641101 
L 445.962179 274.125647 
L 446.204198 280.549536 
L 446.688237 285.211675 
L 446.930257 294.338162 
L 447.172276 294.688159 
L 447.414296 303.463138 
L 447.898334 306.746694 
L 448.140354 307.432175 
L 448.382373 306.195384 
L 448.624393 305.904644 
L 448.866412 304.852916 
L 449.350451 305.900494 
L 449.592471 307.8 
L 449.83449 307.125658 
L 450.076509 303.520724 
L 450.318529 302.441013 
L 450.802568 306.102944 
L 451.044587 307.251719 
L 451.528626 306.381119 
L 451.770645 304.641344 
L 452.012665 304.715998 
L 452.254684 307.052077 
L 452.496704 303.928131 
L 452.738723 305.520996 
L 452.980743 302.133949 
L 453.222762 301.358099 
L 453.464781 294.559521 
L 453.706801 296.191339 
L 453.94882 290.873751 
L 454.19084 290.623301 
L 454.432859 284.490402 
L 454.916898 284.415994 
L 455.158917 282.865069 
L 455.400937 282.347389 
L 455.642956 284.538221 
L 455.884976 283.312185 
L 456.126995 285.821477 
L 456.369015 274.935147 
L 456.853053 277.923076 
L 457.579112 274.892503 
L 457.821131 271.663096 
L 458.30517 259.62555 
L 458.547189 230.102792 
L 458.789209 239.684074 
L 459.031228 224.24141 
L 459.273248 237.853209 
L 459.757287 232.546544 
L 459.999306 223.995359 
L 460.483345 243.987643 
L 460.725364 246.991969 
L 461.451423 272.607268 
L 461.693442 266.780069 
L 461.935461 267.611421 
L 462.177481 265.580975 
L 462.4195 258.064093 
L 462.66152 265.702263 
L 462.903539 257.145562 
L 463.145559 261.844463 
L 463.387578 272.969596 
L 463.629598 275.901116 
L 463.871617 271.705387 
L 464.113636 275.302022 
L 464.355656 281.841098 
L 464.839695 279.790082 
L 465.081714 284.270159 
L 465.323734 286.372223 
L 465.565753 286.577127 
L 466.049792 289.528069 
L 466.291811 290.378209 
L 466.77585 289.601761 
L 467.01787 290.651134 
L 467.259889 289.58724 
L 467.501908 289.813362 
L 467.743928 291.476924 
L 467.985947 290.683594 
L 468.227967 293.365019 
L 468.469986 290.347732 
L 468.712006 291.250554 
L 468.954025 288.261244 
L 469.438064 298.71782 
L 469.680083 297.372302 
L 469.922103 300.854965 
L 470.164122 301.682376 
L 470.406142 303.642682 
L 470.648161 302.586637 
L 470.89018 302.436376 
L 471.1322 298.635956 
L 471.374219 299.266788 
L 471.616239 297.105985 
L 471.858258 299.363132 
L 472.100278 297.097989 
L 472.342297 298.918823 
L 472.584316 307.284497 
L 473.068355 303.150345 
L 473.310375 305.161542 
L 473.794414 301.679535 
L 474.036433 300.551123 
L 474.520472 304.204856 
L 475.24653 307.167796 
L 475.48855 307.272999 
L 475.730569 302.807166 
L 475.972588 302.06188 
L 476.214608 294.27526 
L 476.456627 293.98426 
L 476.698647 290.820431 
L 476.940666 290.398267 
L 477.182686 290.799972 
L 477.424705 290.825572 
L 477.666724 290.009411 
L 477.908744 291.033428 
L 478.150763 290.796575 
L 478.392783 294.925797 
L 478.634802 293.349865 
L 478.876822 286.488122 
L 479.360861 295.406448 
L 479.60288 292.581167 
L 479.844899 279.688577 
L 480.086919 277.016586 
L 480.328938 271.909727 
L 480.570958 264.126136 
L 480.812977 247.378376 
L 481.054997 254.968971 
L 481.297016 256.032493 
L 481.539035 243.242145 
L 481.781055 240.265054 
L 482.023074 243.385976 
L 482.265094 239.135308 
L 482.507113 246.917295 
L 482.749133 248.56983 
L 482.991152 247.255217 
L 483.233171 261.070599 
L 483.475191 266.539481 
L 483.71721 263.493291 
L 484.201249 277.43228 
L 484.443269 274.608563 
L 484.927307 284.256116 
L 485.169327 283.687453 
L 485.411346 282.52926 
L 485.895385 288.903661 
L 486.137405 288.077941 
L 486.379424 288.741372 
L 486.621443 290.463978 
L 486.863463 290.424287 
L 487.105482 290.607104 
L 487.347502 289.706686 
L 487.589521 289.744941 
L 487.831541 288.858534 
L 488.07356 289.064263 
L 488.557599 285.063292 
L 488.799618 283.116018 
L 489.041638 289.170593 
L 489.283657 291.805719 
L 489.525677 292.095946 
L 490.251735 288.837104 
L 490.493754 285.917058 
L 490.735774 281.387375 
L 490.977793 284.913528 
L 491.219813 283.515295 
L 491.461832 277.446981 
L 491.703851 276.608703 
L 491.945871 274.85799 
L 492.18789 271.324254 
L 492.671929 261.721378 
L 492.913949 262.760839 
L 493.155968 258.9422 
L 493.397988 263.20261 
L 493.640007 258.875693 
L 493.882026 257.709596 
L 494.124046 250.458212 
L 494.366065 254.198516 
L 494.608085 254.68189 
L 494.850104 266.210444 
L 495.092124 264.497517 
L 495.334143 267.92471 
L 495.576162 259.521111 
L 495.818182 261.404498 
L 496.060201 269.352288 
L 496.302221 267.473923 
L 496.54424 260.320518 
L 497.028279 271.559811 
L 497.270298 264.151025 
L 497.512318 262.854204 
L 497.754337 267.895507 
L 497.996357 268.527452 
L 498.238376 260.830004 
L 498.480396 262.844588 
L 498.722415 273.475443 
L 498.964434 278.169338 
L 499.206454 278.281497 
L 499.448473 280.585342 
L 499.690493 285.792755 
L 499.932512 286.442788 
L 500.174532 284.378543 
L 500.416551 285.363224 
L 500.65857 284.180835 
L 501.142609 290.338786 
L 501.384629 288.166042 
L 501.626648 283.64008 
L 501.868668 287.939908 
L 502.110687 287.076495 
L 502.352706 279.943727 
L 502.594726 280.529958 
L 502.836745 283.892383 
L 503.320784 272.339455 
L 503.562804 273.250085 
L 504.046842 255.791621 
L 504.288862 239.261655 
L 504.530881 271.740398 
L 505.01492 282.918832 
L 505.25694 281.921445 
L 505.498959 281.919617 
L 506.467037 292.863475 
L 506.709056 289.904488 
L 507.193095 288.229986 
L 507.677134 283.178618 
L 507.919153 288.066702 
L 508.161173 287.274794 
L 508.403192 288.417816 
L 508.645212 287.961261 
L 509.129251 290.362415 
L 509.37127 290.823068 
L 509.613289 291.798096 
L 509.855309 289.593637 
L 510.339348 282.991182 
L 510.581367 280.084141 
L 511.065406 271.101509 
L 511.307425 272.024433 
L 511.791464 278.831966 
L 512.033484 280.380547 
L 512.759542 289.964487 
L 513.001561 289.400734 
L 513.243581 293.441201 
L 513.4856 290.403924 
L 513.72762 290.41256 
L 513.969639 289.343123 
L 514.211659 287.370435 
L 514.695697 278.908415 
L 514.937717 279.589373 
L 515.179736 276.314127 
L 515.421756 277.147538 
L 515.663775 283.557096 
L 515.905795 283.663733 
L 516.147814 290.070507 
L 516.631853 294.63799 
L 516.873872 295.72068 
L 517.115892 295.143623 
L 517.357911 295.953339 
L 517.599931 295.667974 
L 517.84195 295.845034 
L 518.083969 296.959407 
L 518.325989 299.375891 
L 518.568008 300.110222 
L 518.810028 297.118723 
L 519.052047 296.638554 
L 519.294067 297.338566 
L 519.536086 297.161104 
L 520.020125 296.445568 
L 520.262144 295.281986 
L 520.504164 293.509545 
L 520.988203 296.072198 
L 521.230222 293.381873 
L 521.472241 292.270234 
L 521.714261 289.089861 
L 521.95628 290.07533 
L 522.1983 285.451062 
L 522.440319 287.229745 
L 522.682339 284.917118 
L 522.924358 286.430815 
L 523.166378 286.608598 
L 523.650416 290.51876 
L 523.892436 292.107595 
L 524.134455 292.225139 
L 524.376475 294.481258 
L 524.618494 292.067071 
L 524.860514 292.751126 
L 525.102533 279.659649 
L 525.344552 274.065011 
L 525.586572 275.866809 
L 525.828591 270.427541 
L 526.070611 269.676779 
L 526.55465 261.555101 
L 527.038688 238.128523 
L 527.280708 218.214604 
L 527.522727 176.231341 
L 527.764747 178.780043 
L 528.006766 216.218986 
L 528.248786 214.78802 
L 528.490805 212.167763 
L 528.732824 208.048691 
L 529.458883 239.488682 
L 529.700902 245.526247 
L 529.942922 262.993249 
L 530.184941 270.660604 
L 530.42696 258.541731 
L 530.66898 261.180713 
L 531.153019 238.524467 
L 531.395038 243.021133 
L 531.637058 236.453973 
L 531.879077 242.171641 
L 532.121096 253.119447 
L 532.363116 249.684901 
L 532.605135 248.924647 
L 532.847155 257.656088 
L 533.089174 260.261459 
L 533.331194 255.262524 
L 533.573213 259.778184 
L 533.815232 266.985041 
L 534.057252 264.896247 
L 534.299271 266.654677 
L 534.541291 272.53982 
L 534.78331 274.776646 
L 535.02533 278.587567 
L 535.267349 277.709935 
L 535.509368 272.084102 
L 535.751388 271.938284 
L 535.993407 274.444806 
L 536.235427 271.685035 
L 536.477446 265.531133 
L 536.719466 265.04227 
L 536.961485 269.602375 
L 537.203505 267.515026 
L 537.445524 279.537031 
L 537.687543 279.032567 
L 537.929563 291.746515 
L 538.171582 294.550477 
L 538.413602 291.990148 
L 538.655621 299.007598 
L 538.897641 302.742995 
L 539.13966 302.162912 
L 539.381679 301.246954 
L 539.865718 292.654959 
L 540.107738 293.908599 
L 540.349757 293.332554 
L 540.591777 293.354047 
L 540.833796 293.107276 
L 541.075815 293.340949 
L 541.317835 296.868832 
L 541.559854 297.597 
L 541.801874 295.658434 
L 542.043893 295.084268 
L 542.527932 292.242437 
L 542.769951 292.89532 
L 543.011971 295.131488 
L 543.25399 293.838203 
L 544.222068 303.14077 
L 544.464087 302.344264 
L 544.706107 297.051526 
L 544.948126 288.561806 
L 545.190146 290.797775 
L 545.432165 288.433347 
L 545.674185 282.804511 
L 545.916204 283.302039 
L 546.158223 284.990034 
L 546.400243 283.788846 
L 546.642262 284.55716 
L 546.884282 280.618344 
L 547.126301 288.226786 
L 547.368321 286.660543 
L 547.61034 280.116853 
L 547.852359 283.552648 
L 548.094379 293.774466 
L 548.336398 290.626677 
L 548.578418 279.709143 
L 548.820437 283.505294 
L 549.062457 278.461613 
L 549.546495 250.915051 
L 549.788515 247.457652 
L 550.030534 247.913441 
L 550.272554 234.467521 
L 550.514573 229.076516 
L 550.756593 234.078442 
L 550.998612 226.996852 
L 551.240632 232.505602 
L 551.482651 228.308861 
L 551.72467 231.066929 
L 551.96669 247.225644 
L 552.208709 251.215044 
L 552.450729 245.999946 
L 552.692748 261.227503 
L 552.934768 265.402705 
L 553.176787 258.853931 
L 553.418806 263.972739 
L 553.660826 274.05729 
L 553.902845 273.178392 
L 554.144865 268.679158 
L 554.628904 279.115202 
L 554.870923 277.290904 
L 555.112942 277.17086 
L 555.354962 281.935823 
L 555.596981 283.670972 
L 555.839001 281.706316 
L 556.08102 281.135225 
L 556.32304 282.526149 
L 556.565059 283.262843 
L 556.807078 281.454907 
L 557.291117 282.09904 
L 557.533137 281.41799 
L 558.017176 287.817415 
L 558.259195 290.277462 
L 558.985253 284.14312 
L 559.227273 281.676553 
L 559.469292 281.2238 
L 559.711312 280.10611 
L 559.953331 281.039268 
L 560.43737 277.664285 
L 560.679389 277.315205 
L 560.921409 276.251654 
L 561.405448 269.214109 
L 561.647467 273.015373 
L 561.889486 272.849712 
L 562.131506 278.239177 
L 562.373525 274.759251 
L 562.615545 275.255807 
L 562.857564 269.679803 
L 563.099584 270.54467 
L 563.341603 275.486541 
L 563.583622 283.736352 
L 563.825642 284.679187 
L 564.067661 288.125217 
L 564.5517 280.757129 
L 565.035739 287.559579 
L 565.519778 282.506572 
L 565.761797 286.461384 
L 566.003817 286.922181 
L 566.245836 284.465882 
L 566.487856 284.712872 
L 566.729875 290.660868 
L 566.971895 288.043538 
L 567.213914 288.957902 
L 567.697953 291.968462 
L 567.939972 291.496885 
L 568.181992 287.373422 
L 568.424011 281.347805 
L 568.666031 281.02847 
L 568.90805 282.74976 
L 569.150069 283.440957 
L 569.634108 286.338358 
L 569.876128 289.176891 
L 570.118147 289.577752 
L 570.360167 287.837924 
L 570.602186 289.557959 
L 570.844205 289.097536 
L 571.086225 287.711651 
L 571.328244 287.994429 
L 571.570264 291.618603 
L 571.812283 291.617137 
L 572.054303 290.208476 
L 572.296322 292.710687 
L 572.538341 290.913146 
L 572.780361 292.049541 
L 573.02238 290.996628 
L 573.2644 296.627803 
L 573.506419 298.449138 
L 573.748439 298.549766 
L 574.474497 290.638136 
L 574.716516 293.132853 
L 574.958536 292.681432 
L 575.200555 291.282277 
L 575.442575 288.505134 
L 575.684594 287.564698 
L 575.926613 287.382942 
L 576.410652 290.760692 
L 576.652672 290.280551 
L 577.136711 282.6829 
L 577.37873 284.915615 
L 577.620749 281.969097 
L 577.862769 285.430838 
L 578.104788 285.449049 
L 578.346808 287.312531 
L 578.588827 285.257033 
L 578.830847 286.587497 
L 579.072866 283.835342 
L 579.314885 283.336624 
L 579.556905 282.341195 
L 579.798924 280.028433 
L 580.282963 282.636145 
L 580.524983 281.464175 
L 580.767002 282.091039 
L 581.251041 279.698436 
L 581.73508 275.722376 
L 581.977099 276.069664 
L 582.219119 275.556119 
L 582.945177 269.975751 
L 583.429216 260.502137 
L 583.671235 266.169139 
L 583.913255 265.298506 
L 584.155274 267.887232 
L 584.397294 279.772146 
L 584.639313 279.529753 
L 584.881332 292.035549 
L 585.365371 299.92947 
L 585.607391 301.832848 
L 585.84941 299.523478 
L 586.09143 299.823651 
L 586.333449 297.127473 
L 586.575468 296.326837 
L 586.817488 298.335502 
L 587.059507 301.871156 
L 587.543546 297.736096 
L 587.785566 297.293516 
L 588.027585 300.739916 
L 588.511624 300.603185 
L 588.753643 301.7605 
L 588.995663 299.202873 
L 589.479702 302.113224 
L 589.721721 301.25427 
L 589.96374 299.761105 
L 590.447779 289.465432 
L 590.689799 289.96569 
L 590.931818 282.065072 
L 591.173838 284.675809 
L 591.415857 277.5942 
L 591.657876 279.609254 
L 591.899896 274.551427 
L 592.141915 276.288129 
L 592.383935 277.062012 
L 592.625954 280.150604 
L 592.867974 280.724122 
L 593.109993 283.922262 
L 593.352012 282.187041 
L 593.594032 291.017617 
L 593.836051 280.236911 
L 594.078071 280.474147 
L 594.32009 281.828121 
L 594.56211 280.72754 
L 595.288168 275.305772 
L 595.772207 258.303555 
L 596.014226 239.873573 
L 596.256246 178.699257 
L 596.498265 292.567714 
L 596.740285 291.921985 
L 596.982304 293.893818 
L 597.224323 293.828508 
L 597.466343 289.687471 
L 597.950382 291.1826 
L 598.192401 288.6824 
L 598.434421 290.568098 
L 598.67644 288.716668 
L 598.918459 287.727141 
L 599.160479 284.957408 
L 599.402498 291.692278 
L 599.644518 293.852048 
L 599.886537 256.801923 
L 600.128557 249.594313 
L 600.370576 250.870674 
L 600.612595 258.521058 
L 600.854615 255.681367 
L 601.096634 249.096252 
L 601.580673 261.473856 
L 601.822693 255.450721 
L 602.064712 253.967385 
L 602.306731 261.294893 
L 602.548751 264.04706 
L 602.79077 271.229297 
L 603.03279 269.856651 
L 603.516829 244.265221 
L 603.758848 283.432619 
L 604.000867 277.853669 
L 604.484906 284.129405 
L 604.726926 286.019202 
L 604.968945 281.520737 
L 605.210965 285.091642 
L 605.452984 286.140703 
L 605.695003 284.677898 
L 605.937023 284.037611 
L 606.421062 288.055499 
L 606.663081 288.0335 
L 606.905101 290.663477 
L 607.14712 291.81385 
L 607.389139 236.874089 
L 607.631159 230.522673 
L 607.873178 229.039713 
L 608.115198 238.279201 
L 608.357217 238.600871 
L 608.599237 229.52707 
L 609.083276 243.220984 
L 609.567314 234.306599 
L 610.051353 247.844893 
L 610.293373 261.456489 
L 610.535392 259.538654 
L 611.019431 226.125842 
L 611.26145 262.769271 
L 611.50347 256.435081 
L 611.745489 255.690223 
L 611.987509 263.794892 
L 612.229528 261.839616 
L 612.471548 254.849741 
L 612.955586 266.526306 
L 613.197606 260.502366 
L 613.439625 259.21012 
L 613.681645 265.248561 
L 613.923664 268.314008 
L 614.165684 273.658517 
L 614.407703 272.459688 
L 614.891742 249.220427 
L 615.133761 283.407337 
L 615.375781 285.143053 
L 615.6178 282.604307 
L 615.85982 283.027717 
L 616.101839 286.900456 
L 616.343858 287.29452 
L 616.585878 284.025476 
L 616.827897 287.490699 
L 617.069917 288.392906 
L 617.311936 286.282005 
L 617.795975 289.043925 
L 618.037994 290.964512 
L 618.280014 290.376208 
L 618.764053 294.511073 
L 619.006072 254.12909 
L 619.490111 245.07189 
L 619.73213 253.782254 
L 619.97415 255.207478 
L 620.216169 246.744849 
L 620.458189 249.885204 
L 620.700208 257.576051 
L 621.184247 249.365352 
L 621.910305 272.147916 
L 622.152325 268.473295 
L 622.394344 254.685525 
L 622.636364 249.21523 
L 622.636364 249.21523 
" clip-path="url(#p2119c1876e)" style="fill: none; stroke: #ff7f0e; stroke-width: 1.5; stroke-linecap: square"/>
   </g>
   <g id="patch_3">
    <path d="M 90 320.4 
L 90 43.2 
" style="fill: none; stroke: #000000; stroke-width: 0.8; stroke-linejoin: miter; stroke-linecap: square"/>
   </g>
   <g id="patch_4">
    <path d="M 648 320.4 
L 648 43.2 
" style="fill: none; stroke: #000000; stroke-width: 0.8; stroke-linejoin: miter; stroke-linecap: square"/>
   </g>
   <g id="patch_5">
    <path d="M 90 320.4 
L 648 320.4 
" style="fill: none; stroke: #000000; stroke-width: 0.8; stroke-linejoin: miter; stroke-linecap: square"/>
   </g>
   <g id="patch_6">
    <path d="M 90 43.2 
L 648 43.2 
" style="fill: none; stroke: #000000; stroke-width: 0.8; stroke-linejoin: miter; stroke-linecap: square"/>
   </g>
   <g id="legend_1">
    <g id="patch_7">
     <path d="M 488.671875 84.291875 
L 640.3 84.291875 
Q 642.5 84.291875 642.5 82.091875 
L 642.5 50.9 
Q 642.5 48.7 640.3 48.7 
L 488.671875 48.7 
Q 486.471875 48.7 486.471875 50.9 
L 486.471875 82.091875 
Q 486.471875 84.291875 488.671875 84.291875 
z
" style="fill: #ffffff; opacity: 0.8; stroke: #cccccc; stroke-linejoin: miter"/>
    </g>
    <g id="line2d_16">
     <path d="M 490.871875 57.608281 
L 501.871875 57.608281 
L 512.871875 57.608281 
" style="fill: none; stroke: #1f77b4; stroke-width: 1.5; stroke-linecap: square"/>
    </g>
    <g id="text_16">
     <!-- B-factors -->
     <g transform="translate(521.671875 61.458281)scale(0.11 -0.11)">
      <defs>
       <path id="DejaVuSans-42" d="M 1259 2228 
L 1259 519 
L 2272 519 
Q 2781 519 3026 730 
Q 3272 941 3272 1375 
Q 3272 1813 3026 2020 
Q 2781 2228 2272 2228 
L 1259 2228 
z
M 1259 4147 
L 1259 2741 
L 2194 2741 
Q 2656 2741 2882 2914 
Q 3109 3088 3109 3444 
Q 3109 3797 2882 3972 
Q 2656 4147 2194 4147 
L 1259 4147 
z
M 628 4666 
L 2241 4666 
Q 2963 4666 3353 4366 
Q 3744 4066 3744 3513 
Q 3744 3084 3544 2831 
Q 3344 2578 2956 2516 
Q 3422 2416 3680 2098 
Q 3938 1781 3938 1306 
Q 3938 681 3513 340 
Q 3088 0 2303 0 
L 628 0 
L 628 4666 
z
" transform="scale(0.015625)"/>
       <path id="DejaVuSans-2d" d="M 313 2009 
L 1997 2009 
L 1997 1497 
L 313 1497 
L 313 2009 
z
" transform="scale(0.015625)"/>
       <path id="DejaVuSans-66" d="M 2375 4863 
L 2375 4384 
L 1825 4384 
Q 1516 4384 1395 4259 
Q 1275 4134 1275 3809 
L 1275 3500 
L 2222 3500 
L 2222 3053 
L 1275 3053 
L 1275 0 
L 697 0 
L 697 3053 
L 147 3053 
L 147 3500 
L 697 3500 
L 697 3744 
Q 697 4328 969 4595 
Q 1241 4863 1831 4863 
L 2375 4863 
z
" transform="scale(0.015625)"/>
       <path id="DejaVuSans-61" d="M 2194 1759 
Q 1497 1759 1228 1600 
Q 959 1441 959 1056 
Q 959 750 1161 570 
Q 1363 391 1709 391 
Q 2188 391 2477 730 
Q 2766 1069 2766 1631 
L 2766 1759 
L 2194 1759 
z
M 3341 1997 
L 3341 0 
L 2766 0 
L 2766 531 
Q 2569 213 2275 61 
Q 1981 -91 1556 -91 
Q 1019 -91 701 211 
Q 384 513 384 1019 
Q 384 1609 779 1909 
Q 1175 2209 1959 2209 
L 2766 2209 
L 2766 2266 
Q 2766 2663 2505 2880 
Q 2244 3097 1772 3097 
Q 1472 3097 1187 3025 
Q 903 2953 641 2809 
L 641 3341 
Q 956 3463 1253 3523 
Q 1550 3584 1831 3584 
Q 2591 3584 2966 3190 
Q 3341 2797 3341 1997 
z
" transform="scale(0.015625)"/>
       <path id="DejaVuSans-63" d="M 3122 3366 
L 3122 2828 
Q 2878 2963 2633 3030 
Q 2388 3097 2138 3097 
Q 1578 3097 1268 2742 
Q 959 2388 959 1747 
Q 959 1106 1268 751 
Q 1578 397 2138 397 
Q 2388 397 2633 464 
Q 2878 531 3122 666 
L 3122 134 
Q 2881 22 2623 -34 
Q 2366 -91 2075 -91 
Q 1284 -91 818 406 
Q 353 903 353 1747 
Q 353 2603 823 3093 
Q 1294 3584 2113 3584 
Q 2378 3584 2631 3529 
Q 2884 3475 3122 3366 
z
" transform="scale(0.015625)"/>
       <path id="DejaVuSans-74" d="M 1172 4494 
L 1172 3500 
L 2356 3500 
L 2356 3053 
L 1172 3053 
L 1172 1153 
Q 1172 725 1289 603 
Q 1406 481 1766 481 
L 2356 481 
L 2356 0 
L 1766 0 
Q 1100 0 847 248 
Q 594 497 594 1153 
L 594 3053 
L 172 3053 
L 172 3500 
L 594 3500 
L 594 4494 
L 1172 4494 
z
" transform="scale(0.015625)"/>
       <path id="DejaVuSans-6f" d="M 1959 3097 
Q 1497 3097 1228 2736 
Q 959 2375 959 1747 
Q 959 1119 1226 758 
Q 1494 397 1959 397 
Q 2419 397 2687 759 
Q 2956 1122 2956 1747 
Q 2956 2369 2687 2733 
Q 2419 3097 1959 3097 
z
M 1959 3584 
Q 2709 3584 3137 3096 
Q 3566 2609 3566 1747 
Q 3566 888 3137 398 
Q 2709 -91 1959 -91 
Q 1206 -91 779 398 
Q 353 888 353 1747 
Q 353 2609 779 3096 
Q 1206 3584 1959 3584 
z
" transform="scale(0.015625)"/>
      </defs>
      <use xlink:href="#DejaVuSans-42"/>
      <use xlink:href="#DejaVuSans-2d" x="68.603516"/>
      <use xlink:href="#DejaVuSans-66" x="104.6875"/>
      <use xlink:href="#DejaVuSans-61" x="139.892578"/>
      <use xlink:href="#DejaVuSans-63" x="201.171875"/>
      <use xlink:href="#DejaVuSans-74" x="256.152344"/>
      <use xlink:href="#DejaVuSans-6f" x="295.361328"/>
      <use xlink:href="#DejaVuSans-72" x="356.542969"/>
      <use xlink:href="#DejaVuSans-73" x="397.65625"/>
     </g>
    </g>
    <g id="line2d_17">
     <path d="M 490.871875 73.754219 
L 501.871875 73.754219 
L 512.871875 73.754219 
" style="fill: none; stroke: #ff7f0e; stroke-width: 1.5; stroke-linecap: square"/>
    </g>
    <g id="text_17">
     <!-- Squared Fluctuations -->
     <g transform="translate(521.671875 77.604219)scale(0.11 -0.11)">
      <defs>
       <path id="DejaVuSans-53" d="M 3425 4513 
L 3425 3897 
Q 3066 4069 2747 4153 
Q 2428 4238 2131 4238 
Q 1616 4238 1336 4038 
Q 1056 3838 1056 3469 
Q 1056 3159 1242 3001 
Q 1428 2844 1947 2747 
L 2328 2669 
Q 3034 2534 3370 2195 
Q 3706 1856 3706 1288 
Q 3706 609 3251 259 
Q 2797 -91 1919 -91 
Q 1588 -91 1214 -16 
Q 841 59 441 206 
L 441 856 
Q 825 641 1194 531 
Q 1563 422 1919 422 
Q 2459 422 2753 634 
Q 3047 847 3047 1241 
Q 3047 1584 2836 1778 
Q 2625 1972 2144 2069 
L 1759 2144 
Q 1053 2284 737 2584 
Q 422 2884 422 3419 
Q 422 4038 858 4394 
Q 1294 4750 2059 4750 
Q 2388 4750 2728 4690 
Q 3069 4631 3425 4513 
z
" transform="scale(0.015625)"/>
       <path id="DejaVuSans-71" d="M 947 1747 
Q 947 1113 1208 752 
Q 1469 391 1925 391 
Q 2381 391 2643 752 
Q 2906 1113 2906 1747 
Q 2906 2381 2643 2742 
Q 2381 3103 1925 3103 
Q 1469 3103 1208 2742 
Q 947 2381 947 1747 
z
M 2906 525 
Q 2725 213 2448 61 
Q 2172 -91 1784 -91 
Q 1150 -91 751 415 
Q 353 922 353 1747 
Q 353 2572 751 3078 
Q 1150 3584 1784 3584 
Q 2172 3584 2448 3432 
Q 2725 3281 2906 2969 
L 2906 3500 
L 3481 3500 
L 3481 -1331 
L 2906 -1331 
L 2906 525 
z
" transform="scale(0.015625)"/>
       <path id="DejaVuSans-46" d="M 628 4666 
L 3309 4666 
L 3309 4134 
L 1259 4134 
L 1259 2759 
L 3109 2759 
L 3109 2228 
L 1259 2228 
L 1259 0 
L 628 0 
L 628 4666 
z
" transform="scale(0.015625)"/>
       <path id="DejaVuSans-6c" d="M 603 4863 
L 1178 4863 
L 1178 0 
L 603 0 
L 603 4863 
z
" transform="scale(0.015625)"/>
       <path id="DejaVuSans-6e" d="M 3513 2113 
L 3513 0 
L 2938 0 
L 2938 2094 
Q 2938 2591 2744 2837 
Q 2550 3084 2163 3084 
Q 1697 3084 1428 2787 
Q 1159 2491 1159 1978 
L 1159 0 
L 581 0 
L 581 3500 
L 1159 3500 
L 1159 2956 
Q 1366 3272 1645 3428 
Q 1925 3584 2291 3584 
Q 2894 3584 3203 3211 
Q 3513 2838 3513 2113 
z
" transform="scale(0.015625)"/>
      </defs>
      <use xlink:href="#DejaVuSans-53"/>
      <use xlink:href="#DejaVuSans-71" x="63.476562"/>
      <use xlink:href="#DejaVuSans-75" x="126.953125"/>
      <use xlink:href="#DejaVuSans-61" x="190.332031"/>
      <use xlink:href="#DejaVuSans-72" x="251.611328"/>
      <use xlink:href="#DejaVuSans-65" x="290.474609"/>
      <use xlink:href="#DejaVuSans-64" x="351.998047"/>
      <use xlink:href="#DejaVuSans-20" x="415.474609"/>
      <use xlink:href="#DejaVuSans-46" x="447.261719"/>
      <use xlink:href="#DejaVuSans-6c" x="504.78125"/>
      <use xlink:href="#DejaVuSans-75" x="532.564453"/>
      <use xlink:href="#DejaVuSans-63" x="595.943359"/>
      <use xlink:href="#DejaVuSans-74" x="650.923828"/>
      <use xlink:href="#DejaVuSans-75" x="690.132812"/>
      <use xlink:href="#DejaVuSans-61" x="753.511719"/>
      <use xlink:href="#DejaVuSans-74" x="814.791016"/>
      <use xlink:href="#DejaVuSans-69" x="854"/>
      <use xlink:href="#DejaVuSans-6f" x="881.783203"/>
      <use xlink:href="#DejaVuSans-6e" x="942.964844"/>
      <use xlink:href="#DejaVuSans-73" x="1006.34375"/>
     </g>
    </g>
   </g>
  </g>
  <g id="text_18">
   <!-- Squared Fluctuations vs B-factors: Capsid Protein And C-Terminal Part Of Scaffolding Protein In The Staphylococcus Aureus Phage 80Alpha Procapsid (6b0x) -->
   <g transform="translate(-107.138438 16.318125)scale(0.12 -0.12)">
    <defs>
     <path id="DejaVuSans-76" d="M 191 3500 
L 800 3500 
L 1894 563 
L 2988 3500 
L 3597 3500 
L 2284 0 
L 1503 0 
L 191 3500 
z
" transform="scale(0.015625)"/>
     <path id="DejaVuSans-3a" d="M 750 794 
L 1409 794 
L 1409 0 
L 750 0 
L 750 794 
z
M 750 3309 
L 1409 3309 
L 1409 2516 
L 750 2516 
L 750 3309 
z
" transform="scale(0.015625)"/>
     <path id="DejaVuSans-43" d="M 4122 4306 
L 4122 3641 
Q 3803 3938 3442 4084 
Q 3081 4231 2675 4231 
Q 1875 4231 1450 3742 
Q 1025 3253 1025 2328 
Q 1025 1406 1450 917 
Q 1875 428 2675 428 
Q 3081 428 3442 575 
Q 3803 722 4122 1019 
L 4122 359 
Q 3791 134 3420 21 
Q 3050 -91 2638 -91 
Q 1578 -91 968 557 
Q 359 1206 359 2328 
Q 359 3453 968 4101 
Q 1578 4750 2638 4750 
Q 3056 4750 3426 4639 
Q 3797 4528 4122 4306 
z
" transform="scale(0.015625)"/>
     <path id="DejaVuSans-70" d="M 1159 525 
L 1159 -1331 
L 581 -1331 
L 581 3500 
L 1159 3500 
L 1159 2969 
Q 1341 3281 1617 3432 
Q 1894 3584 2278 3584 
Q 2916 3584 3314 3078 
Q 3713 2572 3713 1747 
Q 3713 922 3314 415 
Q 2916 -91 2278 -91 
Q 1894 -91 1617 61 
Q 1341 213 1159 525 
z
M 3116 1747 
Q 3116 2381 2855 2742 
Q 2594 3103 2138 3103 
Q 1681 3103 1420 2742 
Q 1159 2381 1159 1747 
Q 1159 1113 1420 752 
Q 1681 391 2138 391 
Q 2594 391 2855 752 
Q 3116 1113 3116 1747 
z
" transform="scale(0.015625)"/>
     <path id="DejaVuSans-50" d="M 1259 4147 
L 1259 2394 
L 2053 2394 
Q 2494 2394 2734 2622 
Q 2975 2850 2975 3272 
Q 2975 3691 2734 3919 
Q 2494 4147 2053 4147 
L 1259 4147 
z
M 628 4666 
L 2053 4666 
Q 2838 4666 3239 4311 
Q 3641 3956 3641 3272 
Q 3641 2581 3239 2228 
Q 2838 1875 2053 1875 
L 1259 1875 
L 1259 0 
L 628 0 
L 628 4666 
z
" transform="scale(0.015625)"/>
     <path id="DejaVuSans-41" d="M 2188 4044 
L 1331 1722 
L 3047 1722 
L 2188 4044 
z
M 1831 4666 
L 2547 4666 
L 4325 0 
L 3669 0 
L 3244 1197 
L 1141 1197 
L 716 0 
L 50 0 
L 1831 4666 
z
" transform="scale(0.015625)"/>
     <path id="DejaVuSans-54" d="M -19 4666 
L 3928 4666 
L 3928 4134 
L 2272 4134 
L 2272 0 
L 1638 0 
L 1638 4134 
L -19 4134 
L -19 4666 
z
" transform="scale(0.015625)"/>
     <path id="DejaVuSans-4f" d="M 2522 4238 
Q 1834 4238 1429 3725 
Q 1025 3213 1025 2328 
Q 1025 1447 1429 934 
Q 1834 422 2522 422 
Q 3209 422 3611 934 
Q 4013 1447 4013 2328 
Q 4013 3213 3611 3725 
Q 3209 4238 2522 4238 
z
M 2522 4750 
Q 3503 4750 4090 4092 
Q 4678 3434 4678 2328 
Q 4678 1225 4090 567 
Q 3503 -91 2522 -91 
Q 1538 -91 948 565 
Q 359 1222 359 2328 
Q 359 3434 948 4092 
Q 1538 4750 2522 4750 
z
" transform="scale(0.015625)"/>
     <path id="DejaVuSans-67" d="M 2906 1791 
Q 2906 2416 2648 2759 
Q 2391 3103 1925 3103 
Q 1463 3103 1205 2759 
Q 947 2416 947 1791 
Q 947 1169 1205 825 
Q 1463 481 1925 481 
Q 2391 481 2648 825 
Q 2906 1169 2906 1791 
z
M 3481 434 
Q 3481 -459 3084 -895 
Q 2688 -1331 1869 -1331 
Q 1566 -1331 1297 -1286 
Q 1028 -1241 775 -1147 
L 775 -588 
Q 1028 -725 1275 -790 
Q 1522 -856 1778 -856 
Q 2344 -856 2625 -561 
Q 2906 -266 2906 331 
L 2906 616 
Q 2728 306 2450 153 
Q 2172 0 1784 0 
Q 1141 0 747 490 
Q 353 981 353 1791 
Q 353 2603 747 3093 
Q 1141 3584 1784 3584 
Q 2172 3584 2450 3431 
Q 2728 3278 2906 2969 
L 2906 3500 
L 3481 3500 
L 3481 434 
z
" transform="scale(0.015625)"/>
     <path id="DejaVuSans-49" d="M 628 4666 
L 1259 4666 
L 1259 0 
L 628 0 
L 628 4666 
z
" transform="scale(0.015625)"/>
     <path id="DejaVuSans-68" d="M 3513 2113 
L 3513 0 
L 2938 0 
L 2938 2094 
Q 2938 2591 2744 2837 
Q 2550 3084 2163 3084 
Q 1697 3084 1428 2787 
Q 1159 2491 1159 1978 
L 1159 0 
L 581 0 
L 581 4863 
L 1159 4863 
L 1159 2956 
Q 1366 3272 1645 3428 
Q 1925 3584 2291 3584 
Q 2894 3584 3203 3211 
Q 3513 2838 3513 2113 
z
" transform="scale(0.015625)"/>
     <path id="DejaVuSans-79" d="M 2059 -325 
Q 1816 -950 1584 -1140 
Q 1353 -1331 966 -1331 
L 506 -1331 
L 506 -850 
L 844 -850 
Q 1081 -850 1212 -737 
Q 1344 -625 1503 -206 
L 1606 56 
L 191 3500 
L 800 3500 
L 1894 763 
L 2988 3500 
L 3597 3500 
L 2059 -325 
z
" transform="scale(0.015625)"/>
     <path id="DejaVuSans-28" d="M 1984 4856 
Q 1566 4138 1362 3434 
Q 1159 2731 1159 2009 
Q 1159 1288 1364 580 
Q 1569 -128 1984 -844 
L 1484 -844 
Q 1016 -109 783 600 
Q 550 1309 550 2009 
Q 550 2706 781 3412 
Q 1013 4119 1484 4856 
L 1984 4856 
z
" transform="scale(0.015625)"/>
     <path id="DejaVuSans-78" d="M 3513 3500 
L 2247 1797 
L 3578 0 
L 2900 0 
L 1881 1375 
L 863 0 
L 184 0 
L 1544 1831 
L 300 3500 
L 978 3500 
L 1906 2253 
L 2834 3500 
L 3513 3500 
z
" transform="scale(0.015625)"/>
     <path id="DejaVuSans-29" d="M 513 4856 
L 1013 4856 
Q 1481 4119 1714 3412 
Q 1947 2706 1947 2009 
Q 1947 1309 1714 600 
Q 1481 -109 1013 -844 
L 513 -844 
Q 928 -128 1133 580 
Q 1338 1288 1338 2009 
Q 1338 2731 1133 3434 
Q 928 4138 513 4856 
z
" transform="scale(0.015625)"/>
    </defs>
    <use xlink:href="#DejaVuSans-53"/>
    <use xlink:href="#DejaVuSans-71" x="63.476562"/>
    <use xlink:href="#DejaVuSans-75" x="126.953125"/>
    <use xlink:href="#DejaVuSans-61" x="190.332031"/>
    <use xlink:href="#DejaVuSans-72" x="251.611328"/>
    <use xlink:href="#DejaVuSans-65" x="290.474609"/>
    <use xlink:href="#DejaVuSans-64" x="351.998047"/>
    <use xlink:href="#DejaVuSans-20" x="415.474609"/>
    <use xlink:href="#DejaVuSans-46" x="447.261719"/>
    <use xlink:href="#DejaVuSans-6c" x="504.78125"/>
    <use xlink:href="#DejaVuSans-75" x="532.564453"/>
    <use xlink:href="#DejaVuSans-63" x="595.943359"/>
    <use xlink:href="#DejaVuSans-74" x="650.923828"/>
    <use xlink:href="#DejaVuSans-75" x="690.132812"/>
    <use xlink:href="#DejaVuSans-61" x="753.511719"/>
    <use xlink:href="#DejaVuSans-74" x="814.791016"/>
    <use xlink:href="#DejaVuSans-69" x="854"/>
    <use xlink:href="#DejaVuSans-6f" x="881.783203"/>
    <use xlink:href="#DejaVuSans-6e" x="942.964844"/>
    <use xlink:href="#DejaVuSans-73" x="1006.34375"/>
    <use xlink:href="#DejaVuSans-20" x="1058.443359"/>
    <use xlink:href="#DejaVuSans-76" x="1090.230469"/>
    <use xlink:href="#DejaVuSans-73" x="1149.410156"/>
    <use xlink:href="#DejaVuSans-20" x="1201.509766"/>
    <use xlink:href="#DejaVuSans-42" x="1233.296875"/>
    <use xlink:href="#DejaVuSans-2d" x="1301.900391"/>
    <use xlink:href="#DejaVuSans-66" x="1337.984375"/>
    <use xlink:href="#DejaVuSans-61" x="1373.189453"/>
    <use xlink:href="#DejaVuSans-63" x="1434.46875"/>
    <use xlink:href="#DejaVuSans-74" x="1489.449219"/>
    <use xlink:href="#DejaVuSans-6f" x="1528.658203"/>
    <use xlink:href="#DejaVuSans-72" x="1589.839844"/>
    <use xlink:href="#DejaVuSans-73" x="1630.953125"/>
    <use xlink:href="#DejaVuSans-3a" x="1683.052734"/>
    <use xlink:href="#DejaVuSans-20" x="1716.744141"/>
    <use xlink:href="#DejaVuSans-43" x="1748.53125"/>
    <use xlink:href="#DejaVuSans-61" x="1818.355469"/>
    <use xlink:href="#DejaVuSans-70" x="1879.634766"/>
    <use xlink:href="#DejaVuSans-73" x="1943.111328"/>
    <use xlink:href="#DejaVuSans-69" x="1995.210938"/>
    <use xlink:href="#DejaVuSans-64" x="2022.994141"/>
    <use xlink:href="#DejaVuSans-20" x="2086.470703"/>
    <use xlink:href="#DejaVuSans-50" x="2118.257812"/>
    <use xlink:href="#DejaVuSans-72" x="2176.810547"/>
    <use xlink:href="#DejaVuSans-6f" x="2215.673828"/>
    <use xlink:href="#DejaVuSans-74" x="2276.855469"/>
    <use xlink:href="#DejaVuSans-65" x="2316.064453"/>
    <use xlink:href="#DejaVuSans-69" x="2377.587891"/>
    <use xlink:href="#DejaVuSans-6e" x="2405.371094"/>
    <use xlink:href="#DejaVuSans-20" x="2468.75"/>
    <use xlink:href="#DejaVuSans-41" x="2500.537109"/>
    <use xlink:href="#DejaVuSans-6e" x="2568.945312"/>
    <use xlink:href="#DejaVuSans-64" x="2632.324219"/>
    <use xlink:href="#DejaVuSans-20" x="2695.800781"/>
    <use xlink:href="#DejaVuSans-43" x="2727.587891"/>
    <use xlink:href="#DejaVuSans-2d" x="2797.412109"/>
    <use xlink:href="#DejaVuSans-54" x="2824.371094"/>
    <use xlink:href="#DejaVuSans-65" x="2868.455078"/>
    <use xlink:href="#DejaVuSans-72" x="2929.978516"/>
    <use xlink:href="#DejaVuSans-6d" x="2969.341797"/>
    <use xlink:href="#DejaVuSans-69" x="3066.753906"/>
    <use xlink:href="#DejaVuSans-6e" x="3094.537109"/>
    <use xlink:href="#DejaVuSans-61" x="3157.916016"/>
    <use xlink:href="#DejaVuSans-6c" x="3219.195312"/>
    <use xlink:href="#DejaVuSans-20" x="3246.978516"/>
    <use xlink:href="#DejaVuSans-50" x="3278.765625"/>
    <use xlink:href="#DejaVuSans-61" x="3334.568359"/>
    <use xlink:href="#DejaVuSans-72" x="3395.847656"/>
    <use xlink:href="#DejaVuSans-74" x="3436.960938"/>
    <use xlink:href="#DejaVuSans-20" x="3476.169922"/>
    <use xlink:href="#DejaVuSans-4f" x="3507.957031"/>
    <use xlink:href="#DejaVuSans-66" x="3586.667969"/>
    <use xlink:href="#DejaVuSans-20" x="3621.873047"/>
    <use xlink:href="#DejaVuSans-53" x="3653.660156"/>
    <use xlink:href="#DejaVuSans-63" x="3717.136719"/>
    <use xlink:href="#DejaVuSans-61" x="3772.117188"/>
    <use xlink:href="#DejaVuSans-66" x="3833.396484"/>
    <use xlink:href="#DejaVuSans-66" x="3868.601562"/>
    <use xlink:href="#DejaVuSans-6f" x="3903.806641"/>
    <use xlink:href="#DejaVuSans-6c" x="3964.988281"/>
    <use xlink:href="#DejaVuSans-64" x="3992.771484"/>
    <use xlink:href="#DejaVuSans-69" x="4056.248047"/>
    <use xlink:href="#DejaVuSans-6e" x="4084.03125"/>
    <use xlink:href="#DejaVuSans-67" x="4147.410156"/>
    <use xlink:href="#DejaVuSans-20" x="4210.886719"/>
    <use xlink:href="#DejaVuSans-50" x="4242.673828"/>
    <use xlink:href="#DejaVuSans-72" x="4301.226562"/>
    <use xlink:href="#DejaVuSans-6f" x="4340.089844"/>
    <use xlink:href="#DejaVuSans-74" x="4401.271484"/>
    <use xlink:href="#DejaVuSans-65" x="4440.480469"/>
    <use xlink:href="#DejaVuSans-69" x="4502.003906"/>
    <use xlink:href="#DejaVuSans-6e" x="4529.787109"/>
    <use xlink:href="#DejaVuSans-20" x="4593.166016"/>
    <use xlink:href="#DejaVuSans-49" x="4624.953125"/>
    <use xlink:href="#DejaVuSans-6e" x="4654.445312"/>
    <use xlink:href="#DejaVuSans-20" x="4717.824219"/>
    <use xlink:href="#DejaVuSans-54" x="4749.611328"/>
    <use xlink:href="#DejaVuSans-68" x="4810.695312"/>
    <use xlink:href="#DejaVuSans-65" x="4874.074219"/>
    <use xlink:href="#DejaVuSans-20" x="4935.597656"/>
    <use xlink:href="#DejaVuSans-53" x="4967.384766"/>
    <use xlink:href="#DejaVuSans-74" x="5030.861328"/>
    <use xlink:href="#DejaVuSans-61" x="5070.070312"/>
    <use xlink:href="#DejaVuSans-70" x="5131.349609"/>
    <use xlink:href="#DejaVuSans-68" x="5194.826172"/>
    <use xlink:href="#DejaVuSans-79" x="5258.205078"/>
    <use xlink:href="#DejaVuSans-6c" x="5317.384766"/>
    <use xlink:href="#DejaVuSans-6f" x="5345.167969"/>
    <use xlink:href="#DejaVuSans-63" x="5406.349609"/>
    <use xlink:href="#DejaVuSans-6f" x="5461.330078"/>
    <use xlink:href="#DejaVuSans-63" x="5522.511719"/>
    <use xlink:href="#DejaVuSans-63" x="5577.492188"/>
    <use xlink:href="#DejaVuSans-75" x="5632.472656"/>
    <use xlink:href="#DejaVuSans-73" x="5695.851562"/>
    <use xlink:href="#DejaVuSans-20" x="5747.951172"/>
    <use xlink:href="#DejaVuSans-41" x="5779.738281"/>
    <use xlink:href="#DejaVuSans-75" x="5848.146484"/>
    <use xlink:href="#DejaVuSans-72" x="5911.525391"/>
    <use xlink:href="#DejaVuSans-65" x="5950.388672"/>
    <use xlink:href="#DejaVuSans-75" x="6011.912109"/>
    <use xlink:href="#DejaVuSans-73" x="6075.291016"/>
    <use xlink:href="#DejaVuSans-20" x="6127.390625"/>
    <use xlink:href="#DejaVuSans-50" x="6159.177734"/>
    <use xlink:href="#DejaVuSans-68" x="6219.480469"/>
    <use xlink:href="#DejaVuSans-61" x="6282.859375"/>
    <use xlink:href="#DejaVuSans-67" x="6344.138672"/>
    <use xlink:href="#DejaVuSans-65" x="6407.615234"/>
    <use xlink:href="#DejaVuSans-20" x="6469.138672"/>
    <use xlink:href="#DejaVuSans-38" x="6500.925781"/>
    <use xlink:href="#DejaVuSans-30" x="6564.548828"/>
    <use xlink:href="#DejaVuSans-41" x="6628.171875"/>
    <use xlink:href="#DejaVuSans-6c" x="6696.580078"/>
    <use xlink:href="#DejaVuSans-70" x="6724.363281"/>
    <use xlink:href="#DejaVuSans-68" x="6787.839844"/>
    <use xlink:href="#DejaVuSans-61" x="6851.21875"/>
    <use xlink:href="#DejaVuSans-20" x="6912.498047"/>
    <use xlink:href="#DejaVuSans-50" x="6944.285156"/>
    <use xlink:href="#DejaVuSans-72" x="7002.837891"/>
    <use xlink:href="#DejaVuSans-6f" x="7041.701172"/>
    <use xlink:href="#DejaVuSans-63" x="7102.882812"/>
    <use xlink:href="#DejaVuSans-61" x="7157.863281"/>
    <use xlink:href="#DejaVuSans-70" x="7219.142578"/>
    <use xlink:href="#DejaVuSans-73" x="7282.619141"/>
    <use xlink:href="#DejaVuSans-69" x="7334.71875"/>
    <use xlink:href="#DejaVuSans-64" x="7362.501953"/>
    <use xlink:href="#DejaVuSans-20" x="7425.978516"/>
    <use xlink:href="#DejaVuSans-28" x="7457.765625"/>
    <use xlink:href="#DejaVuSans-36" x="7496.779297"/>
    <use xlink:href="#DejaVuSans-62" x="7560.402344"/>
    <use xlink:href="#DejaVuSans-30" x="7623.878906"/>
    <use xlink:href="#DejaVuSans-78" x="7687.501953"/>
    <use xlink:href="#DejaVuSans-29" x="7746.681641"/>
   </g>
   <!--  $\gamma = $0.05218$\pm$inf $k_{b}T/Å^{2}$  CC = nan -->
   <g transform="translate(255.96 32.20575)scale(0.12 -0.12)">
    <defs>
     <path id="DejaVuSans-Oblique-3b3" d="M 1491 2950 
L 1838 788 
L 3456 3500 
L 4066 3500 
L 1972 0 
L 1713 -1331 
L 1138 -1331 
L 1397 0 
L 988 2613 
Q 925 3006 628 3006 
L 475 3006 
L 569 3500 
L 788 3500 
Q 1403 3500 1491 2950 
z
" transform="scale(0.015625)"/>
     <path id="DejaVuSans-3d" d="M 678 2906 
L 4684 2906 
L 4684 2381 
L 678 2381 
L 678 2906 
z
M 678 1631 
L 4684 1631 
L 4684 1100 
L 678 1100 
L 678 1631 
z
" transform="scale(0.015625)"/>
     <path id="DejaVuSans-2e" d="M 684 794 
L 1344 794 
L 1344 0 
L 684 0 
L 684 794 
z
" transform="scale(0.015625)"/>
     <path id="DejaVuSans-b1" d="M 2944 4013 
L 2944 2803 
L 4684 2803 
L 4684 2272 
L 2944 2272 
L 2944 1063 
L 2419 1063 
L 2419 2272 
L 678 2272 
L 678 2803 
L 2419 2803 
L 2419 4013 
L 2944 4013 
z
M 678 531 
L 4684 531 
L 4684 0 
L 678 0 
L 678 531 
z
" transform="scale(0.015625)"/>
     <path id="DejaVuSans-Oblique-6b" d="M 1172 4863 
L 1747 4863 
L 1197 2028 
L 3169 3500 
L 3916 3500 
L 1716 1825 
L 3322 0 
L 2625 0 
L 1131 1709 
L 800 0 
L 225 0 
L 1172 4863 
z
" transform="scale(0.015625)"/>
     <path id="DejaVuSans-Oblique-62" d="M 3169 2138 
Q 3169 2591 2961 2847 
Q 2753 3103 2388 3103 
Q 2122 3103 1889 2973 
Q 1656 2844 1484 2597 
Q 1303 2338 1198 1995 
Q 1094 1653 1094 1313 
Q 1094 881 1298 636 
Q 1503 391 1863 391 
Q 2134 391 2365 517 
Q 2597 644 2772 891 
Q 2950 1147 3059 1487 
Q 3169 1828 3169 2138 
z
M 1381 2969 
Q 1594 3256 1914 3420 
Q 2234 3584 2584 3584 
Q 3122 3584 3439 3221 
Q 3756 2859 3756 2241 
Q 3756 1734 3570 1259 
Q 3384 784 3041 416 
Q 2816 172 2522 40 
Q 2228 -91 1906 -91 
Q 1566 -91 1316 65 
Q 1066 222 909 531 
L 806 0 
L 231 0 
L 1178 4863 
L 1753 4863 
L 1381 2969 
z
" transform="scale(0.015625)"/>
     <path id="DejaVuSans-Oblique-54" d="M 378 4666 
L 4325 4666 
L 4225 4134 
L 2559 4134 
L 1759 0 
L 1125 0 
L 1925 4134 
L 275 4134 
L 378 4666 
z
" transform="scale(0.015625)"/>
     <path id="DejaVuSans-2f" d="M 1625 4666 
L 2156 4666 
L 531 -594 
L 0 -594 
L 1625 4666 
z
" transform="scale(0.015625)"/>
    </defs>
    <use xlink:href="#DejaVuSans-20" transform="translate(0 0.171875)"/>
    <use xlink:href="#DejaVuSans-Oblique-3b3" transform="translate(31.787109 0.171875)"/>
    <use xlink:href="#DejaVuSans-3d" transform="translate(110.449219 0.171875)"/>
    <use xlink:href="#DejaVuSans-30" transform="translate(213.720703 0.171875)"/>
    <use xlink:href="#DejaVuSans-2e" transform="translate(277.34375 0.171875)"/>
    <use xlink:href="#DejaVuSans-30" transform="translate(309.130859 0.171875)"/>
    <use xlink:href="#DejaVuSans-35" transform="translate(372.753906 0.171875)"/>
    <use xlink:href="#DejaVuSans-32" transform="translate(436.376953 0.171875)"/>
    <use xlink:href="#DejaVuSans-31" transform="translate(500 0.171875)"/>
    <use xlink:href="#DejaVuSans-38" transform="translate(563.623047 0.171875)"/>
    <use xlink:href="#DejaVuSans-b1" transform="translate(627.246094 0.171875)"/>
    <use xlink:href="#DejaVuSans-69" transform="translate(711.035156 0.171875)"/>
    <use xlink:href="#DejaVuSans-6e" transform="translate(738.818359 0.171875)"/>
    <use xlink:href="#DejaVuSans-66" transform="translate(802.197266 0.171875)"/>
    <use xlink:href="#DejaVuSans-20" transform="translate(837.402344 0.171875)"/>
    <use xlink:href="#DejaVuSans-Oblique-6b" transform="translate(869.189453 0.171875)"/>
    <use xlink:href="#DejaVuSans-Oblique-62" transform="translate(927.099609 -16.234375)scale(0.7)"/>
    <use xlink:href="#DejaVuSans-Oblique-54" transform="translate(974.267578 0.171875)"/>
    <use xlink:href="#DejaVuSans-2f" transform="translate(1035.351562 0.171875)"/>
    <use xlink:href="#DejaVuSans-Oblique-c5" transform="translate(1069.042969 0.171875)"/>
    <use xlink:href="#DejaVuSans-32" transform="translate(1147.257005 38.453125)scale(0.7)"/>
    <use xlink:href="#DejaVuSans-20" transform="translate(1194.527513 0.171875)"/>
    <use xlink:href="#DejaVuSans-20" transform="translate(1226.314622 0.171875)"/>
    <use xlink:href="#DejaVuSans-43" transform="translate(1258.101732 0.171875)"/>
    <use xlink:href="#DejaVuSans-43" transform="translate(1327.925951 0.171875)"/>
    <use xlink:href="#DejaVuSans-20" transform="translate(1397.750169 0.171875)"/>
    <use xlink:href="#DejaVuSans-3d" transform="translate(1429.537279 0.171875)"/>
    <use xlink:href="#DejaVuSans-20" transform="translate(1513.326341 0.171875)"/>
    <use xlink:href="#DejaVuSans-6e" transform="translate(1545.113451 0.171875)"/>
    <use xlink:href="#DejaVuSans-61" transform="translate(1608.492357 0.171875)"/>
    <use xlink:href="#DejaVuSans-6e" transform="translate(1669.771654 0.171875)"/>
   </g>
  </g>
 </g>
 <defs>
  <clipPath id="p2119c1876e">
   <rect x="90" y="43.2" width="558" height="277.2"/>
  </clipPath>
 </defs>
</svg>
