<?xml version="1.0" encoding="utf-8" standalone="no"?>
<!DOCTYPE svg PUBLIC "-//W3C//DTD SVG 1.1//EN"
  "http://www.w3.org/Graphics/SVG/1.1/DTD/svg11.dtd">
<svg xmlns:xlink="http://www.w3.org/1999/xlink" width="720pt" height="360pt" viewBox="0 0 720 360" xmlns="http://www.w3.org/2000/svg" version="1.1">
 <metadata>
  <rdf:RDF xmlns:dc="http://purl.org/dc/elements/1.1/" xmlns:cc="http://creativecommons.org/ns#" xmlns:rdf="http://www.w3.org/1999/02/22-rdf-syntax-ns#">
   <cc:Work>
    <dc:type rdf:resource="http://purl.org/dc/dcmitype/StillImage"/>
    <dc:date>2022-06-06T01:34:13.543469</dc:date>
    <dc:format>image/svg+xml</dc:format>
    <dc:creator>
     <cc:Agent>
      <dc:title>Matplotlib v3.5.2, https://matplotlib.org/</dc:title>
     </cc:Agent>
    </dc:creator>
   </cc:Work>
  </rdf:RDF>
 </metadata>
 <defs>
  <style type="text/css">*{stroke-linejoin: round; stroke-linecap: butt}</style>
 </defs>
 <g id="figure_1">
  <g id="patch_1">
   <path d="M 0 360 
L 720 360 
L 720 0 
L 0 0 
z
" style="fill: #ffffff"/>
  </g>
  <g id="axes_1">
   <g id="patch_2">
    <path d="M 90 320.4 
L 648 320.4 
L 648 43.2 
L 90 43.2 
z
" style="fill: #ffffff"/>
   </g>
   <g id="matplotlib.axis_1">
    <g id="xtick_1">
     <g id="line2d_1">
      <defs>
       <path id="md17cf34c72" d="M 0 0 
L 0 3.5 
" style="stroke: #000000; stroke-width: 0.8"/>
      </defs>
      <g>
       <use xlink:href="#md17cf34c72" x="115.363636" y="320.4" style="stroke: #000000; stroke-width: 0.8"/>
      </g>
     </g>
     <g id="text_1">
      <!-- 0 -->
      <g transform="translate(112.818636 333.47875)scale(0.08 -0.08)">
       <defs>
        <path id="DejaVuSans-30" d="M 2034 4250 
Q 1547 4250 1301 3770 
Q 1056 3291 1056 2328 
Q 1056 1369 1301 889 
Q 1547 409 2034 409 
Q 2525 409 2770 889 
Q 3016 1369 3016 2328 
Q 3016 3291 2770 3770 
Q 2525 4250 2034 4250 
z
M 2034 4750 
Q 2819 4750 3233 4129 
Q 3647 3509 3647 2328 
Q 3647 1150 3233 529 
Q 2819 -91 2034 -91 
Q 1250 -91 836 529 
Q 422 1150 422 2328 
Q 422 3509 836 4129 
Q 1250 4750 2034 4750 
z
" transform="scale(0.015625)"/>
       </defs>
       <use xlink:href="#DejaVuSans-30"/>
      </g>
     </g>
    </g>
    <g id="xtick_2">
     <g id="line2d_2">
      <g>
       <use xlink:href="#md17cf34c72" x="236.373352" y="320.4" style="stroke: #000000; stroke-width: 0.8"/>
      </g>
     </g>
     <g id="text_2">
      <!-- 500 -->
      <g transform="translate(228.738352 333.47875)scale(0.08 -0.08)">
       <defs>
        <path id="DejaVuSans-35" d="M 691 4666 
L 3169 4666 
L 3169 4134 
L 1269 4134 
L 1269 2991 
Q 1406 3038 1543 3061 
Q 1681 3084 1819 3084 
Q 2600 3084 3056 2656 
Q 3513 2228 3513 1497 
Q 3513 744 3044 326 
Q 2575 -91 1722 -91 
Q 1428 -91 1123 -41 
Q 819 9 494 109 
L 494 744 
Q 775 591 1075 516 
Q 1375 441 1709 441 
Q 2250 441 2565 725 
Q 2881 1009 2881 1497 
Q 2881 1984 2565 2268 
Q 2250 2553 1709 2553 
Q 1456 2553 1204 2497 
Q 953 2441 691 2322 
L 691 4666 
z
" transform="scale(0.015625)"/>
       </defs>
       <use xlink:href="#DejaVuSans-35"/>
       <use xlink:href="#DejaVuSans-30" x="63.623047"/>
       <use xlink:href="#DejaVuSans-30" x="127.246094"/>
      </g>
     </g>
    </g>
    <g id="xtick_3">
     <g id="line2d_3">
      <g>
       <use xlink:href="#md17cf34c72" x="357.383067" y="320.4" style="stroke: #000000; stroke-width: 0.8"/>
      </g>
     </g>
     <g id="text_3">
      <!-- 1000 -->
      <g transform="translate(347.203067 333.47875)scale(0.08 -0.08)">
       <defs>
        <path id="DejaVuSans-31" d="M 794 531 
L 1825 531 
L 1825 4091 
L 703 3866 
L 703 4441 
L 1819 4666 
L 2450 4666 
L 2450 531 
L 3481 531 
L 3481 0 
L 794 0 
L 794 531 
z
" transform="scale(0.015625)"/>
       </defs>
       <use xlink:href="#DejaVuSans-31"/>
       <use xlink:href="#DejaVuSans-30" x="63.623047"/>
       <use xlink:href="#DejaVuSans-30" x="127.246094"/>
       <use xlink:href="#DejaVuSans-30" x="190.869141"/>
      </g>
     </g>
    </g>
    <g id="xtick_4">
     <g id="line2d_4">
      <g>
       <use xlink:href="#md17cf34c72" x="478.392783" y="320.4" style="stroke: #000000; stroke-width: 0.8"/>
      </g>
     </g>
     <g id="text_4">
      <!-- 1500 -->
      <g transform="translate(468.212783 333.47875)scale(0.08 -0.08)">
       <use xlink:href="#DejaVuSans-31"/>
       <use xlink:href="#DejaVuSans-35" x="63.623047"/>
       <use xlink:href="#DejaVuSans-30" x="127.246094"/>
       <use xlink:href="#DejaVuSans-30" x="190.869141"/>
      </g>
     </g>
    </g>
    <g id="xtick_5">
     <g id="line2d_5">
      <g>
       <use xlink:href="#md17cf34c72" x="599.402498" y="320.4" style="stroke: #000000; stroke-width: 0.8"/>
      </g>
     </g>
     <g id="text_5">
      <!-- 2000 -->
      <g transform="translate(589.222498 333.47875)scale(0.08 -0.08)">
       <defs>
        <path id="DejaVuSans-32" d="M 1228 531 
L 3431 531 
L 3431 0 
L 469 0 
L 469 531 
Q 828 903 1448 1529 
Q 2069 2156 2228 2338 
Q 2531 2678 2651 2914 
Q 2772 3150 2772 3378 
Q 2772 3750 2511 3984 
Q 2250 4219 1831 4219 
Q 1534 4219 1204 4116 
Q 875 4013 500 3803 
L 500 4441 
Q 881 4594 1212 4672 
Q 1544 4750 1819 4750 
Q 2544 4750 2975 4387 
Q 3406 4025 3406 3419 
Q 3406 3131 3298 2873 
Q 3191 2616 2906 2266 
Q 2828 2175 2409 1742 
Q 1991 1309 1228 531 
z
" transform="scale(0.015625)"/>
       </defs>
       <use xlink:href="#DejaVuSans-32"/>
       <use xlink:href="#DejaVuSans-30" x="63.623047"/>
       <use xlink:href="#DejaVuSans-30" x="127.246094"/>
       <use xlink:href="#DejaVuSans-30" x="190.869141"/>
      </g>
     </g>
    </g>
    <g id="text_6">
     <!-- Residue Number -->
     <g transform="translate(319.303125 348.260625)scale(0.12 -0.12)">
      <defs>
       <path id="DejaVuSans-52" d="M 2841 2188 
Q 3044 2119 3236 1894 
Q 3428 1669 3622 1275 
L 4263 0 
L 3584 0 
L 2988 1197 
Q 2756 1666 2539 1819 
Q 2322 1972 1947 1972 
L 1259 1972 
L 1259 0 
L 628 0 
L 628 4666 
L 2053 4666 
Q 2853 4666 3247 4331 
Q 3641 3997 3641 3322 
Q 3641 2881 3436 2590 
Q 3231 2300 2841 2188 
z
M 1259 4147 
L 1259 2491 
L 2053 2491 
Q 2509 2491 2742 2702 
Q 2975 2913 2975 3322 
Q 2975 3731 2742 3939 
Q 2509 4147 2053 4147 
L 1259 4147 
z
" transform="scale(0.015625)"/>
       <path id="DejaVuSans-65" d="M 3597 1894 
L 3597 1613 
L 953 1613 
Q 991 1019 1311 708 
Q 1631 397 2203 397 
Q 2534 397 2845 478 
Q 3156 559 3463 722 
L 3463 178 
Q 3153 47 2828 -22 
Q 2503 -91 2169 -91 
Q 1331 -91 842 396 
Q 353 884 353 1716 
Q 353 2575 817 3079 
Q 1281 3584 2069 3584 
Q 2775 3584 3186 3129 
Q 3597 2675 3597 1894 
z
M 3022 2063 
Q 3016 2534 2758 2815 
Q 2500 3097 2075 3097 
Q 1594 3097 1305 2825 
Q 1016 2553 972 2059 
L 3022 2063 
z
" transform="scale(0.015625)"/>
       <path id="DejaVuSans-73" d="M 2834 3397 
L 2834 2853 
Q 2591 2978 2328 3040 
Q 2066 3103 1784 3103 
Q 1356 3103 1142 2972 
Q 928 2841 928 2578 
Q 928 2378 1081 2264 
Q 1234 2150 1697 2047 
L 1894 2003 
Q 2506 1872 2764 1633 
Q 3022 1394 3022 966 
Q 3022 478 2636 193 
Q 2250 -91 1575 -91 
Q 1294 -91 989 -36 
Q 684 19 347 128 
L 347 722 
Q 666 556 975 473 
Q 1284 391 1588 391 
Q 1994 391 2212 530 
Q 2431 669 2431 922 
Q 2431 1156 2273 1281 
Q 2116 1406 1581 1522 
L 1381 1569 
Q 847 1681 609 1914 
Q 372 2147 372 2553 
Q 372 3047 722 3315 
Q 1072 3584 1716 3584 
Q 2034 3584 2315 3537 
Q 2597 3491 2834 3397 
z
" transform="scale(0.015625)"/>
       <path id="DejaVuSans-69" d="M 603 3500 
L 1178 3500 
L 1178 0 
L 603 0 
L 603 3500 
z
M 603 4863 
L 1178 4863 
L 1178 4134 
L 603 4134 
L 603 4863 
z
" transform="scale(0.015625)"/>
       <path id="DejaVuSans-64" d="M 2906 2969 
L 2906 4863 
L 3481 4863 
L 3481 0 
L 2906 0 
L 2906 525 
Q 2725 213 2448 61 
Q 2172 -91 1784 -91 
Q 1150 -91 751 415 
Q 353 922 353 1747 
Q 353 2572 751 3078 
Q 1150 3584 1784 3584 
Q 2172 3584 2448 3432 
Q 2725 3281 2906 2969 
z
M 947 1747 
Q 947 1113 1208 752 
Q 1469 391 1925 391 
Q 2381 391 2643 752 
Q 2906 1113 2906 1747 
Q 2906 2381 2643 2742 
Q 2381 3103 1925 3103 
Q 1469 3103 1208 2742 
Q 947 2381 947 1747 
z
" transform="scale(0.015625)"/>
       <path id="DejaVuSans-75" d="M 544 1381 
L 544 3500 
L 1119 3500 
L 1119 1403 
Q 1119 906 1312 657 
Q 1506 409 1894 409 
Q 2359 409 2629 706 
Q 2900 1003 2900 1516 
L 2900 3500 
L 3475 3500 
L 3475 0 
L 2900 0 
L 2900 538 
Q 2691 219 2414 64 
Q 2138 -91 1772 -91 
Q 1169 -91 856 284 
Q 544 659 544 1381 
z
M 1991 3584 
L 1991 3584 
z
" transform="scale(0.015625)"/>
       <path id="DejaVuSans-20" transform="scale(0.015625)"/>
       <path id="DejaVuSans-4e" d="M 628 4666 
L 1478 4666 
L 3547 763 
L 3547 4666 
L 4159 4666 
L 4159 0 
L 3309 0 
L 1241 3903 
L 1241 0 
L 628 0 
L 628 4666 
z
" transform="scale(0.015625)"/>
       <path id="DejaVuSans-6d" d="M 3328 2828 
Q 3544 3216 3844 3400 
Q 4144 3584 4550 3584 
Q 5097 3584 5394 3201 
Q 5691 2819 5691 2113 
L 5691 0 
L 5113 0 
L 5113 2094 
Q 5113 2597 4934 2840 
Q 4756 3084 4391 3084 
Q 3944 3084 3684 2787 
Q 3425 2491 3425 1978 
L 3425 0 
L 2847 0 
L 2847 2094 
Q 2847 2600 2669 2842 
Q 2491 3084 2119 3084 
Q 1678 3084 1418 2786 
Q 1159 2488 1159 1978 
L 1159 0 
L 581 0 
L 581 3500 
L 1159 3500 
L 1159 2956 
Q 1356 3278 1631 3431 
Q 1906 3584 2284 3584 
Q 2666 3584 2933 3390 
Q 3200 3197 3328 2828 
z
" transform="scale(0.015625)"/>
       <path id="DejaVuSans-62" d="M 3116 1747 
Q 3116 2381 2855 2742 
Q 2594 3103 2138 3103 
Q 1681 3103 1420 2742 
Q 1159 2381 1159 1747 
Q 1159 1113 1420 752 
Q 1681 391 2138 391 
Q 2594 391 2855 752 
Q 3116 1113 3116 1747 
z
M 1159 2969 
Q 1341 3281 1617 3432 
Q 1894 3584 2278 3584 
Q 2916 3584 3314 3078 
Q 3713 2572 3713 1747 
Q 3713 922 3314 415 
Q 2916 -91 2278 -91 
Q 1894 -91 1617 61 
Q 1341 213 1159 525 
L 1159 0 
L 581 0 
L 581 4863 
L 1159 4863 
L 1159 2969 
z
" transform="scale(0.015625)"/>
       <path id="DejaVuSans-72" d="M 2631 2963 
Q 2534 3019 2420 3045 
Q 2306 3072 2169 3072 
Q 1681 3072 1420 2755 
Q 1159 2438 1159 1844 
L 1159 0 
L 581 0 
L 581 3500 
L 1159 3500 
L 1159 2956 
Q 1341 3275 1631 3429 
Q 1922 3584 2338 3584 
Q 2397 3584 2469 3576 
Q 2541 3569 2628 3553 
L 2631 2963 
z
" transform="scale(0.015625)"/>
      </defs>
      <use xlink:href="#DejaVuSans-52"/>
      <use xlink:href="#DejaVuSans-65" x="64.982422"/>
      <use xlink:href="#DejaVuSans-73" x="126.505859"/>
      <use xlink:href="#DejaVuSans-69" x="178.605469"/>
      <use xlink:href="#DejaVuSans-64" x="206.388672"/>
      <use xlink:href="#DejaVuSans-75" x="269.865234"/>
      <use xlink:href="#DejaVuSans-65" x="333.244141"/>
      <use xlink:href="#DejaVuSans-20" x="394.767578"/>
      <use xlink:href="#DejaVuSans-4e" x="426.554688"/>
      <use xlink:href="#DejaVuSans-75" x="501.359375"/>
      <use xlink:href="#DejaVuSans-6d" x="564.738281"/>
      <use xlink:href="#DejaVuSans-62" x="662.150391"/>
      <use xlink:href="#DejaVuSans-65" x="725.626953"/>
      <use xlink:href="#DejaVuSans-72" x="787.150391"/>
     </g>
    </g>
   </g>
   <g id="matplotlib.axis_2">
    <g id="ytick_1">
     <g id="line2d_6">
      <defs>
       <path id="m9893dd8684" d="M 0 0 
L -3.5 0 
" style="stroke: #000000; stroke-width: 0.8"/>
      </defs>
      <g>
       <use xlink:href="#m9893dd8684" x="90" y="285.497048" style="stroke: #000000; stroke-width: 0.8"/>
      </g>
     </g>
     <g id="text_7">
      <!-- 50 -->
      <g transform="translate(72.82 288.536423)scale(0.08 -0.08)">
       <use xlink:href="#DejaVuSans-35"/>
       <use xlink:href="#DejaVuSans-30" x="63.623047"/>
      </g>
     </g>
    </g>
    <g id="ytick_2">
     <g id="line2d_7">
      <g>
       <use xlink:href="#m9893dd8684" x="90" y="236.625837" style="stroke: #000000; stroke-width: 0.8"/>
      </g>
     </g>
     <g id="text_8">
      <!-- 100 -->
      <g transform="translate(67.73 239.665212)scale(0.08 -0.08)">
       <use xlink:href="#DejaVuSans-31"/>
       <use xlink:href="#DejaVuSans-30" x="63.623047"/>
       <use xlink:href="#DejaVuSans-30" x="127.246094"/>
      </g>
     </g>
    </g>
    <g id="ytick_3">
     <g id="line2d_8">
      <g>
       <use xlink:href="#m9893dd8684" x="90" y="187.754626" style="stroke: #000000; stroke-width: 0.8"/>
      </g>
     </g>
     <g id="text_9">
      <!-- 150 -->
      <g transform="translate(67.73 190.794001)scale(0.08 -0.08)">
       <use xlink:href="#DejaVuSans-31"/>
       <use xlink:href="#DejaVuSans-35" x="63.623047"/>
       <use xlink:href="#DejaVuSans-30" x="127.246094"/>
      </g>
     </g>
    </g>
    <g id="ytick_4">
     <g id="line2d_9">
      <g>
       <use xlink:href="#m9893dd8684" x="90" y="138.883415" style="stroke: #000000; stroke-width: 0.8"/>
      </g>
     </g>
     <g id="text_10">
      <!-- 200 -->
      <g transform="translate(67.73 141.92279)scale(0.08 -0.08)">
       <use xlink:href="#DejaVuSans-32"/>
       <use xlink:href="#DejaVuSans-30" x="63.623047"/>
       <use xlink:href="#DejaVuSans-30" x="127.246094"/>
      </g>
     </g>
    </g>
    <g id="ytick_5">
     <g id="line2d_10">
      <g>
       <use xlink:href="#m9893dd8684" x="90" y="90.012205" style="stroke: #000000; stroke-width: 0.8"/>
      </g>
     </g>
     <g id="text_11">
      <!-- 250 -->
      <g transform="translate(67.73 93.05158)scale(0.08 -0.08)">
       <use xlink:href="#DejaVuSans-32"/>
       <use xlink:href="#DejaVuSans-35" x="63.623047"/>
       <use xlink:href="#DejaVuSans-30" x="127.246094"/>
      </g>
     </g>
    </g>
    <g id="text_12">
     <!-- $Å^{2}$ -->
     <g transform="translate(61.234375 189.36)rotate(-90)scale(0.12 -0.12)">
      <defs>
       <path id="DejaVuSans-Oblique-c5" d="M 3188 5081 
Q 3188 5278 3048 5417 
Q 2909 5556 2713 5556 
Q 2513 5556 2377 5420 
Q 2241 5284 2241 5081 
Q 2241 4884 2377 4746 
Q 2513 4609 2713 4609 
Q 2909 4609 3048 4746 
Q 3188 4884 3188 5081 
z
M 2203 4397 
Q 2034 4513 1945 4689 
Q 1856 4866 1856 5081 
Q 1856 5438 2106 5689 
Q 2356 5941 2713 5941 
Q 3069 5941 3320 5689 
Q 3572 5438 3572 5081 
Q 3572 4834 3458 4643 
Q 3344 4453 3128 4341 
L 3938 0 
L 3278 0 
L 3084 1197 
L 984 1197 
L 325 0 
L -341 0 
L 2203 4397 
z
M 2584 4044 
L 1275 1722 
L 2988 1722 
L 2584 4044 
z
" transform="scale(0.015625)"/>
      </defs>
      <use xlink:href="#DejaVuSans-Oblique-c5" transform="translate(0 0.171875)"/>
      <use xlink:href="#DejaVuSans-32" transform="translate(78.214036 38.453125)scale(0.7)"/>
     </g>
    </g>
   </g>
   <g id="line2d_11">
    <path d="M 115.363636 275.722806 
L 622.636364 275.722806 
L 622.636364 275.722806 
" clip-path="url(#p2abb6db301)" style="fill: none; stroke: #1f77b4; stroke-width: 1.5; stroke-linecap: square"/>
   </g>
   <g id="line2d_12">
    <path d="M 115.363636 56.967791 
L 115.847675 138.811917 
L 116.089695 188.019301 
L 116.331714 201.298954 
L 116.815753 235.622247 
L 117.783831 287.695426 
L 118.02585 288.256637 
L 118.26787 288.512004 
L 118.509889 285.367996 
L 118.751908 278.29845 
L 119.235947 274.905747 
L 119.477967 276.666592 
L 119.719986 280.108641 
L 120.204025 279.056393 
L 120.446044 280.805147 
L 120.688064 281.592622 
L 120.930083 281.724159 
L 121.414122 285.749528 
L 121.656142 285.749537 
L 121.898161 285.010022 
L 122.624219 292.509529 
L 123.108258 285.842648 
L 123.350278 279.055396 
L 123.592297 286.904888 
L 123.834316 285.504092 
L 124.076336 281.116501 
L 124.318355 274.112593 
L 124.560375 271.85583 
L 124.802394 277.219683 
L 125.044414 287.758272 
L 125.528452 290.363137 
L 125.770472 294.581349 
L 126.254511 298.093589 
L 126.49653 297.016481 
L 126.980569 293.761898 
L 127.222588 293.76735 
L 127.706627 300.143142 
L 128.432686 306.082579 
L 128.674705 306.158887 
L 129.884802 283.720137 
L 130.126822 286.862159 
L 130.368841 285.658728 
L 130.85288 293.311617 
L 131.094899 290.276579 
L 131.336919 291.701907 
L 131.578938 291.828445 
L 132.062977 296.376562 
L 132.547016 299.775799 
L 133.273074 300.390216 
L 133.515094 302.209748 
L 133.757113 302.979191 
L 134.241152 301.01865 
L 134.725191 297.168329 
L 135.451249 293.595861 
L 135.693269 294.864612 
L 135.935288 294.043641 
L 136.177307 284.214133 
L 136.419327 282.595036 
L 136.661346 271.841045 
L 136.903366 252.855944 
L 137.145385 249.647129 
L 137.387405 252.164825 
L 137.871443 237.250527 
L 138.113463 234.59039 
L 138.355482 234.116609 
L 138.597502 226.653066 
L 138.839521 223.398662 
L 139.081541 234.394138 
L 139.565579 243.076582 
L 139.807599 252.997295 
L 140.049618 252.386017 
L 140.291638 257.611753 
L 140.533657 269.043129 
L 141.259715 283.274487 
L 141.501735 286.554588 
L 141.743754 286.30939 
L 141.985774 288.985322 
L 142.227793 293.766714 
L 142.469813 291.667703 
L 142.711832 292.063345 
L 142.953851 293.502339 
L 143.195871 295.93193 
L 143.43789 294.573043 
L 143.67991 294.119705 
L 143.921929 294.138813 
L 144.163949 292.202901 
L 144.405968 291.855002 
L 144.647988 290.37125 
L 144.890007 290.058783 
L 145.374046 290.603847 
L 145.616065 292.967489 
L 145.858085 296.470073 
L 146.100104 297.582853 
L 146.342124 293.910124 
L 146.584143 295.51067 
L 146.826162 290.527847 
L 147.552221 286.959459 
L 147.79424 285.289506 
L 148.03626 282.168712 
L 148.278279 281.091971 
L 148.520298 277.403119 
L 149.246357 273.10926 
L 149.730396 264.011839 
L 150.698473 233.422724 
L 150.940493 233.147607 
L 151.182512 232.305504 
L 151.424532 240.290788 
L 151.666551 242.036746 
L 151.90857 235.041886 
L 152.15059 236.565894 
L 152.392609 236.613696 
L 152.634629 237.582835 
L 152.876648 239.800363 
L 153.118668 246.071211 
L 153.360687 247.173768 
L 153.602706 245.705465 
L 153.844726 249.653515 
L 154.086745 256.051883 
L 154.328765 253.233134 
L 154.570784 248.814547 
L 154.812804 248.799408 
L 155.296842 257.856205 
L 155.538862 273.811562 
L 155.780881 275.671238 
L 156.022901 284.382613 
L 156.26492 286.984761 
L 157.717037 266.059661 
L 157.959056 268.564247 
L 158.201076 267.691012 
L 158.443095 266.061078 
L 158.685115 266.724394 
L 159.169153 270.236152 
L 159.411173 272.709043 
L 159.653192 273.043071 
L 159.895212 275.538068 
L 160.137231 276.622549 
L 160.379251 273.421597 
L 160.62127 275.454925 
L 160.863289 280.044179 
L 161.105309 280.656465 
L 161.347328 274.921673 
L 161.589348 273.416368 
L 161.831367 273.198525 
L 162.073387 273.784389 
L 162.315406 275.078815 
L 162.557425 278.690923 
L 162.799445 278.518627 
L 163.041464 275.662308 
L 163.283484 279.202953 
L 163.525503 280.526891 
L 163.767523 277.841458 
L 164.009542 279.53518 
L 164.251561 286.913181 
L 164.493581 285.492556 
L 164.7356 286.018492 
L 164.97762 283.512245 
L 165.219639 284.004418 
L 165.461659 278.676619 
L 165.703678 280.748912 
L 165.945697 281.557644 
L 166.187717 277.212382 
L 166.429736 265.922127 
L 166.671756 260.309511 
L 166.913775 258.484381 
L 167.155795 259.284822 
L 167.397814 259.240633 
L 167.639833 263.171392 
L 167.881853 271.040167 
L 168.123872 274.922764 
L 168.607911 286.816483 
L 169.09195 289.762922 
L 169.333969 289.781455 
L 169.575989 288.072073 
L 169.818008 288.068061 
L 170.060028 289.568605 
L 170.302047 293.620991 
L 170.544067 293.491762 
L 170.786086 294.275166 
L 171.028105 293.732317 
L 171.270125 294.017588 
L 171.512144 292.386487 
L 171.754164 293.573095 
L 171.996183 294.092591 
L 172.238203 296.881239 
L 172.480222 302.770321 
L 172.722241 304.422315 
L 172.964261 306.980166 
L 173.20628 304.921357 
L 173.932339 297.045879 
L 174.174358 294.633408 
L 174.658397 288.875221 
L 174.900416 285.374186 
L 175.142436 279.985359 
L 175.384455 281.929463 
L 175.626475 286.142761 
L 175.868494 294.303229 
L 176.110514 297.975787 
L 176.352533 303.52197 
L 176.594552 304.775757 
L 177.078591 305.208336 
L 177.320611 306.013489 
L 177.56263 305.450529 
L 177.80465 303.204639 
L 178.046669 299.559616 
L 178.530708 297.991868 
L 179.014747 298.570806 
L 179.256766 299.494952 
L 179.498786 299.346899 
L 180.224844 297.039101 
L 180.708883 291.95834 
L 180.950902 290.38105 
L 181.192922 287.351206 
L 181.67696 277.240218 
L 181.91898 277.561881 
L 182.160999 268.380467 
L 182.403019 263.730638 
L 182.887058 245.045518 
L 183.129077 229.855475 
L 183.855135 160.216913 
L 184.097155 93.321747 
L 184.581194 144.796905 
L 184.823213 163.820297 
L 185.065232 167.876598 
L 185.549271 201.390909 
L 186.03331 260.939083 
L 186.27533 279.768681 
L 186.517349 284.799244 
L 187.001388 288.032038 
L 187.243407 286.471138 
L 187.485427 282.387544 
L 187.969466 279.600703 
L 188.453505 282.878672 
L 188.695524 282.076082 
L 188.937543 282.433976 
L 189.179563 284.315267 
L 189.421582 284.945834 
L 189.663602 285.206387 
L 190.147641 289.013222 
L 190.38966 288.440794 
L 190.631679 287.429379 
L 191.115718 291.468352 
L 191.357738 294.700418 
L 191.841777 286.946616 
L 192.083796 284.884998 
L 192.325815 289.583517 
L 192.567835 290.267434 
L 192.809854 288.142442 
L 193.051874 283.150479 
L 193.293893 282.411102 
L 193.535913 282.062846 
L 193.777932 287.594567 
L 194.019951 287.505756 
L 194.261971 287.930277 
L 194.50399 292.349932 
L 194.74601 294.203312 
L 194.988029 297.756258 
L 195.230049 297.798003 
L 195.472068 297.683252 
L 195.714087 296.105845 
L 195.956107 295.570359 
L 196.440146 299.73228 
L 196.682165 301.05906 
L 196.924185 303.075905 
L 197.166204 303.425016 
L 197.408223 304.599401 
L 197.650243 304.418527 
L 198.134282 300.413443 
L 198.376301 300.310911 
L 198.86034 294.466209 
L 199.102359 293.839148 
L 199.344379 295.767081 
L 200.070437 295.600835 
L 200.312457 295.342219 
L 200.554476 295.912602 
L 200.796495 297.000581 
L 201.280534 297.867677 
L 201.522554 297.049305 
L 201.764573 297.24759 
L 202.248612 299.472973 
L 202.490632 299.298068 
L 203.458709 293.943264 
L 203.700729 291.319062 
L 203.942748 291.138854 
L 204.184768 292.813224 
L 204.426787 290.967375 
L 204.910826 275.725723 
L 205.152845 231.050145 
L 205.636884 197.848904 
L 205.878904 194.882073 
L 206.120923 194.756985 
L 206.362942 193.729595 
L 206.846981 186.351225 
L 207.089001 191.9777 
L 207.33102 187.079612 
L 207.57304 186.6999 
L 207.815059 195.805023 
L 208.541117 237.715414 
L 208.783137 238.40712 
L 209.025156 243.700111 
L 209.267176 265.850756 
L 209.509195 272.141159 
L 209.751214 282.414817 
L 209.993234 285.049717 
L 210.235253 290.334602 
L 210.477273 289.767995 
L 210.719292 291.206123 
L 210.961312 295.530217 
L 211.203331 293.630731 
L 211.44535 292.934262 
L 211.929389 293.02791 
L 212.171409 291.244115 
L 212.413428 291.31358 
L 212.655448 288.642345 
L 212.897467 287.494996 
L 213.139486 287.286481 
L 213.381506 286.461034 
L 213.865545 285.528511 
L 214.107564 284.363049 
L 214.349584 285.920791 
L 214.591603 289.388594 
L 214.833622 290.720889 
L 215.075642 287.416207 
L 215.317661 289.512114 
L 215.559681 286.228761 
L 215.8017 289.174125 
L 216.04372 287.166674 
L 216.285739 286.752567 
L 216.527759 285.466642 
L 216.769778 284.858909 
L 217.011797 286.012203 
L 217.253817 285.549915 
L 217.495836 282.153495 
L 217.737856 281.238596 
L 217.979875 282.846349 
L 218.221895 282.186028 
L 218.463914 285.620254 
L 218.947953 277.832383 
L 219.189972 269.302477 
L 219.431992 270.232703 
L 219.674011 276.393486 
L 219.916031 286.90828 
L 220.15805 286.768017 
L 220.400069 289.442164 
L 220.642089 286.733899 
L 220.884108 286.407785 
L 221.610167 291.041447 
L 221.852186 290.601055 
L 222.336225 295.415108 
L 222.578244 295.31101 
L 222.820264 297.167732 
L 223.062283 297.351398 
L 223.304303 297.079805 
L 223.546322 296.481867 
L 223.788341 298.275233 
L 224.030361 297.721872 
L 224.27238 298.757197 
L 224.5144 298.826099 
L 224.998439 296.564645 
L 225.240458 294.475591 
L 225.482477 294.270857 
L 225.724497 294.258752 
L 225.966516 295.40905 
L 226.208536 297.761794 
L 226.450555 297.67993 
L 226.692575 296.287169 
L 226.934594 296.507987 
L 227.176613 296.551044 
L 227.418633 295.671559 
L 227.660652 295.520663 
L 227.902672 294.984369 
L 228.144691 297.197947 
L 228.386711 296.962292 
L 228.62873 298.833475 
L 228.870749 297.556884 
L 229.112769 295.306632 
L 229.354788 296.263874 
L 229.838827 299.092976 
L 230.080847 298.659247 
L 230.806905 289.820566 
L 231.290944 279.42057 
L 231.532963 275.140256 
L 231.774983 277.477119 
L 232.259022 287.934897 
L 232.501041 288.824043 
L 232.74306 288.817083 
L 232.98508 291.810512 
L 233.227099 292.454634 
L 233.469119 293.437652 
L 233.711138 293.102805 
L 233.953158 295.410528 
L 234.195177 294.942296 
L 234.437196 295.689391 
L 234.679216 294.20453 
L 234.921235 288.06233 
L 235.163255 286.826645 
L 235.405274 281.301645 
L 235.647294 282.151524 
L 235.889313 279.032028 
L 236.615371 288.405696 
L 237.583449 298.256898 
L 238.067488 292.56534 
L 238.309507 290.19946 
L 238.551527 290.037754 
L 238.793546 289.194348 
L 239.035566 290.507563 
L 239.277585 289.912051 
L 239.519604 291.997735 
L 239.761624 290.168043 
L 240.003643 291.72026 
L 240.245663 291.612277 
L 240.729702 290.679669 
L 240.971721 292.980351 
L 241.45576 303.997154 
L 241.697779 307.8 
L 241.939799 306.572488 
L 242.423838 301.853966 
L 242.907876 292.081555 
L 243.149896 287.330066 
L 243.391915 287.57216 
L 243.875954 278.040901 
L 244.117974 277.08739 
L 244.359993 282.15197 
L 245.086051 305.472125 
L 245.328071 306.999088 
L 245.57009 307.219078 
L 245.81211 306.9215 
L 246.054129 307.235365 
L 246.296149 306.745133 
L 246.538168 303.774648 
L 246.780187 298.2701 
L 247.264226 294.961896 
L 247.748265 295.590616 
L 247.990285 296.70755 
L 248.474323 296.084086 
L 248.716343 294.761165 
L 248.958362 294.536129 
L 249.200382 293.172729 
L 249.442401 293.12569 
L 249.92644 291.856981 
L 250.168459 290.179842 
L 250.652498 292.326281 
L 250.894518 290.825233 
L 251.378557 281.58096 
L 251.620576 275.013103 
L 252.104615 249.227501 
L 252.588654 205.77822 
L 252.830673 88.921658 
L 253.556731 175.499355 
L 253.798751 177.295764 
L 255.008848 278.281731 
L 255.250867 283.564625 
L 255.734906 287.356526 
L 255.976926 285.655991 
L 256.218945 279.454948 
L 256.702984 276.438314 
L 257.187023 281.722723 
L 257.429042 281.229609 
L 257.671062 281.919811 
L 257.913081 283.905813 
L 258.39712 285.200948 
L 258.881159 289.613192 
L 259.123178 289.00129 
L 259.365198 289.184373 
L 259.849237 293.091607 
L 260.091256 297.363947 
L 260.333276 291.652848 
L 260.575295 289.951284 
L 260.817314 285.54568 
L 261.059334 285.644371 
L 261.301353 287.169636 
L 261.785392 279.221077 
L 262.269431 277.531266 
L 262.51145 284.170739 
L 262.75347 284.639658 
L 262.995489 283.936581 
L 263.237509 286.961249 
L 263.479528 287.617135 
L 263.721548 287.832708 
L 263.963567 289.179029 
L 264.205586 288.187321 
L 264.447606 284.924165 
L 264.689625 286.218306 
L 265.173664 294.653937 
L 265.415684 295.151394 
L 265.899722 300.781933 
L 266.141742 299.731167 
L 266.383761 301.97538 
L 266.625781 298.717203 
L 266.8678 297.248919 
L 267.10982 297.261214 
L 267.351839 295.019716 
L 267.593858 290.336919 
L 267.835878 288.794134 
L 268.077897 290.272851 
L 268.319917 290.177458 
L 268.803956 284.958004 
L 269.045975 284.241515 
L 269.772033 288.830621 
L 270.014053 292.220661 
L 270.256072 293.618389 
L 270.740111 299.720949 
L 270.98213 301.219442 
L 271.22415 301.495241 
L 272.192228 293.999007 
L 272.434247 293.950552 
L 272.676266 292.225501 
L 272.918286 291.611399 
L 273.160305 290.233082 
L 273.402325 287.632381 
L 273.644344 270.124853 
L 273.886364 267.643187 
L 274.128383 237.290016 
L 274.370402 223.185815 
L 274.612422 215.938152 
L 274.854441 222.324055 
L 275.5805 205.273721 
L 275.822519 207.229412 
L 276.064539 202.168778 
L 276.306558 201.677286 
L 276.548577 208.482762 
L 277.274636 244.818725 
L 277.516655 245.077691 
L 277.758675 251.903358 
L 278.242713 274.483091 
L 278.726752 287.780973 
L 278.968772 290.027752 
L 279.210791 290.357107 
L 279.452811 292.521612 
L 279.69483 296.725903 
L 279.936849 294.934393 
L 280.178869 294.427223 
L 280.662908 295.910966 
L 280.904927 294.1376 
L 281.146947 293.96558 
L 281.388966 293.347874 
L 281.630985 290.68345 
L 281.873005 291.079434 
L 282.357044 289.654246 
L 282.599063 289.657176 
L 282.841083 289.262711 
L 283.083102 291.006754 
L 283.325121 294.095174 
L 283.567141 293.546133 
L 283.80916 289.845126 
L 284.05118 289.278975 
L 284.293199 286.635466 
L 284.535219 288.298994 
L 284.777238 288.80212 
L 285.261277 286.52087 
L 285.987335 281.432467 
L 286.471374 278.069428 
L 286.713393 277.8981 
L 287.197432 272.435195 
L 288.16551 244.6906 
L 288.407529 244.287553 
L 288.649549 247.366588 
L 288.891568 247.842321 
L 289.133588 248.843675 
L 289.375607 238.774782 
L 289.617627 239.582175 
L 289.859646 239.34743 
L 290.101666 238.168191 
L 290.343685 238.338857 
L 290.585704 243.336403 
L 290.827724 243.559205 
L 291.069743 241.472091 
L 291.311763 244.650398 
L 291.553782 253.092067 
L 292.037821 240.855136 
L 292.27984 241.191241 
L 292.52186 243.620566 
L 292.763879 250.823789 
L 293.005899 266.817873 
L 293.247918 274.560013 
L 293.489938 288.41179 
L 293.731957 293.316942 
L 293.973976 293.679317 
L 294.215996 293.645244 
L 294.458015 294.482634 
L 294.700035 297.565312 
L 294.942054 298.135831 
L 295.184074 296.174813 
L 295.668112 291.437845 
L 295.910132 290.849689 
L 296.152151 286.575052 
L 296.394171 286.266841 
L 296.63619 284.630616 
L 297.120229 278.716024 
L 297.362248 270.889839 
L 297.846287 249.246652 
L 298.088307 245.184173 
L 298.330326 251.279294 
L 298.814365 276.865659 
L 299.298404 286.62427 
L 299.540423 288.181667 
L 300.024462 285.083107 
L 300.266482 288.442977 
L 300.508501 286.408781 
L 300.99254 293.414548 
L 301.234559 293.459219 
L 301.476579 294.920592 
L 301.718598 297.997646 
L 301.960618 297.748842 
L 302.444656 296.225886 
L 302.686676 297.877569 
L 302.928695 298.240503 
L 303.170715 297.11881 
L 303.412734 294.911449 
L 304.138793 270.356554 
L 304.380812 269.030037 
L 304.622831 266.420254 
L 305.10687 273.290046 
L 305.34889 281.192579 
L 306.316967 294.593318 
L 307.043026 288.269974 
L 307.285045 289.06568 
L 307.527065 288.875223 
L 307.769084 291.548084 
L 308.011103 290.120241 
L 308.253123 292.565255 
L 308.495142 292.174511 
L 308.737162 293.70876 
L 308.979181 291.365689 
L 309.221201 291.013711 
L 309.46322 290.932866 
L 309.705239 293.60195 
L 310.431298 305.761536 
L 310.673317 303.652267 
L 311.399375 291.116186 
L 311.641395 291.299461 
L 312.125434 289.445052 
L 312.367453 291.372327 
L 312.609473 287.293632 
L 312.851492 285.238234 
L 313.093511 287.578427 
L 313.81957 303.278293 
L 314.303609 306.071298 
L 314.545628 305.129414 
L 314.787647 305.274433 
L 315.029667 304.672325 
L 315.755725 295.310484 
L 315.997745 294.662974 
L 316.481783 296.456639 
L 316.723803 298.197171 
L 317.449861 295.683254 
L 318.17592 290.533471 
L 318.417939 289.758909 
L 318.659958 287.810617 
L 319.143997 281.9242 
L 319.386017 282.238136 
L 319.628036 276.371688 
L 319.870056 274.225653 
L 320.354094 256.918177 
L 321.080153 215.769402 
L 321.322172 199.765731 
L 321.564192 57.576655 
L 322.29025 152.855003 
L 322.532269 159.769076 
L 323.258328 220.594931 
L 323.742366 273.669234 
L 323.984386 282.842214 
L 324.468425 287.684859 
L 324.710444 285.923187 
L 324.952464 280.03893 
L 325.436502 277.04475 
L 325.920541 282.049599 
L 326.162561 280.840474 
L 326.40458 281.657395 
L 326.6466 284.116587 
L 326.888619 284.316182 
L 327.130638 284.08403 
L 327.614677 289.242004 
L 328.098716 285.730206 
L 328.824774 297.60433 
L 329.550833 284.998657 
L 329.792852 288.97786 
L 330.034872 291.026529 
L 330.276891 289.989497 
L 330.51891 284.342284 
L 330.76093 281.858751 
L 331.002949 280.768874 
L 331.244969 285.955456 
L 331.486988 285.582924 
L 331.729008 285.828464 
L 332.213046 292.314356 
L 332.455066 295.031918 
L 332.939105 297.157033 
L 333.181124 295.884413 
L 333.423144 295.789519 
L 333.665163 298.656683 
L 334.633241 304.326235 
L 334.87526 306.787794 
L 335.11728 305.416285 
L 335.359299 302.880332 
L 336.327377 282.626304 
L 336.569396 283.735749 
L 336.811416 290.654671 
L 337.053435 291.800935 
L 337.295455 290.549195 
L 337.537474 291.620391 
L 338.021513 295.139077 
L 338.263532 295.447418 
L 338.505552 295.175025 
L 338.747571 296.508704 
L 338.989591 294.779866 
L 339.715649 301.026586 
L 339.957668 301.932107 
L 340.199688 300.757639 
L 340.441707 298.859279 
L 340.683727 295.955027 
L 340.925746 294.59722 
L 341.409785 289.840795 
L 341.651804 290.716745 
L 341.893824 287.289502 
L 342.135843 278.487302 
L 342.377863 264.427492 
L 342.861901 231.058823 
L 343.103921 210.484951 
L 343.34594 207.160646 
L 343.58796 209.989402 
L 343.829979 199.764616 
L 344.071999 195.751531 
L 344.314018 189.724557 
L 344.556037 190.243213 
L 344.798057 175.80219 
L 345.040076 175.74041 
L 345.524115 235.556248 
L 346.008154 262.214757 
L 346.250173 258.485615 
L 346.492193 261.336183 
L 346.734212 275.245245 
L 347.460271 289.529676 
L 347.70229 292.966472 
L 347.94431 291.804602 
L 348.186329 294.246328 
L 348.428348 298.478791 
L 348.912387 296.733699 
L 349.396426 299.550475 
L 349.880465 298.584252 
L 350.122484 299.189698 
L 350.848543 297.342813 
L 351.090562 297.707286 
L 351.332582 297.349631 
L 351.574601 297.797397 
L 351.81662 299.066289 
L 352.05864 301.953084 
L 352.300659 301.523559 
L 352.784698 297.121506 
L 353.026718 296.951675 
L 353.268737 296.586607 
L 353.510756 296.746926 
L 353.752776 296.08754 
L 354.478834 293.217737 
L 355.204892 288.29085 
L 355.446912 287.861682 
L 355.688931 286.56507 
L 355.930951 287.057152 
L 356.41499 277.210196 
L 356.657009 269.414716 
L 356.899028 268.510328 
L 357.141048 271.113299 
L 357.383067 280.019319 
L 357.625087 282.186414 
L 357.867106 286.758784 
L 358.109126 283.542995 
L 358.351145 283.445421 
L 358.835184 286.644881 
L 359.077203 288.645992 
L 359.319223 289.23867 
L 359.803262 293.612784 
L 360.045281 293.194207 
L 360.2873 295.001342 
L 360.52932 295.622162 
L 360.771339 295.364543 
L 361.013359 294.878921 
L 361.255378 297.263993 
L 361.497398 296.835642 
L 361.739417 297.204843 
L 362.465475 295.298969 
L 362.707495 292.929447 
L 362.949514 293.045459 
L 363.191534 293.370302 
L 363.675573 296.128029 
L 363.917592 294.926171 
L 364.159611 292.952193 
L 364.401631 292.919669 
L 364.64365 293.78927 
L 364.88567 291.086199 
L 365.369709 289.764257 
L 365.611728 289.13286 
L 365.853747 290.921276 
L 366.095767 293.61449 
L 366.337786 292.871831 
L 366.579806 290.830426 
L 366.821825 291.895726 
L 367.063845 295.216537 
L 367.305864 296.568914 
L 367.547883 293.825509 
L 367.789903 292.731004 
L 368.757981 281.821034 
L 369 284.442018 
L 369.242019 281.472794 
L 369.726058 287.651005 
L 369.968078 288.433789 
L 370.210097 287.967269 
L 370.452117 291.328727 
L 370.694136 291.125167 
L 370.936155 292.151217 
L 371.178175 292.248412 
L 371.420194 295.306381 
L 371.662214 295.804557 
L 371.904233 295.700925 
L 372.146253 293.876618 
L 372.388272 289.627774 
L 372.630291 282.67149 
L 372.872311 283.139182 
L 373.11433 281.446765 
L 373.35635 278.87602 
L 373.598369 278.671873 
L 373.840389 280.988711 
L 374.082408 287.033413 
L 375.050486 298.598025 
L 375.534525 295.872094 
L 376.018563 291.453765 
L 376.260583 289.568404 
L 376.744622 288.670169 
L 376.986641 292.045855 
L 377.228661 292.482562 
L 377.47068 293.35985 
L 377.7127 291.74397 
L 377.954719 291.328475 
L 378.196738 291.680592 
L 378.438758 294.427193 
L 378.680777 300.914039 
L 379.164816 306.95274 
L 379.406836 306.348838 
L 380.374913 297.252498 
L 380.858952 289.262958 
L 381.100972 287.35293 
L 381.342991 281.915075 
L 381.58501 284.013424 
L 381.82703 288.41503 
L 382.311069 300.560603 
L 382.553088 305.350237 
L 382.795108 305.649219 
L 383.037127 306.609807 
L 383.279146 306.119057 
L 383.521166 306.351949 
L 383.763185 305.266204 
L 384.005205 302.244467 
L 384.247224 297.074867 
L 384.489244 295.926079 
L 384.731263 295.56325 
L 384.973282 298.17038 
L 385.215302 297.5135 
L 385.457321 298.233024 
L 385.699341 297.412841 
L 385.94136 295.808279 
L 386.18338 295.17265 
L 386.425399 294.91757 
L 386.667418 295.184206 
L 386.909438 295.994256 
L 387.151457 296.013751 
L 387.877516 293.671127 
L 388.119535 293.72509 
L 388.361554 291.097318 
L 388.845593 279.519688 
L 389.329632 264.126477 
L 390.05569 208.800698 
L 390.29771 55.8 
L 390.539729 84.98288 
L 391.023768 165.58323 
L 391.265788 172.646853 
L 391.507807 184.911999 
L 392.475885 280.738588 
L 392.717904 284.443854 
L 392.959924 285.272235 
L 393.201943 286.556627 
L 393.443963 284.762701 
L 393.685982 279.471007 
L 393.928001 277.679237 
L 394.170021 276.895827 
L 394.65406 280.82454 
L 394.896079 278.618542 
L 395.380118 282.952199 
L 395.622137 282.876206 
L 395.864157 283.637697 
L 396.348196 288.644458 
L 396.590215 288.385169 
L 396.832235 287.700491 
L 397.074254 293.671213 
L 397.316273 292.74169 
L 397.558293 295.512418 
L 398.042332 290.180661 
L 398.284351 287.116115 
L 398.526371 290.282783 
L 398.76839 289.892858 
L 399.252429 279.913416 
L 399.494448 278.623305 
L 399.978487 271.548497 
L 400.220507 270.585626 
L 400.462526 269.061538 
L 400.704545 272.996269 
L 400.946565 272.455725 
L 401.430604 273.944664 
L 401.672623 280.163041 
L 401.914643 280.853122 
L 402.640701 296.610232 
L 403.12474 303.19016 
L 403.366759 304.543971 
L 403.608779 305.092842 
L 403.850798 303.541346 
L 404.092817 300.777494 
L 404.576856 298.317027 
L 405.060895 291.492732 
L 405.302915 294.720194 
L 405.544934 293.133018 
L 405.786954 293.282366 
L 406.513012 281.674594 
L 406.755031 276.503992 
L 406.997051 274.7299 
L 407.23907 275.803508 
L 407.48109 283.088767 
L 407.723109 286.26899 
L 407.965128 293.051234 
L 408.449167 296.7618 
L 408.691187 296.805602 
L 408.933206 296.547236 
L 409.175226 297.458381 
L 409.659264 293.523043 
L 409.901284 292.354812 
L 410.143303 289.896129 
L 410.385323 291.541292 
L 410.627342 291.011133 
L 410.869362 280.985841 
L 411.111381 275.574495 
L 411.837439 223.342626 
L 412.079459 205.268903 
L 412.321478 201.518369 
L 412.563498 200.463469 
L 413.047536 188.459639 
L 413.289556 189.601998 
L 413.531575 189.622491 
L 413.773595 199.149966 
L 414.015614 203.340906 
L 414.499653 217.702035 
L 414.741672 236.270444 
L 414.983692 237.039193 
L 415.225711 243.068497 
L 415.467731 265.065961 
L 415.95177 282.197546 
L 416.193789 284.593435 
L 416.435808 288.269194 
L 416.919847 291.398939 
L 417.161867 294.251879 
L 417.645906 293.593758 
L 418.129944 293.409624 
L 418.371964 292.262333 
L 418.613983 292.50172 
L 418.856003 291.618814 
L 419.098022 288.798868 
L 419.340042 289.821583 
L 419.582061 289.338944 
L 420.0661 287.87283 
L 420.308119 287.260679 
L 421.034178 291.290484 
L 421.276197 288.253522 
L 421.518217 287.94437 
L 421.760236 288.425964 
L 422.002255 287.976359 
L 422.244275 288.679692 
L 422.486294 287.771143 
L 422.728314 287.383634 
L 422.970333 285.840443 
L 423.212353 286.587721 
L 423.454372 285.788841 
L 423.696391 283.078936 
L 423.938411 282.058626 
L 424.18043 283.104832 
L 424.42245 282.042506 
L 424.664469 284.072387 
L 425.148508 274.87619 
L 425.390527 267.47396 
L 425.632547 267.173212 
L 425.874566 270.789036 
L 426.116586 280.906224 
L 426.358605 282.60341 
L 426.600625 285.952927 
L 426.842644 282.039575 
L 427.084663 281.926557 
L 427.326683 283.275485 
L 427.568702 285.784963 
L 427.810722 285.051944 
L 428.052741 285.732071 
L 428.53678 290.950228 
L 428.778799 290.496255 
L 429.020819 292.848818 
L 429.262838 293.226383 
L 429.504858 293.150322 
L 429.746877 291.940957 
L 429.988897 294.245705 
L 430.230916 293.579545 
L 430.714955 295.661811 
L 430.956974 295.254697 
L 431.198994 294.385599 
L 431.441013 292.377138 
L 431.683033 292.238017 
L 431.925052 293.1289 
L 432.409091 296.728382 
L 432.65111 296.386309 
L 432.89313 295.231974 
L 433.135149 295.347649 
L 433.619188 294.188396 
L 434.103227 294.141074 
L 434.345246 296.892606 
L 434.587266 294.573803 
L 434.829285 295.262556 
L 435.071305 295.392915 
L 435.313324 293.842327 
L 435.797363 296.870253 
L 436.039382 298.684391 
L 436.281402 296.065015 
L 436.765441 288.269539 
L 437.00746 285.069683 
L 437.491499 267.681889 
L 437.733518 264.445163 
L 437.975538 268.846385 
L 438.459577 283.723248 
L 438.701596 285.445623 
L 438.943616 286.046129 
L 439.185635 289.491842 
L 439.427654 289.709937 
L 439.669674 290.407474 
L 439.911693 290.323408 
L 440.153713 293.996006 
L 440.395732 293.715796 
L 440.637752 294.711692 
L 440.879771 291.965644 
L 441.12179 291.359099 
L 441.36381 288.123642 
L 441.605829 281.680375 
L 441.847849 280.507344 
L 442.089868 276.584034 
L 442.573907 280.89365 
L 443.057946 289.381049 
L 443.541985 295.737034 
L 443.784004 296.969063 
L 444.510062 288.475632 
L 444.752082 288.890122 
L 444.994101 287.91322 
L 445.236121 289.77427 
L 445.47814 288.357464 
L 445.72016 289.068333 
L 445.962179 288.839762 
L 446.204198 290.311123 
L 446.446218 289.851787 
L 446.930257 290.5301 
L 447.172276 293.027961 
L 447.656315 301.113987 
L 447.898334 303.001055 
L 448.624393 293.828366 
L 448.866412 282.94087 
L 449.108432 281.170536 
L 449.350451 276.71648 
L 449.592471 276.668868 
L 450.076509 267.638324 
L 450.318529 270.316965 
L 450.560548 275.200251 
L 450.802568 286.166247 
L 451.528626 301.046161 
L 451.770645 301.069881 
L 452.012665 301.619071 
L 452.254684 302.66885 
L 452.496704 302.073336 
L 452.738723 300.304688 
L 452.980743 296.876833 
L 453.464781 294.36836 
L 453.706801 294.648373 
L 453.94882 294.083462 
L 454.19084 294.218872 
L 454.674879 293.019041 
L 454.916898 292.72408 
L 455.158917 291.526948 
L 455.400937 291.779714 
L 455.642956 292.48319 
L 455.884976 292.193106 
L 456.126995 291.682749 
L 456.369015 289.980217 
L 456.611034 290.481016 
L 456.853053 290.475297 
L 457.095073 288.205612 
L 457.337092 284.248384 
L 457.821131 272.617439 
L 458.30517 254.76659 
L 458.547189 237.623917 
L 458.789209 231.722894 
L 459.031228 103.374431 
L 459.757287 181.109913 
L 459.999306 187.28412 
L 460.725364 234.89439 
L 461.209403 278.239929 
L 461.451423 285.032157 
L 461.693442 286.031093 
L 461.935461 287.597874 
L 462.177481 285.646361 
L 462.4195 278.989848 
L 462.903539 275.756565 
L 463.387578 280.297961 
L 463.629598 279.37064 
L 463.871617 279.570571 
L 464.113636 281.659821 
L 464.355656 282.594445 
L 464.597675 282.631562 
L 465.081714 287.939359 
L 465.323734 287.553338 
L 465.807772 290.339794 
L 466.291811 296.263312 
L 466.77585 291.450328 
L 467.01787 289.992126 
L 467.259889 292.24473 
L 467.501908 289.678556 
L 467.743928 285.527512 
L 467.985947 276.761522 
L 468.469986 269.771958 
L 468.712006 279.033243 
L 469.196044 283.959701 
L 470.164122 291.813111 
L 470.406142 291.082436 
L 470.648161 288.20744 
L 470.89018 290.450203 
L 471.1322 295.524707 
L 471.374219 296.713692 
L 471.616239 297.002963 
L 471.858258 297.118551 
L 472.100278 297.56902 
L 472.342297 299.335289 
L 472.584316 299.044727 
L 473.310375 283.434678 
L 473.794414 267.65346 
L 474.036433 267.127805 
L 474.278452 270.358539 
L 474.520472 271.087624 
L 475.48855 287.423708 
L 475.730569 290.367962 
L 475.972588 289.494152 
L 476.214608 290.426225 
L 476.456627 292.093873 
L 476.940666 296.724094 
L 477.182686 298.09982 
L 477.424705 298.360222 
L 477.666724 298.068948 
L 477.908744 298.840545 
L 478.392783 294.883493 
L 478.634802 294.636018 
L 478.876822 293.004465 
L 479.118841 293.281697 
L 479.360861 292.468462 
L 479.60288 290.494655 
L 479.844899 279.070909 
L 480.086919 276.4563 
L 480.570958 233.171354 
L 480.812977 225.953734 
L 481.054997 231.102988 
L 481.781055 213.043629 
L 482.023074 213.099725 
L 482.507113 202.010164 
L 483.233171 233.226538 
L 483.475191 248.517953 
L 483.71721 247.469452 
L 483.95923 253.556449 
L 484.201249 267.903913 
L 484.685288 279.82652 
L 484.927307 282.314781 
L 485.169327 286.084467 
L 485.411346 287.336543 
L 485.653366 289.322522 
L 485.895385 293.467141 
L 486.137405 292.733558 
L 486.379424 292.956269 
L 486.863463 294.356188 
L 487.105482 293.691201 
L 487.347502 293.765322 
L 487.589521 293.408744 
L 487.831541 290.997322 
L 488.07356 290.608345 
L 488.557599 288.084789 
L 488.799618 288.895021 
L 489.041638 290.113025 
L 489.525677 294.947748 
L 489.767696 295.303758 
L 490.251735 288.746127 
L 490.735774 284.051177 
L 490.977793 285.837746 
L 491.219813 285.156148 
L 491.703851 282.59869 
L 491.945871 282.054745 
L 492.18789 280.463768 
L 492.671929 275.820618 
L 492.913949 275.558788 
L 493.155968 274.199634 
L 493.397988 275.127495 
L 494.124046 259.855755 
L 494.366065 259.676267 
L 494.608085 258.095764 
L 494.850104 260.500718 
L 495.092124 252.176242 
L 495.334143 251.732166 
L 495.576162 239.92206 
L 495.818182 241.563167 
L 496.060201 239.230122 
L 496.302221 235.754584 
L 496.54424 234.537763 
L 496.78626 238.005778 
L 497.028279 237.797217 
L 497.270298 233.372591 
L 497.512318 233.340168 
L 497.754337 244.849952 
L 498.238376 229.827266 
L 498.480396 229.424858 
L 498.722415 233.293956 
L 498.964434 242.71184 
L 499.448473 275.540655 
L 499.690493 290.298915 
L 499.932512 295.671929 
L 500.416551 292.47657 
L 500.65857 291.62049 
L 500.90059 291.950366 
L 501.142609 294.604781 
L 501.384629 293.919029 
L 501.626648 289.927346 
L 501.868668 289.457967 
L 502.110687 291.115332 
L 502.352706 284.823134 
L 502.836745 281.512595 
L 503.562804 266.363519 
L 504.046842 245.642687 
L 504.288862 241.956217 
L 504.530881 248.174255 
L 505.01492 273.062393 
L 505.25694 274.996688 
L 505.498959 281.556516 
L 505.740978 283.560162 
L 505.982998 281.771169 
L 506.225017 276.359865 
L 506.467037 274.383162 
L 506.709056 277.644604 
L 507.193095 290.00985 
L 507.435115 290.434933 
L 507.677134 292.379904 
L 507.919153 296.293108 
L 508.161173 296.694303 
L 508.645212 294.406327 
L 508.887231 295.772918 
L 509.129251 293.731174 
L 509.37127 294.257194 
L 509.855309 289.389801 
L 510.097328 279.697789 
L 510.339348 276.782892 
L 510.581367 278.334561 
L 510.823387 278.011511 
L 511.065406 275.478384 
L 511.307425 278.03782 
L 511.549445 283.887031 
L 512.275503 293.088091 
L 512.517523 293.728964 
L 512.759542 291.319318 
L 513.001561 290.36158 
L 513.243581 287.622251 
L 513.4856 287.689759 
L 513.72762 283.599818 
L 513.969639 287.135998 
L 514.211659 285.745255 
L 514.453678 290.150806 
L 514.695697 291.713822 
L 514.937717 292.473823 
L 515.179736 291.562512 
L 515.421756 291.682687 
L 515.663775 292.231962 
L 515.905795 294.835631 
L 516.147814 300.626224 
L 516.389833 302.680073 
L 516.631853 305.798893 
L 517.115892 300.998321 
L 517.357911 300.020927 
L 517.84195 293.895413 
L 518.083969 290.118418 
L 518.325989 289.31148 
L 518.568008 289.093947 
L 518.810028 285.984946 
L 519.294067 289.954755 
L 520.020125 302.680795 
L 520.262144 303.022982 
L 520.504164 302.920473 
L 520.746183 304.28822 
L 520.988203 304.603798 
L 521.230222 302.826579 
L 521.714261 297.084597 
L 521.95628 297.017973 
L 522.1983 296.090954 
L 522.682339 295.832037 
L 522.924358 296.029466 
L 523.166378 295.505864 
L 523.408397 294.624357 
L 523.650416 294.496459 
L 523.892436 291.889455 
L 524.134455 290.732518 
L 524.376475 290.41123 
L 525.344552 283.786089 
L 525.586572 284.208828 
L 525.828591 279.355219 
L 526.070611 276.988557 
L 526.55465 265.179436 
L 526.796669 257.325329 
L 527.522727 206.879154 
L 527.764747 82.433721 
L 528.490805 172.367898 
L 528.732824 175.834848 
L 529.942922 280.269948 
L 530.184941 286.488184 
L 530.66898 290.481261 
L 530.910999 289.229341 
L 531.153019 283.825673 
L 531.637058 281.25269 
L 532.121096 286.055412 
L 532.363116 285.339569 
L 532.605135 286.12254 
L 532.847155 288.019129 
L 533.089174 288.945477 
L 533.331194 289.399544 
L 533.815232 293.785822 
L 534.299271 293.726628 
L 535.02533 300.240583 
L 535.267349 295.349424 
L 535.509368 293.880469 
L 535.751388 288.139265 
L 535.993407 291.083808 
L 536.235427 292.117396 
L 536.477446 287.763964 
L 536.719466 280.733562 
L 537.203505 276.018617 
L 537.445524 288.486341 
L 537.929563 291.999857 
L 538.171582 295.371423 
L 538.655621 298.206583 
L 538.897641 296.347553 
L 539.381679 291.674617 
L 539.623699 290.77933 
L 539.865718 293.957697 
L 540.349757 296.578084 
L 540.591777 298.593762 
L 540.833796 298.070853 
L 541.075815 299.992893 
L 541.317835 300.239646 
L 541.801874 292.272152 
L 542.285913 279.154729 
L 542.527932 279.302684 
L 543.011971 287.889677 
L 543.25399 286.333579 
L 543.49601 286.093334 
L 544.464087 295.453782 
L 544.948126 300.008228 
L 545.190146 299.241048 
L 545.916204 302.421391 
L 546.158223 302.65297 
L 546.400243 301.943924 
L 546.642262 300.586186 
L 546.884282 298.439689 
L 547.368321 296.710301 
L 547.61034 293.755169 
L 547.852359 295.508554 
L 548.094379 295.729889 
L 548.336398 295.426099 
L 548.578418 286.886686 
L 548.820437 282.690777 
L 549.304476 235.37708 
L 549.546495 226.194057 
L 549.788515 232.949639 
L 550.030534 220.218144 
L 550.514573 209.938825 
L 550.756593 210.682234 
L 550.998612 203.880041 
L 551.240632 200.995363 
L 551.482651 206.91922 
L 552.208709 246.359262 
L 552.450729 248.278305 
L 552.692748 255.089268 
L 552.934768 271.040545 
L 553.660826 291.451508 
L 553.902845 293.656045 
L 554.144865 294.304399 
L 554.386884 296.304784 
L 554.628904 299.549565 
L 554.870923 299.388652 
L 555.112942 299.47268 
L 555.354962 300.604222 
L 555.839001 299.313322 
L 556.08102 299.433293 
L 556.807078 295.308715 
L 557.049098 294.106144 
L 557.291117 294.813082 
L 557.533137 294.107005 
L 557.775156 294.647778 
L 558.259195 298.836459 
L 558.501214 299.123424 
L 558.743234 295.494984 
L 558.985253 294.134843 
L 559.227273 291.652701 
L 559.469292 293.669249 
L 559.953331 291.628877 
L 560.43737 289.320449 
L 560.679389 289.089286 
L 560.921409 287.408085 
L 561.163428 284.623523 
L 561.405448 283.337443 
L 561.647467 283.916405 
L 561.889486 283.627694 
L 562.131506 286.131272 
L 562.615545 280.610832 
L 562.857564 274.547725 
L 563.099584 273.547701 
L 563.341603 276.228558 
L 563.583622 281.991201 
L 563.825642 281.991231 
L 564.067661 283.926429 
L 564.309681 282.307542 
L 564.79372 284.271895 
L 565.035739 286.64998 
L 565.761797 290.14841 
L 566.003817 292.062294 
L 566.245836 292.173331 
L 566.487856 294.37487 
L 566.729875 294.237998 
L 567.213914 292.602104 
L 567.455933 295.001688 
L 567.697953 294.826789 
L 568.181992 297.380796 
L 568.666031 295.495699 
L 568.90805 293.066906 
L 569.392089 294.408393 
L 569.634108 296.003253 
L 569.876128 298.823822 
L 570.118147 297.737079 
L 570.360167 294.822179 
L 570.602186 294.71386 
L 570.844205 294.919524 
L 571.086225 290.529875 
L 571.328244 289.31094 
L 571.570264 287.495692 
L 571.812283 287.446175 
L 572.054303 288.204244 
L 572.296322 288.207254 
L 572.538341 286.874299 
L 572.780361 284.056164 
L 573.2644 288.522995 
L 573.506419 288.962461 
L 573.748439 289.859723 
L 573.990458 288.28907 
L 574.232477 284.947023 
L 574.958536 278.956284 
L 575.200555 281.881976 
L 575.442575 278.118452 
L 575.926613 283.096724 
L 576.168633 283.309742 
L 576.410652 281.051969 
L 576.652672 281.215666 
L 576.894691 286.841726 
L 577.136711 287.693972 
L 577.37873 290.791053 
L 577.620749 295.493539 
L 578.104788 298.931103 
L 578.346808 299.377606 
L 578.588827 300.397339 
L 578.830847 293.694573 
L 579.072866 293.039648 
L 579.314885 290.330439 
L 579.556905 290.223303 
L 579.798924 286.953078 
L 580.040944 287.701702 
L 580.282963 289.174368 
L 580.767002 294.537591 
L 581.009022 297.840401 
L 581.251041 298.635242 
L 581.49306 296.328038 
L 581.73508 295.425375 
L 581.977099 292.478757 
L 582.219119 292.393461 
L 582.461138 290.874497 
L 582.703158 292.545937 
L 582.945177 292.207016 
L 583.187196 294.784127 
L 583.671235 296.065581 
L 583.913255 294.682165 
L 584.155274 294.79829 
L 584.397294 294.037974 
L 584.639313 295.997015 
L 585.123352 303.974498 
L 585.365371 306.910857 
L 585.607391 306.93844 
L 587.543546 291.679061 
L 587.785566 291.828787 
L 588.027585 293.633304 
L 588.753643 305.277946 
L 588.995663 305.408655 
L 589.237682 306.339808 
L 589.479702 306.750059 
L 589.721721 306.286533 
L 589.96374 305.134668 
L 590.447779 298.555598 
L 590.689799 299.182293 
L 590.931818 298.203466 
L 591.173838 299.287102 
L 591.415857 298.720095 
L 591.899896 299.758537 
L 592.141915 299.435992 
L 592.383935 298.178732 
L 593.352012 295.452344 
L 593.836051 292.879052 
L 594.078071 292.833346 
L 594.32009 293.796483 
L 594.56211 291.317441 
L 595.288168 279.251273 
L 595.530187 273.051237 
L 596.256246 239.789922 
L 596.498265 242.540757 
L 596.740285 249.19703 
L 596.982304 252.790731 
L 597.224323 239.490722 
L 597.466343 238.71786 
L 597.708362 248.558736 
L 597.950382 236.316336 
L 598.192401 233.018189 
L 598.434421 233.933184 
L 598.918459 244.018497 
L 599.160479 235.625092 
L 599.402498 216.927737 
L 599.644518 210.678235 
L 599.886537 252.644336 
L 600.128557 242.485841 
L 600.370576 242.78641 
L 600.854615 252.814864 
L 601.096634 245.921419 
L 601.338654 248.033268 
L 601.580673 254.959188 
L 601.822693 250.763891 
L 602.064712 251.562394 
L 602.548751 267.704998 
L 602.79077 274.025146 
L 603.03279 270.551813 
L 603.274809 257.285034 
L 603.516829 251.983419 
L 603.758848 230.902967 
L 604.000867 226.910531 
L 604.484906 241.105354 
L 604.726926 231.305976 
L 604.968945 232.61311 
L 605.210965 239.206175 
L 605.452984 239.902418 
L 605.695003 237.067276 
L 605.937023 246.988762 
L 606.179042 261.681449 
L 606.663081 269.012251 
L 606.905101 260.19569 
L 607.389139 267.262365 
L 607.631159 258.998135 
L 607.873178 255.623405 
L 608.115198 260.67072 
L 608.357217 260.938812 
L 608.599237 253.544317 
L 608.841256 253.147293 
L 609.083276 258.877518 
L 609.325295 251.943333 
L 609.567314 251.035741 
L 610.051353 261.660068 
L 610.293373 268.741602 
L 610.777412 239.711502 
L 611.019431 218.47351 
L 611.26145 244.395337 
L 611.50347 235.14034 
L 611.745489 239.576583 
L 611.987509 241.81079 
L 612.229528 242.015142 
L 612.471548 238.862542 
L 612.713567 241.415799 
L 612.955586 249.077474 
L 613.439625 245.992344 
L 613.681645 253.373821 
L 614.165684 272.034146 
L 614.407703 268.059322 
L 614.891742 233.049776 
L 615.133761 257.01977 
L 615.375781 250.143409 
L 615.6178 247.608802 
L 615.85982 252.886827 
L 616.101839 254.83865 
L 616.343858 249.700652 
L 616.585878 251.251922 
L 616.827897 257.939648 
L 617.069917 256.03475 
L 617.311936 255.265885 
L 617.795975 274.724234 
L 618.037994 283.837453 
L 618.280014 284.780302 
L 618.522033 279.372846 
L 618.764053 283.62582 
L 619.006072 232.172799 
L 619.490111 212.110803 
L 619.73213 220.125515 
L 619.97415 223.796635 
L 620.216169 205.06425 
L 620.458189 200.932278 
L 620.700208 205.096525 
L 620.942228 193.750544 
L 621.184247 191.764998 
L 621.426266 195.672629 
L 621.668286 212.860558 
L 621.910305 216.081756 
L 622.152325 184.191657 
L 622.394344 177.428528 
L 622.636364 157.142402 
L 622.636364 157.142402 
" clip-path="url(#p2abb6db301)" style="fill: none; stroke: #ff7f0e; stroke-width: 1.5; stroke-linecap: square"/>
   </g>
   <g id="patch_3">
    <path d="M 90 320.4 
L 90 43.2 
" style="fill: none; stroke: #000000; stroke-width: 0.8; stroke-linejoin: miter; stroke-linecap: square"/>
   </g>
   <g id="patch_4">
    <path d="M 648 320.4 
L 648 43.2 
" style="fill: none; stroke: #000000; stroke-width: 0.8; stroke-linejoin: miter; stroke-linecap: square"/>
   </g>
   <g id="patch_5">
    <path d="M 90 320.4 
L 648 320.4 
" style="fill: none; stroke: #000000; stroke-width: 0.8; stroke-linejoin: miter; stroke-linecap: square"/>
   </g>
   <g id="patch_6">
    <path d="M 90 43.2 
L 648 43.2 
" style="fill: none; stroke: #000000; stroke-width: 0.8; stroke-linejoin: miter; stroke-linecap: square"/>
   </g>
   <g id="legend_1">
    <g id="patch_7">
     <path d="M 488.671875 84.291875 
L 640.3 84.291875 
Q 642.5 84.291875 642.5 82.091875 
L 642.5 50.9 
Q 642.5 48.7 640.3 48.7 
L 488.671875 48.7 
Q 486.471875 48.7 486.471875 50.9 
L 486.471875 82.091875 
Q 486.471875 84.291875 488.671875 84.291875 
z
" style="fill: #ffffff; opacity: 0.8; stroke: #cccccc; stroke-linejoin: miter"/>
    </g>
    <g id="line2d_13">
     <path d="M 490.871875 57.608281 
L 501.871875 57.608281 
L 512.871875 57.608281 
" style="fill: none; stroke: #1f77b4; stroke-width: 1.5; stroke-linecap: square"/>
    </g>
    <g id="text_13">
     <!-- B-factors -->
     <g transform="translate(521.671875 61.458281)scale(0.11 -0.11)">
      <defs>
       <path id="DejaVuSans-42" d="M 1259 2228 
L 1259 519 
L 2272 519 
Q 2781 519 3026 730 
Q 3272 941 3272 1375 
Q 3272 1813 3026 2020 
Q 2781 2228 2272 2228 
L 1259 2228 
z
M 1259 4147 
L 1259 2741 
L 2194 2741 
Q 2656 2741 2882 2914 
Q 3109 3088 3109 3444 
Q 3109 3797 2882 3972 
Q 2656 4147 2194 4147 
L 1259 4147 
z
M 628 4666 
L 2241 4666 
Q 2963 4666 3353 4366 
Q 3744 4066 3744 3513 
Q 3744 3084 3544 2831 
Q 3344 2578 2956 2516 
Q 3422 2416 3680 2098 
Q 3938 1781 3938 1306 
Q 3938 681 3513 340 
Q 3088 0 2303 0 
L 628 0 
L 628 4666 
z
" transform="scale(0.015625)"/>
       <path id="DejaVuSans-2d" d="M 313 2009 
L 1997 2009 
L 1997 1497 
L 313 1497 
L 313 2009 
z
" transform="scale(0.015625)"/>
       <path id="DejaVuSans-66" d="M 2375 4863 
L 2375 4384 
L 1825 4384 
Q 1516 4384 1395 4259 
Q 1275 4134 1275 3809 
L 1275 3500 
L 2222 3500 
L 2222 3053 
L 1275 3053 
L 1275 0 
L 697 0 
L 697 3053 
L 147 3053 
L 147 3500 
L 697 3500 
L 697 3744 
Q 697 4328 969 4595 
Q 1241 4863 1831 4863 
L 2375 4863 
z
" transform="scale(0.015625)"/>
       <path id="DejaVuSans-61" d="M 2194 1759 
Q 1497 1759 1228 1600 
Q 959 1441 959 1056 
Q 959 750 1161 570 
Q 1363 391 1709 391 
Q 2188 391 2477 730 
Q 2766 1069 2766 1631 
L 2766 1759 
L 2194 1759 
z
M 3341 1997 
L 3341 0 
L 2766 0 
L 2766 531 
Q 2569 213 2275 61 
Q 1981 -91 1556 -91 
Q 1019 -91 701 211 
Q 384 513 384 1019 
Q 384 1609 779 1909 
Q 1175 2209 1959 2209 
L 2766 2209 
L 2766 2266 
Q 2766 2663 2505 2880 
Q 2244 3097 1772 3097 
Q 1472 3097 1187 3025 
Q 903 2953 641 2809 
L 641 3341 
Q 956 3463 1253 3523 
Q 1550 3584 1831 3584 
Q 2591 3584 2966 3190 
Q 3341 2797 3341 1997 
z
" transform="scale(0.015625)"/>
       <path id="DejaVuSans-63" d="M 3122 3366 
L 3122 2828 
Q 2878 2963 2633 3030 
Q 2388 3097 2138 3097 
Q 1578 3097 1268 2742 
Q 959 2388 959 1747 
Q 959 1106 1268 751 
Q 1578 397 2138 397 
Q 2388 397 2633 464 
Q 2878 531 3122 666 
L 3122 134 
Q 2881 22 2623 -34 
Q 2366 -91 2075 -91 
Q 1284 -91 818 406 
Q 353 903 353 1747 
Q 353 2603 823 3093 
Q 1294 3584 2113 3584 
Q 2378 3584 2631 3529 
Q 2884 3475 3122 3366 
z
" transform="scale(0.015625)"/>
       <path id="DejaVuSans-74" d="M 1172 4494 
L 1172 3500 
L 2356 3500 
L 2356 3053 
L 1172 3053 
L 1172 1153 
Q 1172 725 1289 603 
Q 1406 481 1766 481 
L 2356 481 
L 2356 0 
L 1766 0 
Q 1100 0 847 248 
Q 594 497 594 1153 
L 594 3053 
L 172 3053 
L 172 3500 
L 594 3500 
L 594 4494 
L 1172 4494 
z
" transform="scale(0.015625)"/>
       <path id="DejaVuSans-6f" d="M 1959 3097 
Q 1497 3097 1228 2736 
Q 959 2375 959 1747 
Q 959 1119 1226 758 
Q 1494 397 1959 397 
Q 2419 397 2687 759 
Q 2956 1122 2956 1747 
Q 2956 2369 2687 2733 
Q 2419 3097 1959 3097 
z
M 1959 3584 
Q 2709 3584 3137 3096 
Q 3566 2609 3566 1747 
Q 3566 888 3137 398 
Q 2709 -91 1959 -91 
Q 1206 -91 779 398 
Q 353 888 353 1747 
Q 353 2609 779 3096 
Q 1206 3584 1959 3584 
z
" transform="scale(0.015625)"/>
      </defs>
      <use xlink:href="#DejaVuSans-42"/>
      <use xlink:href="#DejaVuSans-2d" x="68.603516"/>
      <use xlink:href="#DejaVuSans-66" x="104.6875"/>
      <use xlink:href="#DejaVuSans-61" x="139.892578"/>
      <use xlink:href="#DejaVuSans-63" x="201.171875"/>
      <use xlink:href="#DejaVuSans-74" x="256.152344"/>
      <use xlink:href="#DejaVuSans-6f" x="295.361328"/>
      <use xlink:href="#DejaVuSans-72" x="356.542969"/>
      <use xlink:href="#DejaVuSans-73" x="397.65625"/>
     </g>
    </g>
    <g id="line2d_14">
     <path d="M 490.871875 73.754219 
L 501.871875 73.754219 
L 512.871875 73.754219 
" style="fill: none; stroke: #ff7f0e; stroke-width: 1.5; stroke-linecap: square"/>
    </g>
    <g id="text_14">
     <!-- Squared Fluctuations -->
     <g transform="translate(521.671875 77.604219)scale(0.11 -0.11)">
      <defs>
       <path id="DejaVuSans-53" d="M 3425 4513 
L 3425 3897 
Q 3066 4069 2747 4153 
Q 2428 4238 2131 4238 
Q 1616 4238 1336 4038 
Q 1056 3838 1056 3469 
Q 1056 3159 1242 3001 
Q 1428 2844 1947 2747 
L 2328 2669 
Q 3034 2534 3370 2195 
Q 3706 1856 3706 1288 
Q 3706 609 3251 259 
Q 2797 -91 1919 -91 
Q 1588 -91 1214 -16 
Q 841 59 441 206 
L 441 856 
Q 825 641 1194 531 
Q 1563 422 1919 422 
Q 2459 422 2753 634 
Q 3047 847 3047 1241 
Q 3047 1584 2836 1778 
Q 2625 1972 2144 2069 
L 1759 2144 
Q 1053 2284 737 2584 
Q 422 2884 422 3419 
Q 422 4038 858 4394 
Q 1294 4750 2059 4750 
Q 2388 4750 2728 4690 
Q 3069 4631 3425 4513 
z
" transform="scale(0.015625)"/>
       <path id="DejaVuSans-71" d="M 947 1747 
Q 947 1113 1208 752 
Q 1469 391 1925 391 
Q 2381 391 2643 752 
Q 2906 1113 2906 1747 
Q 2906 2381 2643 2742 
Q 2381 3103 1925 3103 
Q 1469 3103 1208 2742 
Q 947 2381 947 1747 
z
M 2906 525 
Q 2725 213 2448 61 
Q 2172 -91 1784 -91 
Q 1150 -91 751 415 
Q 353 922 353 1747 
Q 353 2572 751 3078 
Q 1150 3584 1784 3584 
Q 2172 3584 2448 3432 
Q 2725 3281 2906 2969 
L 2906 3500 
L 3481 3500 
L 3481 -1331 
L 2906 -1331 
L 2906 525 
z
" transform="scale(0.015625)"/>
       <path id="DejaVuSans-46" d="M 628 4666 
L 3309 4666 
L 3309 4134 
L 1259 4134 
L 1259 2759 
L 3109 2759 
L 3109 2228 
L 1259 2228 
L 1259 0 
L 628 0 
L 628 4666 
z
" transform="scale(0.015625)"/>
       <path id="DejaVuSans-6c" d="M 603 4863 
L 1178 4863 
L 1178 0 
L 603 0 
L 603 4863 
z
" transform="scale(0.015625)"/>
       <path id="DejaVuSans-6e" d="M 3513 2113 
L 3513 0 
L 2938 0 
L 2938 2094 
Q 2938 2591 2744 2837 
Q 2550 3084 2163 3084 
Q 1697 3084 1428 2787 
Q 1159 2491 1159 1978 
L 1159 0 
L 581 0 
L 581 3500 
L 1159 3500 
L 1159 2956 
Q 1366 3272 1645 3428 
Q 1925 3584 2291 3584 
Q 2894 3584 3203 3211 
Q 3513 2838 3513 2113 
z
" transform="scale(0.015625)"/>
      </defs>
      <use xlink:href="#DejaVuSans-53"/>
      <use xlink:href="#DejaVuSans-71" x="63.476562"/>
      <use xlink:href="#DejaVuSans-75" x="126.953125"/>
      <use xlink:href="#DejaVuSans-61" x="190.332031"/>
      <use xlink:href="#DejaVuSans-72" x="251.611328"/>
      <use xlink:href="#DejaVuSans-65" x="290.474609"/>
      <use xlink:href="#DejaVuSans-64" x="351.998047"/>
      <use xlink:href="#DejaVuSans-20" x="415.474609"/>
      <use xlink:href="#DejaVuSans-46" x="447.261719"/>
      <use xlink:href="#DejaVuSans-6c" x="504.78125"/>
      <use xlink:href="#DejaVuSans-75" x="532.564453"/>
      <use xlink:href="#DejaVuSans-63" x="595.943359"/>
      <use xlink:href="#DejaVuSans-74" x="650.923828"/>
      <use xlink:href="#DejaVuSans-75" x="690.132812"/>
      <use xlink:href="#DejaVuSans-61" x="753.511719"/>
      <use xlink:href="#DejaVuSans-74" x="814.791016"/>
      <use xlink:href="#DejaVuSans-69" x="854"/>
      <use xlink:href="#DejaVuSans-6f" x="881.783203"/>
      <use xlink:href="#DejaVuSans-6e" x="942.964844"/>
      <use xlink:href="#DejaVuSans-73" x="1006.34375"/>
     </g>
    </g>
   </g>
  </g>
  <g id="text_15">
   <!-- Squared Fluctuations vs B-factors: Capsid Protein And C-Terminal Part Of Scaffolding Protein In The Staphylococcus Aureus Phage 80Alpha Procapsid (6b0x) -->
   <g transform="translate(-107.138438 16.318125)scale(0.12 -0.12)">
    <defs>
     <path id="DejaVuSans-76" d="M 191 3500 
L 800 3500 
L 1894 563 
L 2988 3500 
L 3597 3500 
L 2284 0 
L 1503 0 
L 191 3500 
z
" transform="scale(0.015625)"/>
     <path id="DejaVuSans-3a" d="M 750 794 
L 1409 794 
L 1409 0 
L 750 0 
L 750 794 
z
M 750 3309 
L 1409 3309 
L 1409 2516 
L 750 2516 
L 750 3309 
z
" transform="scale(0.015625)"/>
     <path id="DejaVuSans-43" d="M 4122 4306 
L 4122 3641 
Q 3803 3938 3442 4084 
Q 3081 4231 2675 4231 
Q 1875 4231 1450 3742 
Q 1025 3253 1025 2328 
Q 1025 1406 1450 917 
Q 1875 428 2675 428 
Q 3081 428 3442 575 
Q 3803 722 4122 1019 
L 4122 359 
Q 3791 134 3420 21 
Q 3050 -91 2638 -91 
Q 1578 -91 968 557 
Q 359 1206 359 2328 
Q 359 3453 968 4101 
Q 1578 4750 2638 4750 
Q 3056 4750 3426 4639 
Q 3797 4528 4122 4306 
z
" transform="scale(0.015625)"/>
     <path id="DejaVuSans-70" d="M 1159 525 
L 1159 -1331 
L 581 -1331 
L 581 3500 
L 1159 3500 
L 1159 2969 
Q 1341 3281 1617 3432 
Q 1894 3584 2278 3584 
Q 2916 3584 3314 3078 
Q 3713 2572 3713 1747 
Q 3713 922 3314 415 
Q 2916 -91 2278 -91 
Q 1894 -91 1617 61 
Q 1341 213 1159 525 
z
M 3116 1747 
Q 3116 2381 2855 2742 
Q 2594 3103 2138 3103 
Q 1681 3103 1420 2742 
Q 1159 2381 1159 1747 
Q 1159 1113 1420 752 
Q 1681 391 2138 391 
Q 2594 391 2855 752 
Q 3116 1113 3116 1747 
z
" transform="scale(0.015625)"/>
     <path id="DejaVuSans-50" d="M 1259 4147 
L 1259 2394 
L 2053 2394 
Q 2494 2394 2734 2622 
Q 2975 2850 2975 3272 
Q 2975 3691 2734 3919 
Q 2494 4147 2053 4147 
L 1259 4147 
z
M 628 4666 
L 2053 4666 
Q 2838 4666 3239 4311 
Q 3641 3956 3641 3272 
Q 3641 2581 3239 2228 
Q 2838 1875 2053 1875 
L 1259 1875 
L 1259 0 
L 628 0 
L 628 4666 
z
" transform="scale(0.015625)"/>
     <path id="DejaVuSans-41" d="M 2188 4044 
L 1331 1722 
L 3047 1722 
L 2188 4044 
z
M 1831 4666 
L 2547 4666 
L 4325 0 
L 3669 0 
L 3244 1197 
L 1141 1197 
L 716 0 
L 50 0 
L 1831 4666 
z
" transform="scale(0.015625)"/>
     <path id="DejaVuSans-54" d="M -19 4666 
L 3928 4666 
L 3928 4134 
L 2272 4134 
L 2272 0 
L 1638 0 
L 1638 4134 
L -19 4134 
L -19 4666 
z
" transform="scale(0.015625)"/>
     <path id="DejaVuSans-4f" d="M 2522 4238 
Q 1834 4238 1429 3725 
Q 1025 3213 1025 2328 
Q 1025 1447 1429 934 
Q 1834 422 2522 422 
Q 3209 422 3611 934 
Q 4013 1447 4013 2328 
Q 4013 3213 3611 3725 
Q 3209 4238 2522 4238 
z
M 2522 4750 
Q 3503 4750 4090 4092 
Q 4678 3434 4678 2328 
Q 4678 1225 4090 567 
Q 3503 -91 2522 -91 
Q 1538 -91 948 565 
Q 359 1222 359 2328 
Q 359 3434 948 4092 
Q 1538 4750 2522 4750 
z
" transform="scale(0.015625)"/>
     <path id="DejaVuSans-67" d="M 2906 1791 
Q 2906 2416 2648 2759 
Q 2391 3103 1925 3103 
Q 1463 3103 1205 2759 
Q 947 2416 947 1791 
Q 947 1169 1205 825 
Q 1463 481 1925 481 
Q 2391 481 2648 825 
Q 2906 1169 2906 1791 
z
M 3481 434 
Q 3481 -459 3084 -895 
Q 2688 -1331 1869 -1331 
Q 1566 -1331 1297 -1286 
Q 1028 -1241 775 -1147 
L 775 -588 
Q 1028 -725 1275 -790 
Q 1522 -856 1778 -856 
Q 2344 -856 2625 -561 
Q 2906 -266 2906 331 
L 2906 616 
Q 2728 306 2450 153 
Q 2172 0 1784 0 
Q 1141 0 747 490 
Q 353 981 353 1791 
Q 353 2603 747 3093 
Q 1141 3584 1784 3584 
Q 2172 3584 2450 3431 
Q 2728 3278 2906 2969 
L 2906 3500 
L 3481 3500 
L 3481 434 
z
" transform="scale(0.015625)"/>
     <path id="DejaVuSans-49" d="M 628 4666 
L 1259 4666 
L 1259 0 
L 628 0 
L 628 4666 
z
" transform="scale(0.015625)"/>
     <path id="DejaVuSans-68" d="M 3513 2113 
L 3513 0 
L 2938 0 
L 2938 2094 
Q 2938 2591 2744 2837 
Q 2550 3084 2163 3084 
Q 1697 3084 1428 2787 
Q 1159 2491 1159 1978 
L 1159 0 
L 581 0 
L 581 4863 
L 1159 4863 
L 1159 2956 
Q 1366 3272 1645 3428 
Q 1925 3584 2291 3584 
Q 2894 3584 3203 3211 
Q 3513 2838 3513 2113 
z
" transform="scale(0.015625)"/>
     <path id="DejaVuSans-79" d="M 2059 -325 
Q 1816 -950 1584 -1140 
Q 1353 -1331 966 -1331 
L 506 -1331 
L 506 -850 
L 844 -850 
Q 1081 -850 1212 -737 
Q 1344 -625 1503 -206 
L 1606 56 
L 191 3500 
L 800 3500 
L 1894 763 
L 2988 3500 
L 3597 3500 
L 2059 -325 
z
" transform="scale(0.015625)"/>
     <path id="DejaVuSans-38" d="M 2034 2216 
Q 1584 2216 1326 1975 
Q 1069 1734 1069 1313 
Q 1069 891 1326 650 
Q 1584 409 2034 409 
Q 2484 409 2743 651 
Q 3003 894 3003 1313 
Q 3003 1734 2745 1975 
Q 2488 2216 2034 2216 
z
M 1403 2484 
Q 997 2584 770 2862 
Q 544 3141 544 3541 
Q 544 4100 942 4425 
Q 1341 4750 2034 4750 
Q 2731 4750 3128 4425 
Q 3525 4100 3525 3541 
Q 3525 3141 3298 2862 
Q 3072 2584 2669 2484 
Q 3125 2378 3379 2068 
Q 3634 1759 3634 1313 
Q 3634 634 3220 271 
Q 2806 -91 2034 -91 
Q 1263 -91 848 271 
Q 434 634 434 1313 
Q 434 1759 690 2068 
Q 947 2378 1403 2484 
z
M 1172 3481 
Q 1172 3119 1398 2916 
Q 1625 2713 2034 2713 
Q 2441 2713 2670 2916 
Q 2900 3119 2900 3481 
Q 2900 3844 2670 4047 
Q 2441 4250 2034 4250 
Q 1625 4250 1398 4047 
Q 1172 3844 1172 3481 
z
" transform="scale(0.015625)"/>
     <path id="DejaVuSans-28" d="M 1984 4856 
Q 1566 4138 1362 3434 
Q 1159 2731 1159 2009 
Q 1159 1288 1364 580 
Q 1569 -128 1984 -844 
L 1484 -844 
Q 1016 -109 783 600 
Q 550 1309 550 2009 
Q 550 2706 781 3412 
Q 1013 4119 1484 4856 
L 1984 4856 
z
" transform="scale(0.015625)"/>
     <path id="DejaVuSans-36" d="M 2113 2584 
Q 1688 2584 1439 2293 
Q 1191 2003 1191 1497 
Q 1191 994 1439 701 
Q 1688 409 2113 409 
Q 2538 409 2786 701 
Q 3034 994 3034 1497 
Q 3034 2003 2786 2293 
Q 2538 2584 2113 2584 
z
M 3366 4563 
L 3366 3988 
Q 3128 4100 2886 4159 
Q 2644 4219 2406 4219 
Q 1781 4219 1451 3797 
Q 1122 3375 1075 2522 
Q 1259 2794 1537 2939 
Q 1816 3084 2150 3084 
Q 2853 3084 3261 2657 
Q 3669 2231 3669 1497 
Q 3669 778 3244 343 
Q 2819 -91 2113 -91 
Q 1303 -91 875 529 
Q 447 1150 447 2328 
Q 447 3434 972 4092 
Q 1497 4750 2381 4750 
Q 2619 4750 2861 4703 
Q 3103 4656 3366 4563 
z
" transform="scale(0.015625)"/>
     <path id="DejaVuSans-78" d="M 3513 3500 
L 2247 1797 
L 3578 0 
L 2900 0 
L 1881 1375 
L 863 0 
L 184 0 
L 1544 1831 
L 300 3500 
L 978 3500 
L 1906 2253 
L 2834 3500 
L 3513 3500 
z
" transform="scale(0.015625)"/>
     <path id="DejaVuSans-29" d="M 513 4856 
L 1013 4856 
Q 1481 4119 1714 3412 
Q 1947 2706 1947 2009 
Q 1947 1309 1714 600 
Q 1481 -109 1013 -844 
L 513 -844 
Q 928 -128 1133 580 
Q 1338 1288 1338 2009 
Q 1338 2731 1133 3434 
Q 928 4138 513 4856 
z
" transform="scale(0.015625)"/>
    </defs>
    <use xlink:href="#DejaVuSans-53"/>
    <use xlink:href="#DejaVuSans-71" x="63.476562"/>
    <use xlink:href="#DejaVuSans-75" x="126.953125"/>
    <use xlink:href="#DejaVuSans-61" x="190.332031"/>
    <use xlink:href="#DejaVuSans-72" x="251.611328"/>
    <use xlink:href="#DejaVuSans-65" x="290.474609"/>
    <use xlink:href="#DejaVuSans-64" x="351.998047"/>
    <use xlink:href="#DejaVuSans-20" x="415.474609"/>
    <use xlink:href="#DejaVuSans-46" x="447.261719"/>
    <use xlink:href="#DejaVuSans-6c" x="504.78125"/>
    <use xlink:href="#DejaVuSans-75" x="532.564453"/>
    <use xlink:href="#DejaVuSans-63" x="595.943359"/>
    <use xlink:href="#DejaVuSans-74" x="650.923828"/>
    <use xlink:href="#DejaVuSans-75" x="690.132812"/>
    <use xlink:href="#DejaVuSans-61" x="753.511719"/>
    <use xlink:href="#DejaVuSans-74" x="814.791016"/>
    <use xlink:href="#DejaVuSans-69" x="854"/>
    <use xlink:href="#DejaVuSans-6f" x="881.783203"/>
    <use xlink:href="#DejaVuSans-6e" x="942.964844"/>
    <use xlink:href="#DejaVuSans-73" x="1006.34375"/>
    <use xlink:href="#DejaVuSans-20" x="1058.443359"/>
    <use xlink:href="#DejaVuSans-76" x="1090.230469"/>
    <use xlink:href="#DejaVuSans-73" x="1149.410156"/>
    <use xlink:href="#DejaVuSans-20" x="1201.509766"/>
    <use xlink:href="#DejaVuSans-42" x="1233.296875"/>
    <use xlink:href="#DejaVuSans-2d" x="1301.900391"/>
    <use xlink:href="#DejaVuSans-66" x="1337.984375"/>
    <use xlink:href="#DejaVuSans-61" x="1373.189453"/>
    <use xlink:href="#DejaVuSans-63" x="1434.46875"/>
    <use xlink:href="#DejaVuSans-74" x="1489.449219"/>
    <use xlink:href="#DejaVuSans-6f" x="1528.658203"/>
    <use xlink:href="#DejaVuSans-72" x="1589.839844"/>
    <use xlink:href="#DejaVuSans-73" x="1630.953125"/>
    <use xlink:href="#DejaVuSans-3a" x="1683.052734"/>
    <use xlink:href="#DejaVuSans-20" x="1716.744141"/>
    <use xlink:href="#DejaVuSans-43" x="1748.53125"/>
    <use xlink:href="#DejaVuSans-61" x="1818.355469"/>
    <use xlink:href="#DejaVuSans-70" x="1879.634766"/>
    <use xlink:href="#DejaVuSans-73" x="1943.111328"/>
    <use xlink:href="#DejaVuSans-69" x="1995.210938"/>
    <use xlink:href="#DejaVuSans-64" x="2022.994141"/>
    <use xlink:href="#DejaVuSans-20" x="2086.470703"/>
    <use xlink:href="#DejaVuSans-50" x="2118.257812"/>
    <use xlink:href="#DejaVuSans-72" x="2176.810547"/>
    <use xlink:href="#DejaVuSans-6f" x="2215.673828"/>
    <use xlink:href="#DejaVuSans-74" x="2276.855469"/>
    <use xlink:href="#DejaVuSans-65" x="2316.064453"/>
    <use xlink:href="#DejaVuSans-69" x="2377.587891"/>
    <use xlink:href="#DejaVuSans-6e" x="2405.371094"/>
    <use xlink:href="#DejaVuSans-20" x="2468.75"/>
    <use xlink:href="#DejaVuSans-41" x="2500.537109"/>
    <use xlink:href="#DejaVuSans-6e" x="2568.945312"/>
    <use xlink:href="#DejaVuSans-64" x="2632.324219"/>
    <use xlink:href="#DejaVuSans-20" x="2695.800781"/>
    <use xlink:href="#DejaVuSans-43" x="2727.587891"/>
    <use xlink:href="#DejaVuSans-2d" x="2797.412109"/>
    <use xlink:href="#DejaVuSans-54" x="2824.371094"/>
    <use xlink:href="#DejaVuSans-65" x="2868.455078"/>
    <use xlink:href="#DejaVuSans-72" x="2929.978516"/>
    <use xlink:href="#DejaVuSans-6d" x="2969.341797"/>
    <use xlink:href="#DejaVuSans-69" x="3066.753906"/>
    <use xlink:href="#DejaVuSans-6e" x="3094.537109"/>
    <use xlink:href="#DejaVuSans-61" x="3157.916016"/>
    <use xlink:href="#DejaVuSans-6c" x="3219.195312"/>
    <use xlink:href="#DejaVuSans-20" x="3246.978516"/>
    <use xlink:href="#DejaVuSans-50" x="3278.765625"/>
    <use xlink:href="#DejaVuSans-61" x="3334.568359"/>
    <use xlink:href="#DejaVuSans-72" x="3395.847656"/>
    <use xlink:href="#DejaVuSans-74" x="3436.960938"/>
    <use xlink:href="#DejaVuSans-20" x="3476.169922"/>
    <use xlink:href="#DejaVuSans-4f" x="3507.957031"/>
    <use xlink:href="#DejaVuSans-66" x="3586.667969"/>
    <use xlink:href="#DejaVuSans-20" x="3621.873047"/>
    <use xlink:href="#DejaVuSans-53" x="3653.660156"/>
    <use xlink:href="#DejaVuSans-63" x="3717.136719"/>
    <use xlink:href="#DejaVuSans-61" x="3772.117188"/>
    <use xlink:href="#DejaVuSans-66" x="3833.396484"/>
    <use xlink:href="#DejaVuSans-66" x="3868.601562"/>
    <use xlink:href="#DejaVuSans-6f" x="3903.806641"/>
    <use xlink:href="#DejaVuSans-6c" x="3964.988281"/>
    <use xlink:href="#DejaVuSans-64" x="3992.771484"/>
    <use xlink:href="#DejaVuSans-69" x="4056.248047"/>
    <use xlink:href="#DejaVuSans-6e" x="4084.03125"/>
    <use xlink:href="#DejaVuSans-67" x="4147.410156"/>
    <use xlink:href="#DejaVuSans-20" x="4210.886719"/>
    <use xlink:href="#DejaVuSans-50" x="4242.673828"/>
    <use xlink:href="#DejaVuSans-72" x="4301.226562"/>
    <use xlink:href="#DejaVuSans-6f" x="4340.089844"/>
    <use xlink:href="#DejaVuSans-74" x="4401.271484"/>
    <use xlink:href="#DejaVuSans-65" x="4440.480469"/>
    <use xlink:href="#DejaVuSans-69" x="4502.003906"/>
    <use xlink:href="#DejaVuSans-6e" x="4529.787109"/>
    <use xlink:href="#DejaVuSans-20" x="4593.166016"/>
    <use xlink:href="#DejaVuSans-49" x="4624.953125"/>
    <use xlink:href="#DejaVuSans-6e" x="4654.445312"/>
    <use xlink:href="#DejaVuSans-20" x="4717.824219"/>
    <use xlink:href="#DejaVuSans-54" x="4749.611328"/>
    <use xlink:href="#DejaVuSans-68" x="4810.695312"/>
    <use xlink:href="#DejaVuSans-65" x="4874.074219"/>
    <use xlink:href="#DejaVuSans-20" x="4935.597656"/>
    <use xlink:href="#DejaVuSans-53" x="4967.384766"/>
    <use xlink:href="#DejaVuSans-74" x="5030.861328"/>
    <use xlink:href="#DejaVuSans-61" x="5070.070312"/>
    <use xlink:href="#DejaVuSans-70" x="5131.349609"/>
    <use xlink:href="#DejaVuSans-68" x="5194.826172"/>
    <use xlink:href="#DejaVuSans-79" x="5258.205078"/>
    <use xlink:href="#DejaVuSans-6c" x="5317.384766"/>
    <use xlink:href="#DejaVuSans-6f" x="5345.167969"/>
    <use xlink:href="#DejaVuSans-63" x="5406.349609"/>
    <use xlink:href="#DejaVuSans-6f" x="5461.330078"/>
    <use xlink:href="#DejaVuSans-63" x="5522.511719"/>
    <use xlink:href="#DejaVuSans-63" x="5577.492188"/>
    <use xlink:href="#DejaVuSans-75" x="5632.472656"/>
    <use xlink:href="#DejaVuSans-73" x="5695.851562"/>
    <use xlink:href="#DejaVuSans-20" x="5747.951172"/>
    <use xlink:href="#DejaVuSans-41" x="5779.738281"/>
    <use xlink:href="#DejaVuSans-75" x="5848.146484"/>
    <use xlink:href="#DejaVuSans-72" x="5911.525391"/>
    <use xlink:href="#DejaVuSans-65" x="5950.388672"/>
    <use xlink:href="#DejaVuSans-75" x="6011.912109"/>
    <use xlink:href="#DejaVuSans-73" x="6075.291016"/>
    <use xlink:href="#DejaVuSans-20" x="6127.390625"/>
    <use xlink:href="#DejaVuSans-50" x="6159.177734"/>
    <use xlink:href="#DejaVuSans-68" x="6219.480469"/>
    <use xlink:href="#DejaVuSans-61" x="6282.859375"/>
    <use xlink:href="#DejaVuSans-67" x="6344.138672"/>
    <use xlink:href="#DejaVuSans-65" x="6407.615234"/>
    <use xlink:href="#DejaVuSans-20" x="6469.138672"/>
    <use xlink:href="#DejaVuSans-38" x="6500.925781"/>
    <use xlink:href="#DejaVuSans-30" x="6564.548828"/>
    <use xlink:href="#DejaVuSans-41" x="6628.171875"/>
    <use xlink:href="#DejaVuSans-6c" x="6696.580078"/>
    <use xlink:href="#DejaVuSans-70" x="6724.363281"/>
    <use xlink:href="#DejaVuSans-68" x="6787.839844"/>
    <use xlink:href="#DejaVuSans-61" x="6851.21875"/>
    <use xlink:href="#DejaVuSans-20" x="6912.498047"/>
    <use xlink:href="#DejaVuSans-50" x="6944.285156"/>
    <use xlink:href="#DejaVuSans-72" x="7002.837891"/>
    <use xlink:href="#DejaVuSans-6f" x="7041.701172"/>
    <use xlink:href="#DejaVuSans-63" x="7102.882812"/>
    <use xlink:href="#DejaVuSans-61" x="7157.863281"/>
    <use xlink:href="#DejaVuSans-70" x="7219.142578"/>
    <use xlink:href="#DejaVuSans-73" x="7282.619141"/>
    <use xlink:href="#DejaVuSans-69" x="7334.71875"/>
    <use xlink:href="#DejaVuSans-64" x="7362.501953"/>
    <use xlink:href="#DejaVuSans-20" x="7425.978516"/>
    <use xlink:href="#DejaVuSans-28" x="7457.765625"/>
    <use xlink:href="#DejaVuSans-36" x="7496.779297"/>
    <use xlink:href="#DejaVuSans-62" x="7560.402344"/>
    <use xlink:href="#DejaVuSans-30" x="7623.878906"/>
    <use xlink:href="#DejaVuSans-78" x="7687.501953"/>
    <use xlink:href="#DejaVuSans-29" x="7746.681641"/>
   </g>
   <!--  $\gamma = $1.04521$\pm$0.00312 $k_{b}T/Å^{2}$  CC = nan -->
   <g transform="translate(238.74 32.20575)scale(0.12 -0.12)">
    <defs>
     <path id="DejaVuSans-Oblique-3b3" d="M 1491 2950 
L 1838 788 
L 3456 3500 
L 4066 3500 
L 1972 0 
L 1713 -1331 
L 1138 -1331 
L 1397 0 
L 988 2613 
Q 925 3006 628 3006 
L 475 3006 
L 569 3500 
L 788 3500 
Q 1403 3500 1491 2950 
z
" transform="scale(0.015625)"/>
     <path id="DejaVuSans-3d" d="M 678 2906 
L 4684 2906 
L 4684 2381 
L 678 2381 
L 678 2906 
z
M 678 1631 
L 4684 1631 
L 4684 1100 
L 678 1100 
L 678 1631 
z
" transform="scale(0.015625)"/>
     <path id="DejaVuSans-2e" d="M 684 794 
L 1344 794 
L 1344 0 
L 684 0 
L 684 794 
z
" transform="scale(0.015625)"/>
     <path id="DejaVuSans-34" d="M 2419 4116 
L 825 1625 
L 2419 1625 
L 2419 4116 
z
M 2253 4666 
L 3047 4666 
L 3047 1625 
L 3713 1625 
L 3713 1100 
L 3047 1100 
L 3047 0 
L 2419 0 
L 2419 1100 
L 313 1100 
L 313 1709 
L 2253 4666 
z
" transform="scale(0.015625)"/>
     <path id="DejaVuSans-b1" d="M 2944 4013 
L 2944 2803 
L 4684 2803 
L 4684 2272 
L 2944 2272 
L 2944 1063 
L 2419 1063 
L 2419 2272 
L 678 2272 
L 678 2803 
L 2419 2803 
L 2419 4013 
L 2944 4013 
z
M 678 531 
L 4684 531 
L 4684 0 
L 678 0 
L 678 531 
z
" transform="scale(0.015625)"/>
     <path id="DejaVuSans-33" d="M 2597 2516 
Q 3050 2419 3304 2112 
Q 3559 1806 3559 1356 
Q 3559 666 3084 287 
Q 2609 -91 1734 -91 
Q 1441 -91 1130 -33 
Q 819 25 488 141 
L 488 750 
Q 750 597 1062 519 
Q 1375 441 1716 441 
Q 2309 441 2620 675 
Q 2931 909 2931 1356 
Q 2931 1769 2642 2001 
Q 2353 2234 1838 2234 
L 1294 2234 
L 1294 2753 
L 1863 2753 
Q 2328 2753 2575 2939 
Q 2822 3125 2822 3475 
Q 2822 3834 2567 4026 
Q 2313 4219 1838 4219 
Q 1578 4219 1281 4162 
Q 984 4106 628 3988 
L 628 4550 
Q 988 4650 1302 4700 
Q 1616 4750 1894 4750 
Q 2613 4750 3031 4423 
Q 3450 4097 3450 3541 
Q 3450 3153 3228 2886 
Q 3006 2619 2597 2516 
z
" transform="scale(0.015625)"/>
     <path id="DejaVuSans-Oblique-6b" d="M 1172 4863 
L 1747 4863 
L 1197 2028 
L 3169 3500 
L 3916 3500 
L 1716 1825 
L 3322 0 
L 2625 0 
L 1131 1709 
L 800 0 
L 225 0 
L 1172 4863 
z
" transform="scale(0.015625)"/>
     <path id="DejaVuSans-Oblique-62" d="M 3169 2138 
Q 3169 2591 2961 2847 
Q 2753 3103 2388 3103 
Q 2122 3103 1889 2973 
Q 1656 2844 1484 2597 
Q 1303 2338 1198 1995 
Q 1094 1653 1094 1313 
Q 1094 881 1298 636 
Q 1503 391 1863 391 
Q 2134 391 2365 517 
Q 2597 644 2772 891 
Q 2950 1147 3059 1487 
Q 3169 1828 3169 2138 
z
M 1381 2969 
Q 1594 3256 1914 3420 
Q 2234 3584 2584 3584 
Q 3122 3584 3439 3221 
Q 3756 2859 3756 2241 
Q 3756 1734 3570 1259 
Q 3384 784 3041 416 
Q 2816 172 2522 40 
Q 2228 -91 1906 -91 
Q 1566 -91 1316 65 
Q 1066 222 909 531 
L 806 0 
L 231 0 
L 1178 4863 
L 1753 4863 
L 1381 2969 
z
" transform="scale(0.015625)"/>
     <path id="DejaVuSans-Oblique-54" d="M 378 4666 
L 4325 4666 
L 4225 4134 
L 2559 4134 
L 1759 0 
L 1125 0 
L 1925 4134 
L 275 4134 
L 378 4666 
z
" transform="scale(0.015625)"/>
     <path id="DejaVuSans-2f" d="M 1625 4666 
L 2156 4666 
L 531 -594 
L 0 -594 
L 1625 4666 
z
" transform="scale(0.015625)"/>
    </defs>
    <use xlink:href="#DejaVuSans-20" transform="translate(0 0.171875)"/>
    <use xlink:href="#DejaVuSans-Oblique-3b3" transform="translate(31.787109 0.171875)"/>
    <use xlink:href="#DejaVuSans-3d" transform="translate(110.449219 0.171875)"/>
    <use xlink:href="#DejaVuSans-31" transform="translate(213.720703 0.171875)"/>
    <use xlink:href="#DejaVuSans-2e" transform="translate(277.34375 0.171875)"/>
    <use xlink:href="#DejaVuSans-30" transform="translate(309.130859 0.171875)"/>
    <use xlink:href="#DejaVuSans-34" transform="translate(372.753906 0.171875)"/>
    <use xlink:href="#DejaVuSans-35" transform="translate(436.376953 0.171875)"/>
    <use xlink:href="#DejaVuSans-32" transform="translate(500 0.171875)"/>
    <use xlink:href="#DejaVuSans-31" transform="translate(563.623047 0.171875)"/>
    <use xlink:href="#DejaVuSans-b1" transform="translate(627.246094 0.171875)"/>
    <use xlink:href="#DejaVuSans-30" transform="translate(711.035156 0.171875)"/>
    <use xlink:href="#DejaVuSans-2e" transform="translate(774.658203 0.171875)"/>
    <use xlink:href="#DejaVuSans-30" transform="translate(806.445312 0.171875)"/>
    <use xlink:href="#DejaVuSans-30" transform="translate(870.068359 0.171875)"/>
    <use xlink:href="#DejaVuSans-33" transform="translate(933.691406 0.171875)"/>
    <use xlink:href="#DejaVuSans-31" transform="translate(997.314453 0.171875)"/>
    <use xlink:href="#DejaVuSans-32" transform="translate(1060.9375 0.171875)"/>
    <use xlink:href="#DejaVuSans-20" transform="translate(1124.560547 0.171875)"/>
    <use xlink:href="#DejaVuSans-Oblique-6b" transform="translate(1156.347656 0.171875)"/>
    <use xlink:href="#DejaVuSans-Oblique-62" transform="translate(1214.257812 -16.234375)scale(0.7)"/>
    <use xlink:href="#DejaVuSans-Oblique-54" transform="translate(1261.425781 0.171875)"/>
    <use xlink:href="#DejaVuSans-2f" transform="translate(1322.509766 0.171875)"/>
    <use xlink:href="#DejaVuSans-Oblique-c5" transform="translate(1356.201172 0.171875)"/>
    <use xlink:href="#DejaVuSans-32" transform="translate(1434.415208 38.453125)scale(0.7)"/>
    <use xlink:href="#DejaVuSans-20" transform="translate(1481.685716 0.171875)"/>
    <use xlink:href="#DejaVuSans-20" transform="translate(1513.472826 0.171875)"/>
    <use xlink:href="#DejaVuSans-43" transform="translate(1545.259935 0.171875)"/>
    <use xlink:href="#DejaVuSans-43" transform="translate(1615.084154 0.171875)"/>
    <use xlink:href="#DejaVuSans-20" transform="translate(1684.908372 0.171875)"/>
    <use xlink:href="#DejaVuSans-3d" transform="translate(1716.695482 0.171875)"/>
    <use xlink:href="#DejaVuSans-20" transform="translate(1800.484544 0.171875)"/>
    <use xlink:href="#DejaVuSans-6e" transform="translate(1832.271654 0.171875)"/>
    <use xlink:href="#DejaVuSans-61" transform="translate(1895.65056 0.171875)"/>
    <use xlink:href="#DejaVuSans-6e" transform="translate(1956.929857 0.171875)"/>
   </g>
  </g>
 </g>
 <defs>
  <clipPath id="p2abb6db301">
   <rect x="90" y="43.2" width="558" height="277.2"/>
  </clipPath>
 </defs>
</svg>
