<?xml version="1.0" encoding="utf-8" standalone="no"?>
<!DOCTYPE svg PUBLIC "-//W3C//DTD SVG 1.1//EN"
  "http://www.w3.org/Graphics/SVG/1.1/DTD/svg11.dtd">
<!-- Created with matplotlib (https://matplotlib.org/) -->
<svg height="360pt" version="1.1" viewBox="0 0 720 360" width="720pt" xmlns="http://www.w3.org/2000/svg" xmlns:xlink="http://www.w3.org/1999/xlink">
 <defs>
  <style type="text/css">
*{stroke-linecap:butt;stroke-linejoin:round;}
  </style>
 </defs>
 <g id="figure_1">
  <g id="patch_1">
   <path d="M 0 360 
L 720 360 
L 720 0 
L 0 0 
z
" style="fill:#ffffff;"/>
  </g>
  <g id="axes_1">
   <g id="patch_2">
    <path d="M 90 320.4 
L 648 320.4 
L 648 43.2 
L 90 43.2 
z
" style="fill:#ffffff;"/>
   </g>
   <g id="matplotlib.axis_1">
    <g id="xtick_1">
     <g id="line2d_1">
      <defs>
       <path d="M 0 0 
L 0 3.5 
" id="mb4b6ef3e1c" style="stroke:#000000;stroke-width:0.8;"/>
      </defs>
      <g>
       <use style="stroke:#000000;stroke-width:0.8;" x="115.363636" xlink:href="#mb4b6ef3e1c" y="320.4"/>
      </g>
     </g>
     <g id="text_1">
      <!-- 0 -->
      <defs>
       <path d="M 31.78125 66.40625 
Q 24.171875 66.40625 20.328125 58.90625 
Q 16.5 51.421875 16.5 36.375 
Q 16.5 21.390625 20.328125 13.890625 
Q 24.171875 6.390625 31.78125 6.390625 
Q 39.453125 6.390625 43.28125 13.890625 
Q 47.125 21.390625 47.125 36.375 
Q 47.125 51.421875 43.28125 58.90625 
Q 39.453125 66.40625 31.78125 66.40625 
z
M 31.78125 74.21875 
Q 44.046875 74.21875 50.515625 64.515625 
Q 56.984375 54.828125 56.984375 36.375 
Q 56.984375 17.96875 50.515625 8.265625 
Q 44.046875 -1.421875 31.78125 -1.421875 
Q 19.53125 -1.421875 13.0625 8.265625 
Q 6.59375 17.96875 6.59375 36.375 
Q 6.59375 54.828125 13.0625 64.515625 
Q 19.53125 74.21875 31.78125 74.21875 
z
" id="DejaVuSans-48"/>
      </defs>
      <g transform="translate(112.818636 333.47875)scale(0.08 -0.08)">
       <use xlink:href="#DejaVuSans-48"/>
      </g>
     </g>
    </g>
    <g id="xtick_2">
     <g id="line2d_2">
      <g>
       <use style="stroke:#000000;stroke-width:0.8;" x="207.678964" xlink:href="#mb4b6ef3e1c" y="320.4"/>
      </g>
     </g>
     <g id="text_2">
      <!-- 200 -->
      <defs>
       <path d="M 19.1875 8.296875 
L 53.609375 8.296875 
L 53.609375 0 
L 7.328125 0 
L 7.328125 8.296875 
Q 12.9375 14.109375 22.625 23.890625 
Q 32.328125 33.6875 34.8125 36.53125 
Q 39.546875 41.84375 41.421875 45.53125 
Q 43.3125 49.21875 43.3125 52.78125 
Q 43.3125 58.59375 39.234375 62.25 
Q 35.15625 65.921875 28.609375 65.921875 
Q 23.96875 65.921875 18.8125 64.3125 
Q 13.671875 62.703125 7.8125 59.421875 
L 7.8125 69.390625 
Q 13.765625 71.78125 18.9375 73 
Q 24.125 74.21875 28.421875 74.21875 
Q 39.75 74.21875 46.484375 68.546875 
Q 53.21875 62.890625 53.21875 53.421875 
Q 53.21875 48.921875 51.53125 44.890625 
Q 49.859375 40.875 45.40625 35.40625 
Q 44.1875 33.984375 37.640625 27.21875 
Q 31.109375 20.453125 19.1875 8.296875 
z
" id="DejaVuSans-50"/>
      </defs>
      <g transform="translate(200.043964 333.47875)scale(0.08 -0.08)">
       <use xlink:href="#DejaVuSans-50"/>
       <use x="63.623047" xlink:href="#DejaVuSans-48"/>
       <use x="127.246094" xlink:href="#DejaVuSans-48"/>
      </g>
     </g>
    </g>
    <g id="xtick_3">
     <g id="line2d_3">
      <g>
       <use style="stroke:#000000;stroke-width:0.8;" x="299.994292" xlink:href="#mb4b6ef3e1c" y="320.4"/>
      </g>
     </g>
     <g id="text_3">
      <!-- 400 -->
      <defs>
       <path d="M 37.796875 64.3125 
L 12.890625 25.390625 
L 37.796875 25.390625 
z
M 35.203125 72.90625 
L 47.609375 72.90625 
L 47.609375 25.390625 
L 58.015625 25.390625 
L 58.015625 17.1875 
L 47.609375 17.1875 
L 47.609375 0 
L 37.796875 0 
L 37.796875 17.1875 
L 4.890625 17.1875 
L 4.890625 26.703125 
z
" id="DejaVuSans-52"/>
      </defs>
      <g transform="translate(292.359292 333.47875)scale(0.08 -0.08)">
       <use xlink:href="#DejaVuSans-52"/>
       <use x="63.623047" xlink:href="#DejaVuSans-48"/>
       <use x="127.246094" xlink:href="#DejaVuSans-48"/>
      </g>
     </g>
    </g>
    <g id="xtick_4">
     <g id="line2d_4">
      <g>
       <use style="stroke:#000000;stroke-width:0.8;" x="392.30962" xlink:href="#mb4b6ef3e1c" y="320.4"/>
      </g>
     </g>
     <g id="text_4">
      <!-- 600 -->
      <defs>
       <path d="M 33.015625 40.375 
Q 26.375 40.375 22.484375 35.828125 
Q 18.609375 31.296875 18.609375 23.390625 
Q 18.609375 15.53125 22.484375 10.953125 
Q 26.375 6.390625 33.015625 6.390625 
Q 39.65625 6.390625 43.53125 10.953125 
Q 47.40625 15.53125 47.40625 23.390625 
Q 47.40625 31.296875 43.53125 35.828125 
Q 39.65625 40.375 33.015625 40.375 
z
M 52.59375 71.296875 
L 52.59375 62.3125 
Q 48.875 64.0625 45.09375 64.984375 
Q 41.3125 65.921875 37.59375 65.921875 
Q 27.828125 65.921875 22.671875 59.328125 
Q 17.53125 52.734375 16.796875 39.40625 
Q 19.671875 43.65625 24.015625 45.921875 
Q 28.375 48.1875 33.59375 48.1875 
Q 44.578125 48.1875 50.953125 41.515625 
Q 57.328125 34.859375 57.328125 23.390625 
Q 57.328125 12.15625 50.6875 5.359375 
Q 44.046875 -1.421875 33.015625 -1.421875 
Q 20.359375 -1.421875 13.671875 8.265625 
Q 6.984375 17.96875 6.984375 36.375 
Q 6.984375 53.65625 15.1875 63.9375 
Q 23.390625 74.21875 37.203125 74.21875 
Q 40.921875 74.21875 44.703125 73.484375 
Q 48.484375 72.75 52.59375 71.296875 
z
" id="DejaVuSans-54"/>
      </defs>
      <g transform="translate(384.67462 333.47875)scale(0.08 -0.08)">
       <use xlink:href="#DejaVuSans-54"/>
       <use x="63.623047" xlink:href="#DejaVuSans-48"/>
       <use x="127.246094" xlink:href="#DejaVuSans-48"/>
      </g>
     </g>
    </g>
    <g id="xtick_5">
     <g id="line2d_5">
      <g>
       <use style="stroke:#000000;stroke-width:0.8;" x="484.624948" xlink:href="#mb4b6ef3e1c" y="320.4"/>
      </g>
     </g>
     <g id="text_5">
      <!-- 800 -->
      <defs>
       <path d="M 31.78125 34.625 
Q 24.75 34.625 20.71875 30.859375 
Q 16.703125 27.09375 16.703125 20.515625 
Q 16.703125 13.921875 20.71875 10.15625 
Q 24.75 6.390625 31.78125 6.390625 
Q 38.8125 6.390625 42.859375 10.171875 
Q 46.921875 13.96875 46.921875 20.515625 
Q 46.921875 27.09375 42.890625 30.859375 
Q 38.875 34.625 31.78125 34.625 
z
M 21.921875 38.8125 
Q 15.578125 40.375 12.03125 44.71875 
Q 8.5 49.078125 8.5 55.328125 
Q 8.5 64.0625 14.71875 69.140625 
Q 20.953125 74.21875 31.78125 74.21875 
Q 42.671875 74.21875 48.875 69.140625 
Q 55.078125 64.0625 55.078125 55.328125 
Q 55.078125 49.078125 51.53125 44.71875 
Q 48 40.375 41.703125 38.8125 
Q 48.828125 37.15625 52.796875 32.3125 
Q 56.78125 27.484375 56.78125 20.515625 
Q 56.78125 9.90625 50.3125 4.234375 
Q 43.84375 -1.421875 31.78125 -1.421875 
Q 19.734375 -1.421875 13.25 4.234375 
Q 6.78125 9.90625 6.78125 20.515625 
Q 6.78125 27.484375 10.78125 32.3125 
Q 14.796875 37.15625 21.921875 38.8125 
z
M 18.3125 54.390625 
Q 18.3125 48.734375 21.84375 45.5625 
Q 25.390625 42.390625 31.78125 42.390625 
Q 38.140625 42.390625 41.71875 45.5625 
Q 45.3125 48.734375 45.3125 54.390625 
Q 45.3125 60.0625 41.71875 63.234375 
Q 38.140625 66.40625 31.78125 66.40625 
Q 25.390625 66.40625 21.84375 63.234375 
Q 18.3125 60.0625 18.3125 54.390625 
z
" id="DejaVuSans-56"/>
      </defs>
      <g transform="translate(476.989948 333.47875)scale(0.08 -0.08)">
       <use xlink:href="#DejaVuSans-56"/>
       <use x="63.623047" xlink:href="#DejaVuSans-48"/>
       <use x="127.246094" xlink:href="#DejaVuSans-48"/>
      </g>
     </g>
    </g>
    <g id="xtick_6">
     <g id="line2d_6">
      <g>
       <use style="stroke:#000000;stroke-width:0.8;" x="576.940276" xlink:href="#mb4b6ef3e1c" y="320.4"/>
      </g>
     </g>
     <g id="text_6">
      <!-- 1000 -->
      <defs>
       <path d="M 12.40625 8.296875 
L 28.515625 8.296875 
L 28.515625 63.921875 
L 10.984375 60.40625 
L 10.984375 69.390625 
L 28.421875 72.90625 
L 38.28125 72.90625 
L 38.28125 8.296875 
L 54.390625 8.296875 
L 54.390625 0 
L 12.40625 0 
z
" id="DejaVuSans-49"/>
      </defs>
      <g transform="translate(566.760276 333.47875)scale(0.08 -0.08)">
       <use xlink:href="#DejaVuSans-49"/>
       <use x="63.623047" xlink:href="#DejaVuSans-48"/>
       <use x="127.246094" xlink:href="#DejaVuSans-48"/>
       <use x="190.869141" xlink:href="#DejaVuSans-48"/>
      </g>
     </g>
    </g>
    <g id="text_7">
     <!-- Residue Number -->
     <defs>
      <path d="M 44.390625 34.1875 
Q 47.5625 33.109375 50.5625 29.59375 
Q 53.5625 26.078125 56.59375 19.921875 
L 66.609375 0 
L 56 0 
L 46.6875 18.703125 
Q 43.0625 26.03125 39.671875 28.421875 
Q 36.28125 30.8125 30.421875 30.8125 
L 19.671875 30.8125 
L 19.671875 0 
L 9.8125 0 
L 9.8125 72.90625 
L 32.078125 72.90625 
Q 44.578125 72.90625 50.734375 67.671875 
Q 56.890625 62.453125 56.890625 51.90625 
Q 56.890625 45.015625 53.6875 40.46875 
Q 50.484375 35.9375 44.390625 34.1875 
z
M 19.671875 64.796875 
L 19.671875 38.921875 
L 32.078125 38.921875 
Q 39.203125 38.921875 42.84375 42.21875 
Q 46.484375 45.515625 46.484375 51.90625 
Q 46.484375 58.296875 42.84375 61.546875 
Q 39.203125 64.796875 32.078125 64.796875 
z
" id="DejaVuSans-82"/>
      <path d="M 56.203125 29.59375 
L 56.203125 25.203125 
L 14.890625 25.203125 
Q 15.484375 15.921875 20.484375 11.0625 
Q 25.484375 6.203125 34.421875 6.203125 
Q 39.59375 6.203125 44.453125 7.46875 
Q 49.3125 8.734375 54.109375 11.28125 
L 54.109375 2.78125 
Q 49.265625 0.734375 44.1875 -0.34375 
Q 39.109375 -1.421875 33.890625 -1.421875 
Q 20.796875 -1.421875 13.15625 6.1875 
Q 5.515625 13.8125 5.515625 26.8125 
Q 5.515625 40.234375 12.765625 48.109375 
Q 20.015625 56 32.328125 56 
Q 43.359375 56 49.78125 48.890625 
Q 56.203125 41.796875 56.203125 29.59375 
z
M 47.21875 32.234375 
Q 47.125 39.59375 43.09375 43.984375 
Q 39.0625 48.390625 32.421875 48.390625 
Q 24.90625 48.390625 20.390625 44.140625 
Q 15.875 39.890625 15.1875 32.171875 
z
" id="DejaVuSans-101"/>
      <path d="M 44.28125 53.078125 
L 44.28125 44.578125 
Q 40.484375 46.53125 36.375 47.5 
Q 32.28125 48.484375 27.875 48.484375 
Q 21.1875 48.484375 17.84375 46.4375 
Q 14.5 44.390625 14.5 40.28125 
Q 14.5 37.15625 16.890625 35.375 
Q 19.28125 33.59375 26.515625 31.984375 
L 29.59375 31.296875 
Q 39.15625 29.25 43.1875 25.515625 
Q 47.21875 21.78125 47.21875 15.09375 
Q 47.21875 7.46875 41.1875 3.015625 
Q 35.15625 -1.421875 24.609375 -1.421875 
Q 20.21875 -1.421875 15.453125 -0.5625 
Q 10.6875 0.296875 5.421875 2 
L 5.421875 11.28125 
Q 10.40625 8.6875 15.234375 7.390625 
Q 20.0625 6.109375 24.8125 6.109375 
Q 31.15625 6.109375 34.5625 8.28125 
Q 37.984375 10.453125 37.984375 14.40625 
Q 37.984375 18.0625 35.515625 20.015625 
Q 33.0625 21.96875 24.703125 23.78125 
L 21.578125 24.515625 
Q 13.234375 26.265625 9.515625 29.90625 
Q 5.8125 33.546875 5.8125 39.890625 
Q 5.8125 47.609375 11.28125 51.796875 
Q 16.75 56 26.8125 56 
Q 31.78125 56 36.171875 55.265625 
Q 40.578125 54.546875 44.28125 53.078125 
z
" id="DejaVuSans-115"/>
      <path d="M 9.421875 54.6875 
L 18.40625 54.6875 
L 18.40625 0 
L 9.421875 0 
z
M 9.421875 75.984375 
L 18.40625 75.984375 
L 18.40625 64.59375 
L 9.421875 64.59375 
z
" id="DejaVuSans-105"/>
      <path d="M 45.40625 46.390625 
L 45.40625 75.984375 
L 54.390625 75.984375 
L 54.390625 0 
L 45.40625 0 
L 45.40625 8.203125 
Q 42.578125 3.328125 38.25 0.953125 
Q 33.9375 -1.421875 27.875 -1.421875 
Q 17.96875 -1.421875 11.734375 6.484375 
Q 5.515625 14.40625 5.515625 27.296875 
Q 5.515625 40.1875 11.734375 48.09375 
Q 17.96875 56 27.875 56 
Q 33.9375 56 38.25 53.625 
Q 42.578125 51.265625 45.40625 46.390625 
z
M 14.796875 27.296875 
Q 14.796875 17.390625 18.875 11.75 
Q 22.953125 6.109375 30.078125 6.109375 
Q 37.203125 6.109375 41.296875 11.75 
Q 45.40625 17.390625 45.40625 27.296875 
Q 45.40625 37.203125 41.296875 42.84375 
Q 37.203125 48.484375 30.078125 48.484375 
Q 22.953125 48.484375 18.875 42.84375 
Q 14.796875 37.203125 14.796875 27.296875 
z
" id="DejaVuSans-100"/>
      <path d="M 8.5 21.578125 
L 8.5 54.6875 
L 17.484375 54.6875 
L 17.484375 21.921875 
Q 17.484375 14.15625 20.5 10.265625 
Q 23.53125 6.390625 29.59375 6.390625 
Q 36.859375 6.390625 41.078125 11.03125 
Q 45.3125 15.671875 45.3125 23.6875 
L 45.3125 54.6875 
L 54.296875 54.6875 
L 54.296875 0 
L 45.3125 0 
L 45.3125 8.40625 
Q 42.046875 3.421875 37.71875 1 
Q 33.40625 -1.421875 27.6875 -1.421875 
Q 18.265625 -1.421875 13.375 4.4375 
Q 8.5 10.296875 8.5 21.578125 
z
M 31.109375 56 
z
" id="DejaVuSans-117"/>
      <path id="DejaVuSans-32"/>
      <path d="M 9.8125 72.90625 
L 23.09375 72.90625 
L 55.421875 11.921875 
L 55.421875 72.90625 
L 64.984375 72.90625 
L 64.984375 0 
L 51.703125 0 
L 19.390625 60.984375 
L 19.390625 0 
L 9.8125 0 
z
" id="DejaVuSans-78"/>
      <path d="M 52 44.1875 
Q 55.375 50.25 60.0625 53.125 
Q 64.75 56 71.09375 56 
Q 79.640625 56 84.28125 50.015625 
Q 88.921875 44.046875 88.921875 33.015625 
L 88.921875 0 
L 79.890625 0 
L 79.890625 32.71875 
Q 79.890625 40.578125 77.09375 44.375 
Q 74.3125 48.1875 68.609375 48.1875 
Q 61.625 48.1875 57.5625 43.546875 
Q 53.515625 38.921875 53.515625 30.90625 
L 53.515625 0 
L 44.484375 0 
L 44.484375 32.71875 
Q 44.484375 40.625 41.703125 44.40625 
Q 38.921875 48.1875 33.109375 48.1875 
Q 26.21875 48.1875 22.15625 43.53125 
Q 18.109375 38.875 18.109375 30.90625 
L 18.109375 0 
L 9.078125 0 
L 9.078125 54.6875 
L 18.109375 54.6875 
L 18.109375 46.1875 
Q 21.1875 51.21875 25.484375 53.609375 
Q 29.78125 56 35.6875 56 
Q 41.65625 56 45.828125 52.96875 
Q 50 49.953125 52 44.1875 
z
" id="DejaVuSans-109"/>
      <path d="M 48.6875 27.296875 
Q 48.6875 37.203125 44.609375 42.84375 
Q 40.53125 48.484375 33.40625 48.484375 
Q 26.265625 48.484375 22.1875 42.84375 
Q 18.109375 37.203125 18.109375 27.296875 
Q 18.109375 17.390625 22.1875 11.75 
Q 26.265625 6.109375 33.40625 6.109375 
Q 40.53125 6.109375 44.609375 11.75 
Q 48.6875 17.390625 48.6875 27.296875 
z
M 18.109375 46.390625 
Q 20.953125 51.265625 25.265625 53.625 
Q 29.59375 56 35.59375 56 
Q 45.5625 56 51.78125 48.09375 
Q 58.015625 40.1875 58.015625 27.296875 
Q 58.015625 14.40625 51.78125 6.484375 
Q 45.5625 -1.421875 35.59375 -1.421875 
Q 29.59375 -1.421875 25.265625 0.953125 
Q 20.953125 3.328125 18.109375 8.203125 
L 18.109375 0 
L 9.078125 0 
L 9.078125 75.984375 
L 18.109375 75.984375 
z
" id="DejaVuSans-98"/>
      <path d="M 41.109375 46.296875 
Q 39.59375 47.171875 37.8125 47.578125 
Q 36.03125 48 33.890625 48 
Q 26.265625 48 22.1875 43.046875 
Q 18.109375 38.09375 18.109375 28.8125 
L 18.109375 0 
L 9.078125 0 
L 9.078125 54.6875 
L 18.109375 54.6875 
L 18.109375 46.1875 
Q 20.953125 51.171875 25.484375 53.578125 
Q 30.03125 56 36.53125 56 
Q 37.453125 56 38.578125 55.875 
Q 39.703125 55.765625 41.0625 55.515625 
z
" id="DejaVuSans-114"/>
     </defs>
     <g transform="translate(319.036875 348.260625)scale(0.12 -0.12)">
      <use xlink:href="#DejaVuSans-82"/>
      <use x="69.419922" xlink:href="#DejaVuSans-101"/>
      <use x="130.943359" xlink:href="#DejaVuSans-115"/>
      <use x="183.042969" xlink:href="#DejaVuSans-105"/>
      <use x="210.826172" xlink:href="#DejaVuSans-100"/>
      <use x="274.302734" xlink:href="#DejaVuSans-117"/>
      <use x="337.681641" xlink:href="#DejaVuSans-101"/>
      <use x="399.205078" xlink:href="#DejaVuSans-32"/>
      <use x="430.992188" xlink:href="#DejaVuSans-78"/>
      <use x="505.796875" xlink:href="#DejaVuSans-117"/>
      <use x="569.175781" xlink:href="#DejaVuSans-109"/>
      <use x="666.587891" xlink:href="#DejaVuSans-98"/>
      <use x="730.064453" xlink:href="#DejaVuSans-101"/>
      <use x="791.587891" xlink:href="#DejaVuSans-114"/>
     </g>
    </g>
   </g>
   <g id="matplotlib.axis_2">
    <g id="ytick_1">
     <g id="line2d_7">
      <defs>
       <path d="M 0 0 
L -3.5 0 
" id="mc818ea75d5" style="stroke:#000000;stroke-width:0.8;"/>
      </defs>
      <g>
       <use style="stroke:#000000;stroke-width:0.8;" x="90" xlink:href="#mc818ea75d5" y="290.334164"/>
      </g>
     </g>
     <g id="text_8">
      <!-- 250 -->
      <defs>
       <path d="M 10.796875 72.90625 
L 49.515625 72.90625 
L 49.515625 64.59375 
L 19.828125 64.59375 
L 19.828125 46.734375 
Q 21.96875 47.46875 24.109375 47.828125 
Q 26.265625 48.1875 28.421875 48.1875 
Q 40.625 48.1875 47.75 41.5 
Q 54.890625 34.8125 54.890625 23.390625 
Q 54.890625 11.625 47.5625 5.09375 
Q 40.234375 -1.421875 26.90625 -1.421875 
Q 22.3125 -1.421875 17.546875 -0.640625 
Q 12.796875 0.140625 7.71875 1.703125 
L 7.71875 11.625 
Q 12.109375 9.234375 16.796875 8.0625 
Q 21.484375 6.890625 26.703125 6.890625 
Q 35.15625 6.890625 40.078125 11.328125 
Q 45.015625 15.765625 45.015625 23.390625 
Q 45.015625 31 40.078125 35.4375 
Q 35.15625 39.890625 26.703125 39.890625 
Q 22.75 39.890625 18.8125 39.015625 
Q 14.890625 38.140625 10.796875 36.28125 
z
" id="DejaVuSans-53"/>
      </defs>
      <g transform="translate(67.73 293.373539)scale(0.08 -0.08)">
       <use xlink:href="#DejaVuSans-50"/>
       <use x="63.623047" xlink:href="#DejaVuSans-53"/>
       <use x="127.246094" xlink:href="#DejaVuSans-48"/>
      </g>
     </g>
    </g>
    <g id="ytick_2">
     <g id="line2d_8">
      <g>
       <use style="stroke:#000000;stroke-width:0.8;" x="90" xlink:href="#mc818ea75d5" y="229.422528"/>
      </g>
     </g>
     <g id="text_9">
      <!-- 300 -->
      <defs>
       <path d="M 40.578125 39.3125 
Q 47.65625 37.796875 51.625 33 
Q 55.609375 28.21875 55.609375 21.1875 
Q 55.609375 10.40625 48.1875 4.484375 
Q 40.765625 -1.421875 27.09375 -1.421875 
Q 22.515625 -1.421875 17.65625 -0.515625 
Q 12.796875 0.390625 7.625 2.203125 
L 7.625 11.71875 
Q 11.71875 9.328125 16.59375 8.109375 
Q 21.484375 6.890625 26.8125 6.890625 
Q 36.078125 6.890625 40.9375 10.546875 
Q 45.796875 14.203125 45.796875 21.1875 
Q 45.796875 27.640625 41.28125 31.265625 
Q 36.765625 34.90625 28.71875 34.90625 
L 20.21875 34.90625 
L 20.21875 43.015625 
L 29.109375 43.015625 
Q 36.375 43.015625 40.234375 45.921875 
Q 44.09375 48.828125 44.09375 54.296875 
Q 44.09375 59.90625 40.109375 62.90625 
Q 36.140625 65.921875 28.71875 65.921875 
Q 24.65625 65.921875 20.015625 65.03125 
Q 15.375 64.15625 9.8125 62.3125 
L 9.8125 71.09375 
Q 15.4375 72.65625 20.34375 73.4375 
Q 25.25 74.21875 29.59375 74.21875 
Q 40.828125 74.21875 47.359375 69.109375 
Q 53.90625 64.015625 53.90625 55.328125 
Q 53.90625 49.265625 50.4375 45.09375 
Q 46.96875 40.921875 40.578125 39.3125 
z
" id="DejaVuSans-51"/>
      </defs>
      <g transform="translate(67.73 232.461903)scale(0.08 -0.08)">
       <use xlink:href="#DejaVuSans-51"/>
       <use x="63.623047" xlink:href="#DejaVuSans-48"/>
       <use x="127.246094" xlink:href="#DejaVuSans-48"/>
      </g>
     </g>
    </g>
    <g id="ytick_3">
     <g id="line2d_9">
      <g>
       <use style="stroke:#000000;stroke-width:0.8;" x="90" xlink:href="#mc818ea75d5" y="168.510891"/>
      </g>
     </g>
     <g id="text_10">
      <!-- 350 -->
      <g transform="translate(67.73 171.550266)scale(0.08 -0.08)">
       <use xlink:href="#DejaVuSans-51"/>
       <use x="63.623047" xlink:href="#DejaVuSans-53"/>
       <use x="127.246094" xlink:href="#DejaVuSans-48"/>
      </g>
     </g>
    </g>
    <g id="ytick_4">
     <g id="line2d_10">
      <g>
       <use style="stroke:#000000;stroke-width:0.8;" x="90" xlink:href="#mc818ea75d5" y="107.599255"/>
      </g>
     </g>
     <g id="text_11">
      <!-- 400 -->
      <g transform="translate(67.73 110.63863)scale(0.08 -0.08)">
       <use xlink:href="#DejaVuSans-52"/>
       <use x="63.623047" xlink:href="#DejaVuSans-48"/>
       <use x="127.246094" xlink:href="#DejaVuSans-48"/>
      </g>
     </g>
    </g>
    <g id="ytick_5">
     <g id="line2d_11">
      <g>
       <use style="stroke:#000000;stroke-width:0.8;" x="90" xlink:href="#mc818ea75d5" y="46.687619"/>
      </g>
     </g>
     <g id="text_12">
      <!-- 450 -->
      <g transform="translate(67.73 49.726994)scale(0.08 -0.08)">
       <use xlink:href="#DejaVuSans-52"/>
       <use x="63.623047" xlink:href="#DejaVuSans-53"/>
       <use x="127.246094" xlink:href="#DejaVuSans-48"/>
      </g>
     </g>
    </g>
    <g id="text_13">
     <!-- $Å^{2}$ -->
     <defs>
      <path d="M 49.8125 79.390625 
Q 49.8125 82.46875 47.625 84.640625 
Q 45.453125 86.8125 42.390625 86.8125 
Q 39.265625 86.8125 37.140625 84.6875 
Q 35.015625 82.5625 35.015625 79.390625 
Q 35.015625 76.3125 37.140625 74.15625 
Q 39.265625 72.015625 42.390625 72.015625 
Q 45.453125 72.015625 47.625 74.15625 
Q 49.8125 76.3125 49.8125 79.390625 
z
M 34.421875 68.703125 
Q 31.78125 70.515625 30.390625 73.265625 
Q 29 76.03125 29 79.390625 
Q 29 84.96875 32.90625 88.890625 
Q 36.8125 92.828125 42.390625 92.828125 
Q 47.953125 92.828125 51.875 88.890625 
Q 55.8125 84.96875 55.8125 79.390625 
Q 55.8125 75.53125 54.03125 72.546875 
Q 52.25 69.578125 48.875 67.828125 
L 61.53125 0 
L 51.21875 0 
L 48.1875 18.703125 
L 15.375 18.703125 
L 5.078125 0 
L -5.328125 0 
z
M 40.375 63.1875 
L 19.921875 26.90625 
L 46.6875 26.90625 
z
" id="DejaVuSans-Oblique-197"/>
     </defs>
     <g transform="translate(61.234375 189.36)rotate(-90)scale(0.12 -0.12)">
      <use transform="translate(0 0.171875)" xlink:href="#DejaVuSans-Oblique-197"/>
      <use transform="translate(78.214036 38.453125)scale(0.7)" xlink:href="#DejaVuSans-50"/>
     </g>
    </g>
   </g>
   <g id="line2d_12">
    <path clip-path="url(#p447bab639e)" d="M 115.363636 216.19252 
L 115.825213 216.143791 
L 117.209943 214.292077 
L 117.67152 213.975337 
L 118.594673 212.440363 
L 119.056249 211.06376 
L 119.517826 209.1755 
L 122.287286 193.167922 
L 122.748863 191.230932 
L 123.210439 190.037064 
L 123.672016 189.75687 
L 124.133593 190.633998 
L 125.056746 194.909995 
L 125.518322 197.919029 
L 125.979899 199.929113 
L 126.441476 200.355495 
L 126.903052 199.990025 
L 127.364629 200.124031 
L 127.826206 200.842788 
L 128.287782 201.244805 
L 128.749359 200.282401 
L 129.210936 198.747428 
L 129.672512 198.016488 
L 130.134089 197.724112 
L 130.595665 197.992123 
L 131.518819 200.136213 
L 131.980395 200.221489 
L 132.441972 199.929113 
L 132.903549 200.526047 
L 133.365125 200.708782 
L 133.826702 200.063119 
L 134.288279 200.17276 
L 134.749855 201.06207 
L 135.211432 201.37881 
L 135.673009 201.42754 
L 136.134585 202.255938 
L 137.057738 204.631492 
L 137.519315 205.277155 
L 137.980892 205.216243 
L 138.442468 206.471023 
L 138.904045 208.432378 
L 139.365622 209.151135 
L 139.827198 209.382599 
L 140.288775 210.308456 
L 141.673505 215.071746 
L 142.135081 215.400669 
L 142.596658 215.924509 
L 143.058235 216.618902 
L 143.519811 216.862548 
L 144.442965 218.957908 
L 145.366118 221.126363 
L 145.827695 222.21059 
L 146.289271 223.928298 
L 147.212425 225.292719 
L 147.674001 226.194211 
L 148.135578 225.987111 
L 148.597154 226.08457 
L 149.058731 227.278438 
L 149.520308 227.838825 
L 149.981884 228.070289 
L 150.443461 228.460124 
L 150.905038 228.496671 
L 151.366614 229.288522 
L 152.751344 235.538056 
L 153.212921 236.317725 
L 153.674497 237.609051 
L 154.136074 237.694328 
L 155.059227 235.45278 
L 155.520804 235.379686 
L 155.982381 236.390819 
L 157.828687 241.909413 
L 158.290264 242.62817 
L 158.751841 242.603806 
L 159.674994 243.018005 
L 160.13657 243.407839 
L 160.598147 242.725629 
L 161.5213 239.448583 
L 162.90603 235.464962 
L 163.367607 233.272143 
L 163.829184 232.748303 
L 164.29076 231.517888 
L 164.752337 229.934185 
L 166.137067 223.148629 
L 167.06022 220.809622 
L 167.983373 215.863597 
L 169.82968 210.101357 
L 170.752833 204.741133 
L 171.675986 198.75961 
L 173.060716 192.644082 
L 174.907023 183.007861 
L 176.291753 177.135979 
L 177.676483 168.754538 
L 179.522789 158.484836 
L 179.984366 155.390525 
L 180.445943 153.051518 
L 181.369096 147.66693 
L 181.830673 146.533973 
L 182.292249 143.646762 
L 184.138556 127.773189 
L 185.523286 119.038461 
L 188.292745 106.198288 
L 188.754322 104.151657 
L 189.215899 103.432899 
L 189.677475 104.017651 
L 190.600629 103.359805 
L 191.062205 100.76497 
L 191.985359 93.69922 
L 192.908512 88.643554 
L 193.831665 84.927944 
L 194.754818 78.471311 
L 196.139548 65.302215 
L 196.601125 61.842434 
L 197.062702 59.625251 
L 197.524278 58.053731 
L 197.985855 56.884227 
L 198.447432 56.068011 
L 198.909008 56.226381 
L 199.370585 56.226381 
L 199.832161 55.8 
L 200.293738 56.567487 
L 201.216891 59.247599 
L 201.678468 61.123677 
L 203.524775 71.027909 
L 203.986351 76.022663 
L 204.909505 90.093251 
L 206.294234 106.125194 
L 207.217388 120.853627 
L 209.525271 150.152124 
L 210.448424 160.628926 
L 211.371577 172.774706 
L 212.294731 180.924683 
L 213.679461 195.153641 
L 214.602614 201.159528 
L 215.525767 208.152184 
L 215.987344 210.771385 
L 216.448921 212.647463 
L 216.910497 212.988568 
L 217.372074 212.16017 
L 218.756804 207.774532 
L 219.21838 205.106602 
L 219.679957 201.707733 
L 220.141534 199.161627 
L 220.60311 199.819472 
L 221.064687 201.95138 
L 221.526264 203.230524 
L 221.98784 203.059971 
L 222.449417 203.023424 
L 222.910993 203.949281 
L 224.295723 208.274008 
L 224.7573 210.186633 
L 227.065183 226.437857 
L 227.988337 231.603164 
L 229.373066 238.413085 
L 230.757796 239.655682 
L 231.219373 239.11966 
L 232.142526 234.076177 
L 233.06568 228.265206 
L 233.988833 223.550646 
L 235.373563 213.877878 
L 235.835139 209.845528 
L 239.527753 157.814808 
L 239.989329 152.405855 
L 240.450906 149.03135 
L 240.912482 147.350189 
L 241.374059 146.631432 
L 241.835636 146.655796 
L 242.297212 242.786541 
L 243.220366 241.178473 
L 243.681942 240.459716 
L 244.605096 240.082064 
L 245.066672 239.48513 
L 245.989825 239.204936 
L 246.912979 236.65883 
L 248.297709 233.613248 
L 248.759285 233.588883 
L 249.220862 234.258911 
L 249.682439 235.525874 
L 250.605592 238.96129 
L 251.528745 243.834221 
L 251.990322 245.089 
L 252.913475 245.710299 
L 253.836628 247.269637 
L 254.759782 249.803561 
L 255.221358 249.767014 
L 255.682935 248.694969 
L 256.606088 246.014857 
L 257.529241 244.309331 
L 257.990818 244.504249 
L 258.452395 245.162094 
L 258.913971 244.979359 
L 259.375548 245.235188 
L 259.837125 245.734664 
L 260.298701 245.685934 
L 261.683431 243.846403 
L 262.145008 242.347977 
L 262.606584 241.994689 
L 263.991314 244.431155 
L 264.452891 244.467702 
L 264.914468 244.954995 
L 265.837621 249.133533 
L 266.299198 250.363948 
L 267.222351 251.740551 
L 268.607081 252.934419 
L 269.530234 251.935468 
L 269.991811 251.691822 
L 270.453387 252.081656 
L 270.914964 252.983148 
L 271.838117 255.577984 
L 272.299694 255.919089 
L 272.761271 255.87036 
L 273.222847 257.173869 
L 273.684424 257.64898 
L 274.146 258.319008 
L 274.607577 258.757572 
L 275.069154 258.550472 
L 275.53073 257.28351 
L 275.992307 256.832764 
L 276.453884 256.040913 
L 276.91546 255.833813 
L 277.377037 256.321106 
L 277.838614 256.55257 
L 278.30019 256.479476 
L 278.761767 257.588068 
L 279.223344 259.646881 
L 279.68492 261.120943 
L 280.146497 262.034618 
L 280.608073 263.216303 
L 281.06965 263.155392 
L 281.531227 262.668099 
L 281.992803 262.509728 
L 282.45438 263.593955 
L 283.377533 268.162328 
L 284.762263 275.422995 
L 285.22384 276.507222 
L 285.685416 276.543769 
L 286.146993 276.239211 
L 286.60857 276.629046 
L 287.070146 277.774184 
L 287.531723 278.371118 
L 287.9933 278.395483 
L 288.454876 278.602583 
L 288.916453 279.150787 
L 289.37803 280.697943 
L 289.839606 281.477612 
L 290.301183 281.453247 
L 291.224336 283.134408 
L 291.685913 283.706978 
L 292.147489 283.682613 
L 292.609066 284.182088 
L 293.532219 286.119078 
L 293.993796 287.471317 
L 294.455373 287.666234 
L 294.916949 287.178941 
L 296.301679 286.789106 
L 296.763256 286.070349 
L 297.686409 283.378055 
L 298.147986 282.610568 
L 298.609562 282.111093 
L 299.071139 281.112142 
L 299.994292 277.189433 
L 300.917446 272.645425 
L 301.379022 270.708435 
L 302.302176 266.274067 
L 302.763752 265.104564 
L 303.686905 263.849784 
L 304.148482 263.508679 
L 304.610059 263.642685 
L 305.071635 263.569591 
L 305.533212 263.009204 
L 305.994789 262.168623 
L 306.456365 261.88843 
L 306.917942 262.595005 
L 307.841095 265.068017 
L 308.302672 265.128929 
L 308.764248 264.836553 
L 309.225825 264.34926 
L 309.687402 263.118845 
L 310.610555 261.985888 
L 311.072132 260.865114 
L 312.456862 259.732158 
L 312.918438 260.048898 
L 313.380015 260.219451 
L 314.303168 259.914893 
L 314.764745 260.609285 
L 315.226321 261.705695 
L 315.687898 262.460999 
L 316.149475 263.484314 
L 316.611051 265.275117 
L 317.072628 265.652769 
L 317.995781 264.885282 
L 318.457358 264.495448 
L 318.918935 264.495448 
L 319.380511 264.775641 
L 319.842088 264.641636 
L 320.765241 263.411221 
L 321.226818 262.253899 
L 321.688394 260.255998 
L 322.149971 257.722074 
L 323.534701 252.88569 
L 324.457854 251.155799 
L 324.919431 249.974114 
L 325.381008 249.133533 
L 325.842584 248.012759 
L 327.227314 245.893034 
L 328.150467 246.246321 
L 328.612044 246.087951 
L 329.073621 246.757979 
L 329.996774 249.462456 
L 330.919927 249.876655 
L 331.381504 250.656324 
L 331.84308 252.166932 
L 332.766234 256.674394 
L 333.22781 258.282461 
L 334.150964 262.668099 
L 334.61254 264.239619 
L 335.074117 265.202023 
L 337.382 271.89012 
L 338.305153 273.376364 
L 338.76673 273.522552 
L 339.228307 273.266723 
L 339.689883 273.327635 
L 340.15146 273.790563 
L 340.613037 273.059624 
L 341.074613 271.134816 
L 341.53619 270.367329 
L 342.459343 269.453655 
L 342.92092 269.319649 
L 343.382496 268.284151 
L 343.844073 267.577576 
L 344.767226 267.187742 
L 345.228803 266.188791 
L 345.69038 264.008155 
L 346.613533 258.428649 
L 347.07511 256.820581 
L 347.536686 257.929173 
L 347.998263 259.622517 
L 348.45984 260.121992 
L 348.921416 260.865114 
L 349.844569 264.081249 
L 350.306146 265.859868 
L 350.767723 267.005007 
L 351.229299 268.966362 
L 352.152453 274.107304 
L 352.614029 274.87479 
L 354.460336 281.879629 
L 355.383489 283.987171 
L 355.845066 284.389188 
L 356.306642 284.060265 
L 356.768219 283.012585 
L 357.691372 280.125373 
L 358.152949 279.004599 
L 358.614526 278.456395 
L 359.537679 275.410813 
L 359.999256 275.325537 
L 360.460832 276.044294 
L 360.922409 276.251393 
L 361.383985 276.190482 
L 362.307139 277.579267 
L 362.768715 278.005649 
L 365.999752 267.236471 
L 366.461328 265.932962 
L 367.384482 262.375723 
L 367.846058 261.267131 
L 368.307635 260.670197 
L 368.769212 260.584921 
L 369.230788 253.446077 
L 369.692365 253.092789 
L 371.538672 245.381376 
L 372.461825 240.496263 
L 374.769708 225.597277 
L 375.231285 223.575011 
L 375.692861 222.770977 
L 376.154438 222.649154 
L 376.616015 223.526281 
L 377.539168 226.949515 
L 378.000744 229.507804 
L 379.385474 239.570406 
L 380.308628 244.150961 
L 381.693358 246.965079 
L 382.154934 247.318366 
L 382.616511 247.038173 
L 383.078088 246.355962 
L 383.539664 245.880852 
L 384.001241 245.649387 
L 384.462817 245.637205 
L 384.924394 245.283918 
L 385.385971 244.760078 
L 385.847547 243.480933 
L 387.232277 236.13499 
L 387.693854 233.174684 
L 388.155431 231.115871 
L 389.078584 228.642859 
L 389.54016 228.399212 
L 390.001737 229.617445 
L 390.463314 231.322971 
L 390.92489 232.175734 
L 391.386467 232.663027 
L 391.848044 233.795983 
L 392.30962 236.037531 
L 394.617504 251.362899 
L 395.07908 253.543535 
L 395.540657 254.798315 
L 396.002233 255.492708 
L 396.46381 256.650029 
L 396.925387 258.245914 
L 397.84854 264.020337 
L 398.771693 270.84244 
L 399.694847 275.532636 
L 401.541153 283.012585 
L 402.925883 285.86325 
L 403.38746 286.143443 
L 404.310613 287.361676 
L 405.233766 289.676318 
L 406.15692 292.210242 
L 406.618496 292.734082 
L 407.080073 292.7219 
L 407.541649 292.478253 
L 408.464803 290.224523 
L 408.926379 288.896649 
L 409.387956 288.774826 
L 409.849533 289.420489 
L 410.311109 290.529081 
L 410.772686 291.223474 
L 411.234263 291.284385 
L 411.695839 291.808225 
L 412.157416 292.551347 
L 412.618992 292.575712 
L 413.080569 292.368612 
L 413.542146 292.88027 
L 414.003722 294.159414 
L 414.465299 294.963448 
L 414.926876 295.194912 
L 415.388452 295.998946 
L 416.311606 298.618146 
L 416.773182 299.483091 
L 417.234759 299.507456 
L 417.696336 300.360219 
L 419.081065 301.286076 
L 420.004219 300.530772 
L 420.927372 299.519638 
L 421.850525 297.448643 
L 422.312102 297.11972 
L 423.235255 297.667925 
L 423.696832 297.607013 
L 424.158408 297.704472 
L 424.619985 297.095355 
L 425.543138 294.646708 
L 426.004715 294.488337 
L 426.466292 295.377647 
L 426.927868 295.694388 
L 428.312598 294.220326 
L 429.235752 292.660988 
L 430.158905 291.869137 
L 431.082058 290.21234 
L 431.543635 289.907782 
L 432.928365 287.763693 
L 433.389941 287.568775 
L 433.851518 287.605322 
L 434.313095 287.38604 
L 434.774671 286.655101 
L 435.236248 285.680515 
L 435.697824 285.193222 
L 436.159401 284.267365 
L 438.005708 277.079792 
L 439.390438 273.802746 
L 439.852014 273.157082 
L 440.775168 269.538931 
L 441.236744 268.832356 
L 441.698321 269.11255 
L 442.159897 269.563296 
L 442.621474 269.770395 
L 443.083051 270.939899 
L 444.006204 274.302221 
L 444.467781 275.228078 
L 445.852511 275.715371 
L 446.314087 275.422995 
L 446.775664 275.301172 
L 447.23724 274.899155 
L 447.698817 274.302221 
L 448.160394 273.327635 
L 449.083547 270.489153 
L 450.0067 266.505532 
L 450.468277 264.568542 
L 451.853007 260.012351 
L 453.699313 250.473589 
L 454.16089 247.732565 
L 454.622467 246.34378 
L 455.084043 245.941763 
L 456.007197 246.355962 
L 457.391927 248.780246 
L 457.853503 250.729418 
L 459.69981 264.800006 
L 461.08454 271.171363 
L 462.930846 278.078743 
L 463.392423 279.504075 
L 465.238729 287.081482 
L 465.700306 288.031704 
L 466.161883 289.249937 
L 467.085036 292.600077 
L 467.546613 293.282287 
L 468.008189 292.953364 
L 468.469766 292.965546 
L 468.931343 293.355381 
L 469.392919 292.928999 
L 469.854496 293.221375 
L 470.316072 293.76958 
L 470.777649 293.184828 
L 471.700802 291.442755 
L 472.623956 288.835737 
L 473.547109 285.838885 
L 474.008686 285.205404 
L 474.470262 284.815569 
L 474.931839 284.864299 
L 476.316569 287.105847 
L 476.778145 288.299715 
L 477.239722 290.017423 
L 477.701299 291.247838 
L 478.162875 291.783861 
L 478.624452 292.892452 
L 479.086029 293.56248 
L 479.547605 293.854856 
L 480.009182 295.012177 
L 480.932335 298.471958 
L 481.855488 301.2008 
L 482.317065 301.51754 
L 482.778642 301.663728 
L 483.240218 302.175386 
L 484.624948 302.918508 
L 485.086525 303.08906 
L 486.009678 301.432264 
L 487.394408 298.337953 
L 487.855985 297.387731 
L 488.317561 295.694388 
L 488.779138 295.365465 
L 489.240715 295.3411 
L 489.702291 295.657841 
L 490.163868 295.621294 
L 491.087021 293.026458 
L 491.548598 292.173695 
L 492.010175 290.675269 
L 492.933328 287.203306 
L 493.394904 286.350543 
L 495.241211 281.25833 
L 495.702788 280.905042 
L 496.164364 204.485304 
L 496.625941 202.986878 
L 497.549094 199.234721 
L 498.472247 197.785024 
L 499.395401 198.540328 
L 499.856977 199.088533 
L 500.318554 198.515963 
L 500.780131 196.82262 
L 501.241707 196.347509 
L 502.164861 198.211405 
L 502.626437 199.234721 
L 503.549591 203.291436 
L 504.011167 206.471023 
L 506.780627 231.1646 
L 508.165357 242.226153 
L 508.626934 244.504249 
L 509.08851 244.894083 
L 509.550087 245.003724 
L 510.011663 245.81994 
L 511.396393 249.279721 
L 511.85797 249.767014 
L 512.319547 249.364997 
L 514.62743 243.566209 
L 515.089007 243.651486 
L 516.01216 242.957093 
L 516.473736 243.432204 
L 516.935313 243.468751 
L 517.39689 242.689082 
L 517.858466 241.531761 
L 518.320043 240.776457 
L 518.78162 240.581539 
L 519.243196 241.251567 
L 520.16635 240.069882 
L 520.627926 240.520628 
L 521.089503 241.543943 
L 522.012656 244.979359 
L 522.474233 247.099084 
L 523.397386 250.266489 
L 524.320539 254.067376 
L 525.243693 261.047849 
L 526.166846 267.394842 
L 526.628423 270.3186 
L 527.089999 272.328684 
L 528.013152 274.058575 
L 528.474729 274.789514 
L 529.859459 274.655509 
L 530.321036 274.058575 
L 531.244189 273.437276 
L 531.705766 273.620011 
L 532.167342 274.411862 
L 534.475225 283.499878 
L 535.398379 284.705929 
L 535.859955 285.729244 
L 537.706262 291.869137 
L 539.090992 294.512702 
L 540.475722 295.170548 
L 540.937298 295.901487 
L 541.398875 296.315686 
L 541.860452 295.962399 
L 543.245182 295.609111 
L 544.168335 293.988862 
L 544.629911 294.756348 
L 545.091488 295.231459 
L 545.553065 295.231459 
L 546.014641 294.780713 
L 546.937795 293.233558 
L 547.399371 293.123917 
L 547.860948 292.709717 
L 548.322525 291.808225 
L 548.784101 291.247838 
L 549.707255 290.821457 
L 550.168831 290.638722 
L 551.091984 289.517948 
L 552.015138 288.250986 
L 552.476714 288.068251 
L 552.938291 288.129162 
L 553.399868 287.75151 
L 554.784598 284.498829 
L 555.707751 282.354739 
L 556.630904 281.233965 
L 557.092481 280.295926 
L 558.015634 278.06656 
L 558.477211 277.530538 
L 558.938787 276.629046 
L 559.400364 276.300123 
L 559.861941 276.446311 
L 560.323517 276.884874 
L 560.785094 277.493991 
L 561.246671 277.615814 
L 561.708247 277.286891 
L 562.169824 276.641228 
L 563.092977 275.910288 
L 564.01613 274.594597 
L 564.939284 271.451556 
L 565.40086 271.20791 
L 565.862437 271.293186 
L 566.324014 270.805893 
L 566.78559 269.977495 
L 568.17032 266.712631 
L 568.631897 266.590808 
L 569.55505 267.321748 
L 570.478203 268.332881 
L 570.93978 267.809041 
L 572.32451 265.226387 
L 572.786087 264.800006 
L 573.70924 263.606138 
L 574.170816 262.631552 
L 575.09397 259.561605 
L 576.4787 254.627763 
L 577.401853 249.718285 
L 577.86343 248.207676 
L 578.786583 247.330549 
L 579.709736 246.197592 
L 580.171313 245.430106 
L 580.632889 244.321514 
L 581.556043 243.066734 
L 582.017619 241.897231 
L 582.479196 241.775407 
L 582.940773 243.054552 
L 584.325503 248.841157 
L 585.248656 250.7416 
L 586.171809 254.225746 
L 587.094962 260.170721 
L 588.018116 265.957327 
L 588.941269 270.282053 
L 589.864422 273.936751 
L 590.787575 278.054378 
L 592.172305 282.403469 
L 592.633882 283.158773 
L 593.557035 283.633884 
L 594.018612 283.56079 
L 594.480189 282.720209 
L 594.941765 281.063413 
L 595.403342 280.393385 
L 595.864919 280.746672 
L 597.249648 284.279547 
L 597.711225 284.4501 
L 598.172802 284.279547 
L 598.634378 284.40137 
L 599.095955 284.169906 
L 599.557532 283.426784 
L 600.480685 280.929407 
L 600.942262 280.247197 
L 601.403838 280.880678 
L 603.250145 285.302863 
L 604.634875 287.605322 
L 605.096451 287.739328 
L 605.558028 288.129162 
L 606.019605 288.372809 
L 606.481181 287.836787 
L 606.942758 288.250986 
L 608.789064 292.405159 
L 609.712218 293.318834 
L 610.173794 293.367563 
L 611.096948 291.954413 
L 611.558524 292.539165 
L 612.020101 292.210242 
L 612.481678 291.126015 
L 612.943254 288.921014 
L 613.404831 286.033802 
L 613.866407 283.950624 
L 614.327984 283.03695 
L 616.174291 278.456395 
L 616.635867 278.005649 
L 618.482174 271.390645 
L 619.866904 267.431389 
L 620.32848 266.322797 
L 621.251634 263.082298 
L 621.71321 261.730059 
L 622.174787 260.743291 
L 622.636364 260.511827 
L 622.636364 260.511827 
" style="fill:none;stroke:#1f77b4;stroke-linecap:square;stroke-width:1.5;"/>
   </g>
   <g id="line2d_13">
    <path clip-path="url(#p447bab639e)" d="M 115.363636 285.996614 
L 116.28679 292.969715 
L 116.748366 296.125161 
L 117.209943 297.460911 
L 117.67152 299.865659 
L 118.133096 295.794153 
L 118.594673 295.606233 
L 119.056249 295.793411 
L 119.979403 287.276637 
L 120.440979 285.627016 
L 120.902556 280.684103 
L 121.364133 278.238774 
L 121.825709 276.732136 
L 122.287286 278.84324 
L 122.748863 277.443605 
L 123.210439 276.710171 
L 123.672016 280.425683 
L 124.133593 280.43695 
L 124.595169 277.540535 
L 125.056746 279.517418 
L 125.518322 283.486091 
L 125.979899 281.306831 
L 126.441476 282.271209 
L 126.903052 283.496689 
L 127.364629 281.696232 
L 127.826206 280.512789 
L 128.287782 280.266617 
L 128.749359 281.798203 
L 129.210936 281.262044 
L 129.672512 284.975364 
L 130.134089 291.670021 
L 130.595665 287.306546 
L 131.980395 302.032917 
L 132.441972 299.167288 
L 132.903549 291.342517 
L 134.288279 279.959293 
L 134.749855 278.12893 
L 135.211432 275.553479 
L 136.134585 273.802022 
L 136.596162 273.672124 
L 137.057738 273.310791 
L 137.519315 273.094892 
L 137.980892 271.768644 
L 138.904045 275.219303 
L 139.365622 277.342314 
L 139.827198 277.535534 
L 140.750352 281.123402 
L 141.211928 284.526112 
L 142.596658 300.499662 
L 143.058235 300.438448 
L 143.519811 294.981039 
L 143.981388 292.368709 
L 144.442965 283.655664 
L 144.904541 277.391385 
L 145.827695 273.800892 
L 146.289271 272.903333 
L 146.750848 273.786392 
L 147.212425 275.3628 
L 147.674001 278.650579 
L 148.135578 279.588945 
L 148.597154 280.791803 
L 149.058731 279.695297 
L 149.520308 280.819293 
L 149.981884 282.404673 
L 150.443461 283.383936 
L 150.905038 283.157287 
L 151.366614 285.159176 
L 152.751344 289.538432 
L 153.212921 289.043196 
L 153.674497 290.294155 
L 154.136074 296.872463 
L 154.597651 294.198059 
L 155.059227 290.116671 
L 155.520804 288.896551 
L 155.982381 288.785643 
L 156.443957 286.74815 
L 156.905534 283.905438 
L 157.367111 284.219223 
L 157.828687 282.773329 
L 158.290264 279.273358 
L 158.751841 278.50279 
L 159.213417 279.104038 
L 159.674994 276.3367 
L 160.13657 274.766826 
L 160.598147 276.332324 
L 161.5213 273.715063 
L 161.982877 274.405941 
L 162.444454 274.842058 
L 162.90603 274.081202 
L 163.829184 276.876121 
L 164.29076 275.167127 
L 164.752337 275.313995 
L 165.213913 277.731821 
L 165.67549 277.552418 
L 166.137067 275.051565 
L 166.598643 275.941532 
L 167.06022 277.948725 
L 167.521797 276.181274 
L 167.983373 273.461088 
L 168.906527 272.149989 
L 169.368103 273.785942 
L 169.82968 274.013494 
L 170.291257 275.259902 
L 170.752833 273.834913 
L 171.21441 273.901593 
L 171.675986 276.683351 
L 172.137563 278.001712 
L 173.060716 273.652198 
L 173.98387 274.983522 
L 174.445446 271.708935 
L 174.907023 269.450699 
L 175.3686 270.972311 
L 175.830176 273.02809 
L 176.291753 275.74606 
L 176.753329 280.996642 
L 177.214906 281.643957 
L 177.676483 277.525425 
L 178.138059 277.08248 
L 178.599636 271.890839 
L 179.061213 276.070108 
L 179.984366 289.992861 
L 180.445943 294.537047 
L 180.907519 292.982685 
L 181.369096 290.911964 
L 181.830673 293.775329 
L 182.292249 295.499381 
L 182.753826 293.111031 
L 183.215402 292.439973 
L 183.676979 294.643681 
L 184.138556 293.472285 
L 184.600132 291.689913 
L 185.061709 292.559654 
L 185.523286 292.970847 
L 185.984862 290.915042 
L 186.446439 290.724512 
L 186.908016 292.207873 
L 187.369592 290.812355 
L 187.831169 291.542419 
L 188.292745 289.720982 
L 188.754322 291.93709 
L 189.215899 292.131565 
L 189.677475 290.51658 
L 190.139052 287.365401 
L 190.600629 287.815277 
L 191.062205 286.865046 
L 191.523782 290.552214 
L 191.985359 289.635688 
L 192.446935 289.061469 
L 192.908512 292.547002 
L 193.370089 293.337806 
L 193.831665 292.449619 
L 194.293242 293.975485 
L 194.754818 297.153726 
L 195.216395 296.179656 
L 195.677972 296.627407 
L 196.139548 298.120505 
L 196.601125 300.539073 
L 197.062702 302.181382 
L 197.524278 305.046244 
L 197.985855 306.225523 
L 198.447432 306.763291 
L 198.909008 306.951736 
L 199.370585 306.464339 
L 199.832161 307.406702 
L 200.293738 307.097428 
L 200.755315 307.8 
L 201.216891 305.734004 
L 201.678468 304.442203 
L 202.140045 304.039863 
L 202.601621 304.367719 
L 203.063198 303.634852 
L 203.524775 301.52339 
L 203.986351 302.8641 
L 204.447928 305.871554 
L 204.909505 303.366361 
L 205.371081 301.545635 
L 205.832658 296.465547 
L 206.294234 292.958634 
L 206.755811 290.393309 
L 207.217388 285.400104 
L 208.602118 278.751945 
L 209.063694 280.826323 
L 209.525271 281.108915 
L 209.986848 285.695799 
L 210.448424 282.928992 
L 210.910001 282.55419 
L 211.371577 285.75013 
L 211.833154 283.596096 
L 212.294731 285.842295 
L 212.756307 284.571499 
L 213.217884 284.712221 
L 213.679461 282.880929 
L 214.141037 282.013265 
L 214.602614 284.023053 
L 215.064191 281.503756 
L 215.525767 281.329791 
L 215.987344 277.10264 
L 216.910497 272.304379 
L 217.372074 271.94387 
L 217.83365 272.350954 
L 218.295227 271.815294 
L 219.21838 279.429766 
L 219.679957 285.95304 
L 220.141534 289.26785 
L 220.60311 297.129785 
L 221.064687 290.979768 
L 222.449417 277.346598 
L 222.910993 278.972796 
L 223.37257 277.222267 
L 223.834147 279.013048 
L 224.295723 276.725311 
L 224.7573 278.989697 
L 225.218877 279.589648 
L 225.680453 278.781834 
L 226.14203 279.103085 
L 226.603607 281.856138 
L 227.065183 279.215102 
L 227.52676 282.215737 
L 227.988337 289.159147 
L 228.449913 290.671638 
L 228.91149 294.428469 
L 229.373066 296.95956 
L 229.834643 294.603042 
L 230.757796 286.048198 
L 231.219373 281.914435 
L 232.604103 273.559507 
L 233.06568 272.098905 
L 233.527256 273.140999 
L 234.450409 278.761499 
L 234.911986 282.946077 
L 235.373563 283.637261 
L 235.835139 287.176797 
L 236.296716 279.80784 
L 236.758293 278.944289 
L 237.219869 278.712924 
L 237.681446 281.489513 
L 238.143023 281.234003 
L 238.604599 282.338551 
L 239.066176 279.557781 
L 239.527753 278.108226 
L 240.450906 270.489657 
L 241.374059 256.01839 
L 241.835636 253.4699 
L 242.297212 265.494258 
L 242.758789 266.88875 
L 243.220366 274.740059 
L 243.681942 276.385374 
L 244.143519 268.684504 
L 244.605096 264.883186 
L 245.066672 264.439146 
L 245.528249 268.777147 
L 245.989825 271.28028 
L 246.451402 268.192435 
L 246.912979 267.176197 
L 247.374555 263.355205 
L 247.836132 267.756156 
L 248.759285 262.090743 
L 249.220862 262.064899 
L 249.682439 265.8036 
L 250.144015 264.690006 
L 250.605592 262.957844 
L 251.067169 266.056171 
L 251.528745 267.498733 
L 251.990322 267.220654 
L 252.451898 265.653832 
L 252.913475 268.627531 
L 253.375052 269.381217 
L 253.836628 269.536966 
L 254.298205 272.117672 
L 254.759782 272.290749 
L 255.221358 274.285821 
L 255.682935 279.976632 
L 256.144512 280.231443 
L 257.067665 294.925588 
L 257.529241 289.305645 
L 257.990818 288.519116 
L 258.452395 291.850719 
L 258.913971 285.496886 
L 259.375548 266.29382 
L 260.298701 240.53544 
L 261.221855 226.107717 
L 261.683431 225.120228 
L 262.145008 229.038363 
L 262.606584 227.959582 
L 263.991314 242.099915 
L 264.452891 241.860701 
L 264.914468 247.826586 
L 265.376044 231.393413 
L 265.837621 226.007639 
L 266.760774 218.453545 
L 267.222351 216.321932 
L 267.683928 219.233171 
L 268.607081 240.207131 
L 269.530234 270.861778 
L 269.991811 287.086894 
L 270.453387 289.843564 
L 270.914964 286.542979 
L 271.376541 287.981544 
L 271.838117 286.056028 
L 272.299694 281.732759 
L 272.761271 276.169486 
L 273.222847 275.373046 
L 273.684424 272.942714 
L 274.146 273.836474 
L 274.607577 274.334229 
L 275.069154 272.819009 
L 275.53073 274.267194 
L 275.992307 271.85083 
L 276.453884 268.735385 
L 276.91546 267.161157 
L 277.377037 268.448523 
L 278.30019 260.398239 
L 278.761767 259.751415 
L 279.223344 258.217587 
L 279.68492 255.770113 
L 280.146497 252.425323 
L 280.608073 247.547119 
L 281.06965 246.224988 
L 281.531227 249.590235 
L 281.992803 245.853193 
L 282.45438 250.051022 
L 282.915957 253.00784 
L 283.377533 249.626254 
L 283.83911 248.862363 
L 284.300687 254.570137 
L 284.762263 255.416457 
L 285.22384 251.775979 
L 285.685416 255.200163 
L 286.146993 259.605674 
L 286.60857 260.689392 
L 287.070146 258.130003 
L 287.9933 264.701492 
L 288.454876 262.981658 
L 288.916453 263.050987 
L 289.37803 265.750302 
L 289.839606 266.998935 
L 290.301183 266.368805 
L 291.224336 268.719139 
L 291.685913 269.375786 
L 292.147489 268.704707 
L 292.609066 268.782852 
L 293.070643 269.787606 
L 293.532219 270.137338 
L 294.455373 268.186759 
L 295.378526 267.186425 
L 295.840103 270.095076 
L 296.301679 270.752713 
L 296.763256 275.2439 
L 297.224832 276.872903 
L 297.686409 274.772827 
L 298.147986 271.592911 
L 298.609562 269.630018 
L 299.071139 269.015327 
L 299.532716 266.512584 
L 299.994292 265.643663 
L 300.455869 265.454209 
L 300.917446 264.270942 
L 301.840599 258.881093 
L 302.302176 257.875826 
L 302.763752 257.764734 
L 303.225329 257.985401 
L 303.686905 262.272561 
L 304.148482 261.521326 
L 304.610059 261.080718 
L 305.071635 256.698787 
L 305.533212 256.30522 
L 305.994789 260.114502 
L 306.456365 268.748293 
L 306.917942 270.517304 
L 307.379519 271.117304 
L 307.841095 268.070994 
L 308.302672 267.147224 
L 308.764248 268.735561 
L 309.225825 268.801164 
L 309.687402 267.852654 
L 310.148978 267.853225 
L 310.610555 269.291079 
L 311.072132 269.326029 
L 311.533708 268.905139 
L 311.995285 269.894538 
L 312.456862 270.55098 
L 312.918438 270.435728 
L 313.380015 268.823957 
L 313.841592 268.467658 
L 314.303168 270.012754 
L 314.764745 271.006861 
L 315.226321 269.987176 
L 315.687898 269.422231 
L 316.149475 269.190429 
L 316.611051 269.138896 
L 317.072628 270.287073 
L 317.995781 275.879551 
L 318.457358 283.456538 
L 318.918935 287.355901 
L 319.380511 279.821615 
L 319.842088 280.854282 
L 320.303664 288.006184 
L 320.765241 284.658338 
L 321.226818 280.046752 
L 321.688394 283.428991 
L 322.149971 288.753878 
L 322.611548 277.437808 
L 323.073124 271.798392 
L 323.534701 267.727377 
L 323.996278 261.170858 
L 324.457854 260.688293 
L 324.919431 264.099651 
L 325.381008 265.080027 
L 325.842584 270.322516 
L 326.304161 273.754544 
L 326.765737 273.735454 
L 327.688891 280.868143 
L 328.150467 271.805647 
L 328.612044 268.267752 
L 329.073621 269.228152 
L 329.535197 272.024159 
L 329.996774 270.550084 
L 330.458351 271.192101 
L 330.919927 269.458111 
L 331.381504 269.746593 
L 331.84308 269.14249 
L 332.766234 270.056777 
L 333.22781 269.877439 
L 333.689387 271.647307 
L 334.150964 271.055742 
L 334.61254 272.585306 
L 335.074117 269.802508 
L 335.535694 265.725257 
L 335.99727 266.206143 
L 336.920424 271.01116 
L 337.382 271.622767 
L 337.843577 269.978018 
L 338.305153 270.294866 
L 338.76673 268.323109 
L 339.228307 268.868124 
L 339.689883 269.12308 
L 340.15146 269.805562 
L 341.074613 273.042628 
L 341.53619 277.257326 
L 341.997767 276.347162 
L 342.459343 278.638612 
L 342.92092 279.078569 
L 343.844073 267.918221 
L 344.30565 266.043417 
L 344.767226 267.563661 
L 345.228803 267.247684 
L 346.151956 273.87374 
L 346.613533 282.881848 
L 347.536686 288.438964 
L 347.998263 285.035799 
L 348.45984 284.731227 
L 348.921416 279.382089 
L 349.382993 278.440175 
L 350.306146 269.720059 
L 350.767723 269.127133 
L 351.229299 263.624118 
L 351.690876 268.488209 
L 352.152453 267.564889 
L 352.614029 265.082738 
L 353.075606 268.428671 
L 353.537183 273.165631 
L 353.998759 272.758904 
L 354.921912 281.601623 
L 355.383489 284.268024 
L 355.845066 283.410345 
L 356.306642 283.348539 
L 356.768219 282.593609 
L 357.229796 278.721914 
L 357.691372 273.440083 
L 358.152949 275.347837 
L 358.614526 272.330652 
L 359.076102 274.749917 
L 359.537679 270.938348 
L 359.999256 270.725342 
L 360.460832 272.094699 
L 360.922409 278.704939 
L 361.383985 277.85066 
L 361.845562 279.885237 
L 362.307139 278.08484 
L 362.768715 279.697715 
L 363.230292 274.110391 
L 363.691869 272.259709 
L 364.153445 267.446456 
L 364.615022 268.242938 
L 365.538175 267.473554 
L 365.999752 265.648442 
L 366.461328 265.109795 
L 366.922905 261.881388 
L 367.384482 257.666524 
L 367.846058 250.376827 
L 368.307635 241.151245 
L 368.769212 236.90884 
L 369.230788 190.096343 
L 369.692365 191.763427 
L 370.153942 191.009232 
L 370.615518 188.222131 
L 371.077095 194.479386 
L 371.538672 205.948231 
L 372.000248 209.518836 
L 372.461825 220.641196 
L 372.923401 222.973045 
L 373.384978 222.212161 
L 373.846555 223.092927 
L 374.308131 218.35518 
L 374.769708 222.137309 
L 375.231285 227.015674 
L 375.692861 224.454604 
L 376.154438 226.253129 
L 376.616015 233.39908 
L 377.539168 230.297394 
L 378.000744 236.22974 
L 378.462321 237.209503 
L 378.923898 233.287797 
L 379.385474 235.61569 
L 379.847051 240.733937 
L 380.308628 237.009656 
L 381.231781 232.453704 
L 382.154934 224.599684 
L 382.616511 228.563989 
L 383.078088 235.647291 
L 383.539664 234.724907 
L 384.462817 249.257499 
L 384.924394 257.224536 
L 385.847547 282.417555 
L 386.309124 286.779121 
L 387.232277 275.001372 
L 388.155431 269.525385 
L 388.617007 268.560073 
L 389.078584 269.052251 
L 389.54016 271.898752 
L 390.001737 273.236378 
L 390.463314 275.304971 
L 390.92489 276.004211 
L 391.386467 277.264491 
L 391.848044 281.877087 
L 394.155927 268.689402 
L 394.617504 268.161823 
L 395.07908 270.4963 
L 396.002233 281.789891 
L 396.46381 282.815118 
L 396.925387 277.664023 
L 398.310117 243.634429 
L 398.771693 239.596386 
L 399.23327 237.933747 
L 400.156423 242.435572 
L 400.618 241.541283 
L 402.00273 252.990407 
L 402.464306 244.104985 
L 402.925883 241.294468 
L 403.38746 234.7097 
L 403.849036 233.052456 
L 404.310613 238.881762 
L 404.77219 225.855394 
L 405.233766 219.558756 
L 405.695343 222.865372 
L 406.15692 212.095107 
L 406.618496 206.283514 
L 407.080073 206.571164 
L 407.541649 201.423417 
L 408.003226 197.536708 
L 408.926379 196.844417 
L 409.387956 200.407404 
L 409.849533 206.089334 
L 410.311109 204.98027 
L 410.772686 204.349168 
L 411.695839 216.198995 
L 412.157416 213.208991 
L 412.618992 214.311716 
L 413.542146 226.336018 
L 414.003722 221.796027 
L 414.465299 223.877569 
L 414.926876 230.414976 
L 415.388452 229.794157 
L 415.850029 228.051221 
L 416.311606 231.745557 
L 416.773182 234.179414 
L 417.234759 232.043342 
L 417.696336 235.523071 
L 418.157912 237.466901 
L 418.619489 236.992799 
L 419.081065 237.930674 
L 419.542642 240.508326 
L 420.004219 239.537532 
L 420.465795 239.564462 
L 420.927372 242.300355 
L 421.388949 241.761131 
L 421.850525 240.086239 
L 422.312102 239.866134 
L 422.773679 239.518518 
L 423.235255 239.552113 
L 423.696832 240.307599 
L 424.158408 239.136426 
L 424.619985 237.546854 
L 425.081562 237.896626 
L 425.543138 239.582726 
L 426.004715 240.707416 
L 426.466292 242.622297 
L 426.927868 239.931831 
L 427.389445 238.639835 
L 427.851022 241.151517 
L 428.312598 241.561362 
L 428.774175 237.162316 
L 429.235752 235.802574 
L 430.158905 242.334943 
L 430.620481 249.363611 
L 431.082058 248.139724 
L 431.543635 249.281961 
L 432.005211 243.423395 
L 432.466788 244.897349 
L 432.928365 249.918262 
L 433.389941 259.732548 
L 433.851518 266.505634 
L 434.313095 271.177723 
L 434.774671 274.680598 
L 435.236248 270.01062 
L 435.697824 273.063432 
L 436.159401 282.629751 
L 436.620978 280.672296 
L 437.082554 271.723487 
L 437.544131 275.62342 
L 438.005708 284.844912 
L 438.928861 268.182823 
L 439.390438 274.974618 
L 439.852014 278.068954 
L 440.313591 268.510878 
L 440.775168 267.265457 
L 441.236744 263.41266 
L 441.698321 265.625653 
L 442.159897 259.839508 
L 443.083051 252.203793 
L 443.544627 252.573723 
L 444.006204 251.513866 
L 444.467781 256.451848 
L 444.929357 259.536255 
L 445.390934 265.987152 
L 445.852511 263.274708 
L 446.314087 261.777562 
L 446.775664 266.303324 
L 447.23724 268.25359 
L 447.698817 265.158417 
L 449.083547 267.026814 
L 449.545124 263.13665 
L 450.0067 261.958417 
L 450.468277 259.722151 
L 450.929854 259.242964 
L 451.39143 259.206715 
L 451.853007 258.233077 
L 452.77616 262.633813 
L 453.237737 262.695102 
L 454.16089 256.69927 
L 454.622467 251.101474 
L 455.084043 248.9627 
L 456.468773 262.625626 
L 456.93035 265.606639 
L 457.391927 269.897003 
L 457.853503 277.414497 
L 458.776656 263.316732 
L 459.238233 261.078601 
L 460.161386 251.924412 
L 460.622963 251.809243 
L 461.08454 247.242265 
L 461.546116 247.255561 
L 462.007693 247.563096 
L 462.46927 242.545234 
L 462.930846 242.611136 
L 463.392423 249.452827 
L 463.854 253.129275 
L 464.315576 254.709873 
L 464.777153 254.441485 
L 465.238729 255.672315 
L 465.700306 252.07246 
L 466.161883 252.577418 
L 466.623459 248.84381 
L 467.085036 250.290903 
L 468.008189 238.135421 
L 468.469766 234.146894 
L 468.931343 233.134626 
L 469.854496 230.422656 
L 470.777649 228.583046 
L 471.239226 231.932371 
L 471.700802 233.701592 
L 472.162379 237.915015 
L 472.623956 243.967363 
L 473.085532 253.865071 
L 473.547109 266.432737 
L 474.008686 283.410068 
L 474.470262 287.292716 
L 474.931839 277.625735 
L 475.393416 271.947553 
L 476.316569 255.597818 
L 476.778145 253.014911 
L 477.239722 246.294606 
L 477.701299 242.367156 
L 478.162875 235.70226 
L 478.624452 241.531705 
L 479.086029 250.594245 
L 479.547605 253.720212 
L 480.009182 252.524274 
L 480.470759 255.428423 
L 480.932335 255.381582 
L 481.855488 272.641683 
L 482.317065 279.077338 
L 482.778642 288.89519 
L 483.240218 287.296569 
L 484.163372 267.030728 
L 484.624948 250.642003 
L 485.086525 247.190188 
L 485.548102 248.362613 
L 486.009678 251.156816 
L 486.471255 242.636361 
L 487.855985 234.552425 
L 488.317561 234.847479 
L 489.240715 238.829859 
L 489.702291 243.523472 
L 490.163868 241.83963 
L 490.625445 241.199228 
L 491.087021 243.493841 
L 491.548598 249.060753 
L 492.010175 249.591017 
L 492.471751 254.297198 
L 492.933328 251.752071 
L 493.394904 251.683834 
L 494.318058 243.912793 
L 494.779634 234.947193 
L 495.241211 219.224614 
L 495.702788 198.287584 
L 496.164364 216.069024 
L 496.625941 226.501065 
L 497.087518 250.177102 
L 497.549094 257.829261 
L 498.010671 248.380643 
L 498.472247 260.77062 
L 498.933824 254.025959 
L 499.395401 256.821901 
L 499.856977 246.041672 
L 500.318554 242.799995 
L 500.780131 234.976504 
L 501.241707 231.622174 
L 501.703284 230.877503 
L 502.164861 232.876136 
L 502.626437 232.90312 
L 503.088014 232.424737 
L 503.549591 236.977105 
L 504.011167 237.822328 
L 504.472744 234.528582 
L 504.93432 235.422225 
L 505.395897 238.971668 
L 506.31905 234.891949 
L 507.242204 239.263952 
L 507.70378 238.798008 
L 508.165357 238.597752 
L 508.626934 237.539199 
L 509.08851 240.942223 
L 509.550087 254.293473 
L 510.011663 254.424277 
L 510.934817 284.032278 
L 511.396393 286.321589 
L 511.85797 290.61476 
L 512.319547 281.047791 
L 512.781123 263.690329 
L 513.2427 241.492335 
L 513.704277 234.29975 
L 514.165853 232.194378 
L 515.089007 231.948846 
L 515.550583 236.70271 
L 516.01216 239.41144 
L 516.473736 243.373812 
L 516.935313 242.47113 
L 517.39689 245.954961 
L 517.858466 247.325426 
L 518.320043 256.015792 
L 518.78162 256.534839 
L 519.704773 250.259913 
L 520.16635 245.460524 
L 520.627926 242.202631 
L 521.089503 238.04959 
L 521.551079 232.374209 
L 522.012656 234.502479 
L 522.474233 235.351095 
L 522.935809 247.325582 
L 523.858963 281.168827 
L 524.320539 287.065885 
L 524.782116 281.69818 
L 525.243693 272.062881 
L 525.705269 252.263769 
L 526.166846 241.765008 
L 526.628423 236.76665 
L 527.089999 233.718176 
L 527.551576 228.590476 
L 528.013152 227.256238 
L 528.936306 218.80763 
L 529.859459 212.310283 
L 530.321036 216.003612 
L 530.782612 214.324592 
L 531.244189 208.486492 
L 531.705766 209.293827 
L 532.167342 213.35701 
L 532.628919 209.269831 
L 533.090495 208.44071 
L 533.552072 214.522417 
L 534.013649 214.473053 
L 534.936802 224.872652 
L 535.398379 217.655609 
L 535.859955 214.722587 
L 536.321532 220.347978 
L 536.783109 218.599635 
L 537.244685 214.262172 
L 538.167839 222.036648 
L 538.629415 218.39936 
L 539.090992 218.429009 
L 539.552568 223.872747 
L 540.014145 223.541464 
L 540.475722 222.844783 
L 541.398875 226.988152 
L 541.860452 226.579256 
L 542.322028 227.278104 
L 542.783605 230.590092 
L 543.245182 231.177437 
L 543.706758 231.963736 
L 544.629911 236.073095 
L 545.091488 236.526252 
L 546.014641 238.505672 
L 546.476218 238.910408 
L 546.937795 237.660009 
L 547.399371 238.595959 
L 547.860948 240.254271 
L 548.322525 240.194439 
L 548.784101 238.03654 
L 549.245678 237.25642 
L 549.707255 236.21276 
L 550.168831 236.713355 
L 550.630408 238.775372 
L 551.091984 239.687087 
L 551.553561 235.272713 
L 552.015138 234.631306 
L 552.476714 239.471787 
L 552.938291 238.443343 
L 553.399868 240.049481 
L 553.861444 238.965467 
L 554.323021 236.015472 
L 554.784598 236.289007 
L 555.246174 237.920195 
L 556.169327 230.98483 
L 557.092481 234.855216 
L 557.554057 241.340109 
L 558.015634 240.419426 
L 558.477211 240.293901 
L 558.938787 233.157614 
L 559.400364 232.067212 
L 559.861941 238.379678 
L 560.323517 249.73239 
L 561.246671 257.543503 
L 561.708247 258.087727 
L 562.169824 256.619269 
L 562.6314 256.498486 
L 563.092977 259.250071 
L 563.554554 263.391076 
L 564.01613 259.625066 
L 564.477707 260.242328 
L 564.939284 265.407404 
L 565.40086 265.853573 
L 565.862437 261.874302 
L 566.324014 262.56322 
L 566.78559 268.261364 
L 567.247167 267.082413 
L 567.708743 259.718636 
L 568.17032 254.782242 
L 568.631897 255.776312 
L 569.093473 248.908187 
L 569.55505 244.435005 
L 570.016627 243.781177 
L 570.478203 245.32247 
L 570.93978 245.894617 
L 571.862933 251.358428 
L 572.32451 257.409283 
L 572.786087 260.182651 
L 573.247663 254.865663 
L 573.70924 255.249068 
L 574.170816 260.96519 
L 574.632393 258.842994 
L 575.09397 254.867972 
L 575.555546 256.185661 
L 576.017123 260.523616 
L 576.4787 257.073003 
L 576.940276 255.107067 
L 577.401853 251.363036 
L 577.86343 252.285158 
L 578.325006 251.929018 
L 578.786583 246.080795 
L 579.248159 247.357712 
L 579.709736 251.525503 
L 580.632889 251.857679 
L 581.094466 252.127696 
L 581.556043 250.490444 
L 582.017619 249.430843 
L 582.479196 245.32185 
L 582.940773 243.833783 
L 583.402349 246.917063 
L 583.863926 244.992818 
L 584.325503 246.431513 
L 584.787079 244.56561 
L 585.248656 240.097343 
L 585.710232 240.964651 
L 586.171809 242.391788 
L 586.633386 244.183403 
L 587.094962 243.738502 
L 587.556539 246.825611 
L 588.018116 245.051745 
L 588.479692 246.394579 
L 589.402846 239.120324 
L 589.864422 239.964029 
L 590.787575 248.685797 
L 591.710729 245.829782 
L 592.172305 246.570671 
L 592.633882 244.699478 
L 593.095459 247.471728 
L 593.557035 245.834314 
L 594.018612 244.751805 
L 594.941765 241.22016 
L 595.403342 240.534721 
L 595.864919 240.200149 
L 596.326495 240.626646 
L 596.788072 237.044239 
L 597.249648 235.842601 
L 597.711225 228.859951 
L 598.172802 225.256473 
L 598.634378 226.132598 
L 599.095955 223.296548 
L 599.557532 222.288244 
L 600.019108 224.613436 
L 600.942262 240.626884 
L 601.403838 243.055956 
L 601.865415 233.593572 
L 602.326991 232.188657 
L 603.250145 215.75759 
L 604.634875 197.687722 
L 605.096451 187.286861 
L 605.558028 183.768299 
L 606.019605 172.179626 
L 606.481181 171.69838 
L 606.942758 180.687886 
L 607.404335 194.094809 
L 607.865911 200.090495 
L 608.789064 218.331135 
L 609.250641 226.019478 
L 609.712218 237.854309 
L 610.173794 234.452468 
L 610.635371 229.967159 
L 611.096948 227.298574 
L 611.558524 218.630203 
L 612.020101 220.487463 
L 612.481678 223.357427 
L 612.943254 225.313853 
L 613.404831 225.51806 
L 613.866407 228.989354 
L 614.327984 230.677664 
L 614.789561 236.236355 
L 615.251137 239.805875 
L 615.712714 246.088289 
L 616.174291 243.654301 
L 616.635867 245.807044 
L 617.097444 240.936043 
L 617.559021 240.889812 
L 618.020597 241.594341 
L 618.482174 247.076497 
L 618.943751 244.556079 
L 619.405327 245.815836 
L 619.866904 243.679631 
L 620.32848 242.239307 
L 621.251634 231.3472 
L 621.71321 221.300756 
L 622.636364 178.185334 
L 622.636364 178.185334 
" style="fill:none;stroke:#ff7f0e;stroke-linecap:square;stroke-width:1.5;"/>
   </g>
   <g id="patch_3">
    <path d="M 90 320.4 
L 90 43.2 
" style="fill:none;stroke:#000000;stroke-linecap:square;stroke-linejoin:miter;stroke-width:0.8;"/>
   </g>
   <g id="patch_4">
    <path d="M 648 320.4 
L 648 43.2 
" style="fill:none;stroke:#000000;stroke-linecap:square;stroke-linejoin:miter;stroke-width:0.8;"/>
   </g>
   <g id="patch_5">
    <path d="M 90 320.4 
L 648 320.4 
" style="fill:none;stroke:#000000;stroke-linecap:square;stroke-linejoin:miter;stroke-width:0.8;"/>
   </g>
   <g id="patch_6">
    <path d="M 90 43.2 
L 648 43.2 
" style="fill:none;stroke:#000000;stroke-linecap:square;stroke-linejoin:miter;stroke-width:0.8;"/>
   </g>
   <g id="legend_1">
    <g id="patch_7">
     <path d="M 488.427813 84.291875 
L 640.3 84.291875 
Q 642.5 84.291875 642.5 82.091875 
L 642.5 50.9 
Q 642.5 48.7 640.3 48.7 
L 488.427813 48.7 
Q 486.227813 48.7 486.227813 50.9 
L 486.227813 82.091875 
Q 486.227813 84.291875 488.427813 84.291875 
z
" style="fill:#ffffff;opacity:0.8;stroke:#cccccc;stroke-linejoin:miter;"/>
    </g>
    <g id="line2d_14">
     <path d="M 490.627813 57.608281 
L 512.627813 57.608281 
" style="fill:none;stroke:#1f77b4;stroke-linecap:square;stroke-width:1.5;"/>
    </g>
    <g id="line2d_15"/>
    <g id="text_14">
     <!-- B-factors -->
     <defs>
      <path d="M 19.671875 34.8125 
L 19.671875 8.109375 
L 35.5 8.109375 
Q 43.453125 8.109375 47.28125 11.40625 
Q 51.125 14.703125 51.125 21.484375 
Q 51.125 28.328125 47.28125 31.5625 
Q 43.453125 34.8125 35.5 34.8125 
z
M 19.671875 64.796875 
L 19.671875 42.828125 
L 34.28125 42.828125 
Q 41.5 42.828125 45.03125 45.53125 
Q 48.578125 48.25 48.578125 53.8125 
Q 48.578125 59.328125 45.03125 62.0625 
Q 41.5 64.796875 34.28125 64.796875 
z
M 9.8125 72.90625 
L 35.015625 72.90625 
Q 46.296875 72.90625 52.390625 68.21875 
Q 58.5 63.53125 58.5 54.890625 
Q 58.5 48.1875 55.375 44.234375 
Q 52.25 40.28125 46.1875 39.3125 
Q 53.46875 37.75 57.5 32.78125 
Q 61.53125 27.828125 61.53125 20.40625 
Q 61.53125 10.640625 54.890625 5.3125 
Q 48.25 0 35.984375 0 
L 9.8125 0 
z
" id="DejaVuSans-66"/>
      <path d="M 4.890625 31.390625 
L 31.203125 31.390625 
L 31.203125 23.390625 
L 4.890625 23.390625 
z
" id="DejaVuSans-45"/>
      <path d="M 37.109375 75.984375 
L 37.109375 68.5 
L 28.515625 68.5 
Q 23.6875 68.5 21.796875 66.546875 
Q 19.921875 64.59375 19.921875 59.515625 
L 19.921875 54.6875 
L 34.71875 54.6875 
L 34.71875 47.703125 
L 19.921875 47.703125 
L 19.921875 0 
L 10.890625 0 
L 10.890625 47.703125 
L 2.296875 47.703125 
L 2.296875 54.6875 
L 10.890625 54.6875 
L 10.890625 58.5 
Q 10.890625 67.625 15.140625 71.796875 
Q 19.390625 75.984375 28.609375 75.984375 
z
" id="DejaVuSans-102"/>
      <path d="M 34.28125 27.484375 
Q 23.390625 27.484375 19.1875 25 
Q 14.984375 22.515625 14.984375 16.5 
Q 14.984375 11.71875 18.140625 8.90625 
Q 21.296875 6.109375 26.703125 6.109375 
Q 34.1875 6.109375 38.703125 11.40625 
Q 43.21875 16.703125 43.21875 25.484375 
L 43.21875 27.484375 
z
M 52.203125 31.203125 
L 52.203125 0 
L 43.21875 0 
L 43.21875 8.296875 
Q 40.140625 3.328125 35.546875 0.953125 
Q 30.953125 -1.421875 24.3125 -1.421875 
Q 15.921875 -1.421875 10.953125 3.296875 
Q 6 8.015625 6 15.921875 
Q 6 25.140625 12.171875 29.828125 
Q 18.359375 34.515625 30.609375 34.515625 
L 43.21875 34.515625 
L 43.21875 35.40625 
Q 43.21875 41.609375 39.140625 45 
Q 35.0625 48.390625 27.6875 48.390625 
Q 23 48.390625 18.546875 47.265625 
Q 14.109375 46.140625 10.015625 43.890625 
L 10.015625 52.203125 
Q 14.9375 54.109375 19.578125 55.046875 
Q 24.21875 56 28.609375 56 
Q 40.484375 56 46.34375 49.84375 
Q 52.203125 43.703125 52.203125 31.203125 
z
" id="DejaVuSans-97"/>
      <path d="M 48.78125 52.59375 
L 48.78125 44.1875 
Q 44.96875 46.296875 41.140625 47.34375 
Q 37.3125 48.390625 33.40625 48.390625 
Q 24.65625 48.390625 19.8125 42.84375 
Q 14.984375 37.3125 14.984375 27.296875 
Q 14.984375 17.28125 19.8125 11.734375 
Q 24.65625 6.203125 33.40625 6.203125 
Q 37.3125 6.203125 41.140625 7.25 
Q 44.96875 8.296875 48.78125 10.40625 
L 48.78125 2.09375 
Q 45.015625 0.34375 40.984375 -0.53125 
Q 36.96875 -1.421875 32.421875 -1.421875 
Q 20.0625 -1.421875 12.78125 6.34375 
Q 5.515625 14.109375 5.515625 27.296875 
Q 5.515625 40.671875 12.859375 48.328125 
Q 20.21875 56 33.015625 56 
Q 37.15625 56 41.109375 55.140625 
Q 45.0625 54.296875 48.78125 52.59375 
z
" id="DejaVuSans-99"/>
      <path d="M 18.3125 70.21875 
L 18.3125 54.6875 
L 36.8125 54.6875 
L 36.8125 47.703125 
L 18.3125 47.703125 
L 18.3125 18.015625 
Q 18.3125 11.328125 20.140625 9.421875 
Q 21.96875 7.515625 27.59375 7.515625 
L 36.8125 7.515625 
L 36.8125 0 
L 27.59375 0 
Q 17.1875 0 13.234375 3.875 
Q 9.28125 7.765625 9.28125 18.015625 
L 9.28125 47.703125 
L 2.6875 47.703125 
L 2.6875 54.6875 
L 9.28125 54.6875 
L 9.28125 70.21875 
z
" id="DejaVuSans-116"/>
      <path d="M 30.609375 48.390625 
Q 23.390625 48.390625 19.1875 42.75 
Q 14.984375 37.109375 14.984375 27.296875 
Q 14.984375 17.484375 19.15625 11.84375 
Q 23.34375 6.203125 30.609375 6.203125 
Q 37.796875 6.203125 41.984375 11.859375 
Q 46.1875 17.53125 46.1875 27.296875 
Q 46.1875 37.015625 41.984375 42.703125 
Q 37.796875 48.390625 30.609375 48.390625 
z
M 30.609375 56 
Q 42.328125 56 49.015625 48.375 
Q 55.71875 40.765625 55.71875 27.296875 
Q 55.71875 13.875 49.015625 6.21875 
Q 42.328125 -1.421875 30.609375 -1.421875 
Q 18.84375 -1.421875 12.171875 6.21875 
Q 5.515625 13.875 5.515625 27.296875 
Q 5.515625 40.765625 12.171875 48.375 
Q 18.84375 56 30.609375 56 
z
" id="DejaVuSans-111"/>
     </defs>
     <g transform="translate(521.427812 61.458281)scale(0.11 -0.11)">
      <use xlink:href="#DejaVuSans-66"/>
      <use x="68.603516" xlink:href="#DejaVuSans-45"/>
      <use x="104.6875" xlink:href="#DejaVuSans-102"/>
      <use x="139.892578" xlink:href="#DejaVuSans-97"/>
      <use x="201.171875" xlink:href="#DejaVuSans-99"/>
      <use x="256.152344" xlink:href="#DejaVuSans-116"/>
      <use x="295.361328" xlink:href="#DejaVuSans-111"/>
      <use x="356.542969" xlink:href="#DejaVuSans-114"/>
      <use x="397.65625" xlink:href="#DejaVuSans-115"/>
     </g>
    </g>
    <g id="line2d_16">
     <path d="M 490.627813 73.754219 
L 512.627813 73.754219 
" style="fill:none;stroke:#ff7f0e;stroke-linecap:square;stroke-width:1.5;"/>
    </g>
    <g id="line2d_17"/>
    <g id="text_15">
     <!-- Squared Fluctuations -->
     <defs>
      <path d="M 53.515625 70.515625 
L 53.515625 60.890625 
Q 47.90625 63.578125 42.921875 64.890625 
Q 37.9375 66.21875 33.296875 66.21875 
Q 25.25 66.21875 20.875 63.09375 
Q 16.5 59.96875 16.5 54.203125 
Q 16.5 49.359375 19.40625 46.890625 
Q 22.3125 44.4375 30.421875 42.921875 
L 36.375 41.703125 
Q 47.40625 39.59375 52.65625 34.296875 
Q 57.90625 29 57.90625 20.125 
Q 57.90625 9.515625 50.796875 4.046875 
Q 43.703125 -1.421875 29.984375 -1.421875 
Q 24.8125 -1.421875 18.96875 -0.25 
Q 13.140625 0.921875 6.890625 3.21875 
L 6.890625 13.375 
Q 12.890625 10.015625 18.65625 8.296875 
Q 24.421875 6.59375 29.984375 6.59375 
Q 38.421875 6.59375 43.015625 9.90625 
Q 47.609375 13.234375 47.609375 19.390625 
Q 47.609375 24.75 44.3125 27.78125 
Q 41.015625 30.8125 33.5 32.328125 
L 27.484375 33.5 
Q 16.453125 35.6875 11.515625 40.375 
Q 6.59375 45.0625 6.59375 53.421875 
Q 6.59375 63.09375 13.40625 68.65625 
Q 20.21875 74.21875 32.171875 74.21875 
Q 37.3125 74.21875 42.625 73.28125 
Q 47.953125 72.359375 53.515625 70.515625 
z
" id="DejaVuSans-83"/>
      <path d="M 14.796875 27.296875 
Q 14.796875 17.390625 18.875 11.75 
Q 22.953125 6.109375 30.078125 6.109375 
Q 37.203125 6.109375 41.296875 11.75 
Q 45.40625 17.390625 45.40625 27.296875 
Q 45.40625 37.203125 41.296875 42.84375 
Q 37.203125 48.484375 30.078125 48.484375 
Q 22.953125 48.484375 18.875 42.84375 
Q 14.796875 37.203125 14.796875 27.296875 
z
M 45.40625 8.203125 
Q 42.578125 3.328125 38.25 0.953125 
Q 33.9375 -1.421875 27.875 -1.421875 
Q 17.96875 -1.421875 11.734375 6.484375 
Q 5.515625 14.40625 5.515625 27.296875 
Q 5.515625 40.1875 11.734375 48.09375 
Q 17.96875 56 27.875 56 
Q 33.9375 56 38.25 53.625 
Q 42.578125 51.265625 45.40625 46.390625 
L 45.40625 54.6875 
L 54.390625 54.6875 
L 54.390625 -20.796875 
L 45.40625 -20.796875 
z
" id="DejaVuSans-113"/>
      <path d="M 9.8125 72.90625 
L 51.703125 72.90625 
L 51.703125 64.59375 
L 19.671875 64.59375 
L 19.671875 43.109375 
L 48.578125 43.109375 
L 48.578125 34.8125 
L 19.671875 34.8125 
L 19.671875 0 
L 9.8125 0 
z
" id="DejaVuSans-70"/>
      <path d="M 9.421875 75.984375 
L 18.40625 75.984375 
L 18.40625 0 
L 9.421875 0 
z
" id="DejaVuSans-108"/>
      <path d="M 54.890625 33.015625 
L 54.890625 0 
L 45.90625 0 
L 45.90625 32.71875 
Q 45.90625 40.484375 42.875 44.328125 
Q 39.84375 48.1875 33.796875 48.1875 
Q 26.515625 48.1875 22.3125 43.546875 
Q 18.109375 38.921875 18.109375 30.90625 
L 18.109375 0 
L 9.078125 0 
L 9.078125 54.6875 
L 18.109375 54.6875 
L 18.109375 46.1875 
Q 21.34375 51.125 25.703125 53.5625 
Q 30.078125 56 35.796875 56 
Q 45.21875 56 50.046875 50.171875 
Q 54.890625 44.34375 54.890625 33.015625 
z
" id="DejaVuSans-110"/>
     </defs>
     <g transform="translate(521.427812 77.604219)scale(0.11 -0.11)">
      <use xlink:href="#DejaVuSans-83"/>
      <use x="63.476562" xlink:href="#DejaVuSans-113"/>
      <use x="126.953125" xlink:href="#DejaVuSans-117"/>
      <use x="190.332031" xlink:href="#DejaVuSans-97"/>
      <use x="251.611328" xlink:href="#DejaVuSans-114"/>
      <use x="292.693359" xlink:href="#DejaVuSans-101"/>
      <use x="354.216797" xlink:href="#DejaVuSans-100"/>
      <use x="417.693359" xlink:href="#DejaVuSans-32"/>
      <use x="449.480469" xlink:href="#DejaVuSans-70"/>
      <use x="507" xlink:href="#DejaVuSans-108"/>
      <use x="534.783203" xlink:href="#DejaVuSans-117"/>
      <use x="598.162109" xlink:href="#DejaVuSans-99"/>
      <use x="653.142578" xlink:href="#DejaVuSans-116"/>
      <use x="692.351562" xlink:href="#DejaVuSans-117"/>
      <use x="755.730469" xlink:href="#DejaVuSans-97"/>
      <use x="817.009766" xlink:href="#DejaVuSans-116"/>
      <use x="856.21875" xlink:href="#DejaVuSans-105"/>
      <use x="884.001953" xlink:href="#DejaVuSans-111"/>
      <use x="945.183594" xlink:href="#DejaVuSans-110"/>
      <use x="1008.5625" xlink:href="#DejaVuSans-115"/>
     </g>
    </g>
   </g>
  </g>
  <g id="text_16">
   <!-- Squared Fluctuations vs B-factors: Capsid Protein In The Staphylococcus Aureus Phage 80Alpha-Derived Sapi1 Mature Capsid (6c22) -->
   <defs>
    <path d="M 2.984375 54.6875 
L 12.5 54.6875 
L 29.59375 8.796875 
L 46.6875 54.6875 
L 56.203125 54.6875 
L 35.6875 0 
L 23.484375 0 
z
" id="DejaVuSans-118"/>
    <path d="M 11.71875 12.40625 
L 22.015625 12.40625 
L 22.015625 0 
L 11.71875 0 
z
M 11.71875 51.703125 
L 22.015625 51.703125 
L 22.015625 39.3125 
L 11.71875 39.3125 
z
" id="DejaVuSans-58"/>
    <path d="M 64.40625 67.28125 
L 64.40625 56.890625 
Q 59.421875 61.53125 53.78125 63.8125 
Q 48.140625 66.109375 41.796875 66.109375 
Q 29.296875 66.109375 22.65625 58.46875 
Q 16.015625 50.828125 16.015625 36.375 
Q 16.015625 21.96875 22.65625 14.328125 
Q 29.296875 6.6875 41.796875 6.6875 
Q 48.140625 6.6875 53.78125 8.984375 
Q 59.421875 11.28125 64.40625 15.921875 
L 64.40625 5.609375 
Q 59.234375 2.09375 53.4375 0.328125 
Q 47.65625 -1.421875 41.21875 -1.421875 
Q 24.65625 -1.421875 15.125 8.703125 
Q 5.609375 18.84375 5.609375 36.375 
Q 5.609375 53.953125 15.125 64.078125 
Q 24.65625 74.21875 41.21875 74.21875 
Q 47.75 74.21875 53.53125 72.484375 
Q 59.328125 70.75 64.40625 67.28125 
z
" id="DejaVuSans-67"/>
    <path d="M 18.109375 8.203125 
L 18.109375 -20.796875 
L 9.078125 -20.796875 
L 9.078125 54.6875 
L 18.109375 54.6875 
L 18.109375 46.390625 
Q 20.953125 51.265625 25.265625 53.625 
Q 29.59375 56 35.59375 56 
Q 45.5625 56 51.78125 48.09375 
Q 58.015625 40.1875 58.015625 27.296875 
Q 58.015625 14.40625 51.78125 6.484375 
Q 45.5625 -1.421875 35.59375 -1.421875 
Q 29.59375 -1.421875 25.265625 0.953125 
Q 20.953125 3.328125 18.109375 8.203125 
z
M 48.6875 27.296875 
Q 48.6875 37.203125 44.609375 42.84375 
Q 40.53125 48.484375 33.40625 48.484375 
Q 26.265625 48.484375 22.1875 42.84375 
Q 18.109375 37.203125 18.109375 27.296875 
Q 18.109375 17.390625 22.1875 11.75 
Q 26.265625 6.109375 33.40625 6.109375 
Q 40.53125 6.109375 44.609375 11.75 
Q 48.6875 17.390625 48.6875 27.296875 
z
" id="DejaVuSans-112"/>
    <path d="M 19.671875 64.796875 
L 19.671875 37.40625 
L 32.078125 37.40625 
Q 38.96875 37.40625 42.71875 40.96875 
Q 46.484375 44.53125 46.484375 51.125 
Q 46.484375 57.671875 42.71875 61.234375 
Q 38.96875 64.796875 32.078125 64.796875 
z
M 9.8125 72.90625 
L 32.078125 72.90625 
Q 44.34375 72.90625 50.609375 67.359375 
Q 56.890625 61.8125 56.890625 51.125 
Q 56.890625 40.328125 50.609375 34.8125 
Q 44.34375 29.296875 32.078125 29.296875 
L 19.671875 29.296875 
L 19.671875 0 
L 9.8125 0 
z
" id="DejaVuSans-80"/>
    <path d="M 9.8125 72.90625 
L 19.671875 72.90625 
L 19.671875 0 
L 9.8125 0 
z
" id="DejaVuSans-73"/>
    <path d="M -0.296875 72.90625 
L 61.375 72.90625 
L 61.375 64.59375 
L 35.5 64.59375 
L 35.5 0 
L 25.59375 0 
L 25.59375 64.59375 
L -0.296875 64.59375 
z
" id="DejaVuSans-84"/>
    <path d="M 54.890625 33.015625 
L 54.890625 0 
L 45.90625 0 
L 45.90625 32.71875 
Q 45.90625 40.484375 42.875 44.328125 
Q 39.84375 48.1875 33.796875 48.1875 
Q 26.515625 48.1875 22.3125 43.546875 
Q 18.109375 38.921875 18.109375 30.90625 
L 18.109375 0 
L 9.078125 0 
L 9.078125 75.984375 
L 18.109375 75.984375 
L 18.109375 46.1875 
Q 21.34375 51.125 25.703125 53.5625 
Q 30.078125 56 35.796875 56 
Q 45.21875 56 50.046875 50.171875 
Q 54.890625 44.34375 54.890625 33.015625 
z
" id="DejaVuSans-104"/>
    <path d="M 32.171875 -5.078125 
Q 28.375 -14.84375 24.75 -17.8125 
Q 21.140625 -20.796875 15.09375 -20.796875 
L 7.90625 -20.796875 
L 7.90625 -13.28125 
L 13.1875 -13.28125 
Q 16.890625 -13.28125 18.9375 -11.515625 
Q 21 -9.765625 23.484375 -3.21875 
L 25.09375 0.875 
L 2.984375 54.6875 
L 12.5 54.6875 
L 29.59375 11.921875 
L 46.6875 54.6875 
L 56.203125 54.6875 
z
" id="DejaVuSans-121"/>
    <path d="M 34.1875 63.1875 
L 20.796875 26.90625 
L 47.609375 26.90625 
z
M 28.609375 72.90625 
L 39.796875 72.90625 
L 67.578125 0 
L 57.328125 0 
L 50.6875 18.703125 
L 17.828125 18.703125 
L 11.1875 0 
L 0.78125 0 
z
" id="DejaVuSans-65"/>
    <path d="M 45.40625 27.984375 
Q 45.40625 37.75 41.375 43.109375 
Q 37.359375 48.484375 30.078125 48.484375 
Q 22.859375 48.484375 18.828125 43.109375 
Q 14.796875 37.75 14.796875 27.984375 
Q 14.796875 18.265625 18.828125 12.890625 
Q 22.859375 7.515625 30.078125 7.515625 
Q 37.359375 7.515625 41.375 12.890625 
Q 45.40625 18.265625 45.40625 27.984375 
z
M 54.390625 6.78125 
Q 54.390625 -7.171875 48.1875 -13.984375 
Q 42 -20.796875 29.203125 -20.796875 
Q 24.46875 -20.796875 20.265625 -20.09375 
Q 16.0625 -19.390625 12.109375 -17.921875 
L 12.109375 -9.1875 
Q 16.0625 -11.328125 19.921875 -12.34375 
Q 23.78125 -13.375 27.78125 -13.375 
Q 36.625 -13.375 41.015625 -8.765625 
Q 45.40625 -4.15625 45.40625 5.171875 
L 45.40625 9.625 
Q 42.625 4.78125 38.28125 2.390625 
Q 33.9375 0 27.875 0 
Q 17.828125 0 11.671875 7.65625 
Q 5.515625 15.328125 5.515625 27.984375 
Q 5.515625 40.671875 11.671875 48.328125 
Q 17.828125 56 27.875 56 
Q 33.9375 56 38.28125 53.609375 
Q 42.625 51.21875 45.40625 46.390625 
L 45.40625 54.6875 
L 54.390625 54.6875 
z
" id="DejaVuSans-103"/>
    <path d="M 19.671875 64.796875 
L 19.671875 8.109375 
L 31.59375 8.109375 
Q 46.6875 8.109375 53.6875 14.9375 
Q 60.6875 21.78125 60.6875 36.53125 
Q 60.6875 51.171875 53.6875 57.984375 
Q 46.6875 64.796875 31.59375 64.796875 
z
M 9.8125 72.90625 
L 30.078125 72.90625 
Q 51.265625 72.90625 61.171875 64.09375 
Q 71.09375 55.28125 71.09375 36.53125 
Q 71.09375 17.671875 61.125 8.828125 
Q 51.171875 0 30.078125 0 
L 9.8125 0 
z
" id="DejaVuSans-68"/>
    <path d="M 9.8125 72.90625 
L 24.515625 72.90625 
L 43.109375 23.296875 
L 61.8125 72.90625 
L 76.515625 72.90625 
L 76.515625 0 
L 66.890625 0 
L 66.890625 64.015625 
L 48.09375 14.015625 
L 38.1875 14.015625 
L 19.390625 64.015625 
L 19.390625 0 
L 9.8125 0 
z
" id="DejaVuSans-77"/>
    <path d="M 31 75.875 
Q 24.46875 64.65625 21.28125 53.65625 
Q 18.109375 42.671875 18.109375 31.390625 
Q 18.109375 20.125 21.3125 9.0625 
Q 24.515625 -2 31 -13.1875 
L 23.1875 -13.1875 
Q 15.875 -1.703125 12.234375 9.375 
Q 8.59375 20.453125 8.59375 31.390625 
Q 8.59375 42.28125 12.203125 53.3125 
Q 15.828125 64.359375 23.1875 75.875 
z
" id="DejaVuSans-40"/>
    <path d="M 8.015625 75.875 
L 15.828125 75.875 
Q 23.140625 64.359375 26.78125 53.3125 
Q 30.421875 42.28125 30.421875 31.390625 
Q 30.421875 20.453125 26.78125 9.375 
Q 23.140625 -1.703125 15.828125 -13.1875 
L 8.015625 -13.1875 
Q 14.5 -2 17.703125 9.0625 
Q 20.90625 20.125 20.90625 31.390625 
Q 20.90625 42.671875 17.703125 53.65625 
Q 14.5 64.65625 8.015625 75.875 
z
" id="DejaVuSans-41"/>
   </defs>
   <g transform="translate(-38.730937 16.318125)scale(0.12 -0.12)">
    <use xlink:href="#DejaVuSans-83"/>
    <use x="63.476562" xlink:href="#DejaVuSans-113"/>
    <use x="126.953125" xlink:href="#DejaVuSans-117"/>
    <use x="190.332031" xlink:href="#DejaVuSans-97"/>
    <use x="251.611328" xlink:href="#DejaVuSans-114"/>
    <use x="292.693359" xlink:href="#DejaVuSans-101"/>
    <use x="354.216797" xlink:href="#DejaVuSans-100"/>
    <use x="417.693359" xlink:href="#DejaVuSans-32"/>
    <use x="449.480469" xlink:href="#DejaVuSans-70"/>
    <use x="507" xlink:href="#DejaVuSans-108"/>
    <use x="534.783203" xlink:href="#DejaVuSans-117"/>
    <use x="598.162109" xlink:href="#DejaVuSans-99"/>
    <use x="653.142578" xlink:href="#DejaVuSans-116"/>
    <use x="692.351562" xlink:href="#DejaVuSans-117"/>
    <use x="755.730469" xlink:href="#DejaVuSans-97"/>
    <use x="817.009766" xlink:href="#DejaVuSans-116"/>
    <use x="856.21875" xlink:href="#DejaVuSans-105"/>
    <use x="884.001953" xlink:href="#DejaVuSans-111"/>
    <use x="945.183594" xlink:href="#DejaVuSans-110"/>
    <use x="1008.5625" xlink:href="#DejaVuSans-115"/>
    <use x="1060.662109" xlink:href="#DejaVuSans-32"/>
    <use x="1092.449219" xlink:href="#DejaVuSans-118"/>
    <use x="1151.628906" xlink:href="#DejaVuSans-115"/>
    <use x="1203.728516" xlink:href="#DejaVuSans-32"/>
    <use x="1235.515625" xlink:href="#DejaVuSans-66"/>
    <use x="1304.119141" xlink:href="#DejaVuSans-45"/>
    <use x="1340.203125" xlink:href="#DejaVuSans-102"/>
    <use x="1375.408203" xlink:href="#DejaVuSans-97"/>
    <use x="1436.6875" xlink:href="#DejaVuSans-99"/>
    <use x="1491.667969" xlink:href="#DejaVuSans-116"/>
    <use x="1530.876953" xlink:href="#DejaVuSans-111"/>
    <use x="1592.058594" xlink:href="#DejaVuSans-114"/>
    <use x="1633.171875" xlink:href="#DejaVuSans-115"/>
    <use x="1685.271484" xlink:href="#DejaVuSans-58"/>
    <use x="1718.962891" xlink:href="#DejaVuSans-32"/>
    <use x="1750.75" xlink:href="#DejaVuSans-67"/>
    <use x="1820.574219" xlink:href="#DejaVuSans-97"/>
    <use x="1881.853516" xlink:href="#DejaVuSans-112"/>
    <use x="1945.330078" xlink:href="#DejaVuSans-115"/>
    <use x="1997.429688" xlink:href="#DejaVuSans-105"/>
    <use x="2025.212891" xlink:href="#DejaVuSans-100"/>
    <use x="2088.689453" xlink:href="#DejaVuSans-32"/>
    <use x="2120.476562" xlink:href="#DejaVuSans-80"/>
    <use x="2180.763672" xlink:href="#DejaVuSans-114"/>
    <use x="2221.845703" xlink:href="#DejaVuSans-111"/>
    <use x="2283.027344" xlink:href="#DejaVuSans-116"/>
    <use x="2322.236328" xlink:href="#DejaVuSans-101"/>
    <use x="2383.759766" xlink:href="#DejaVuSans-105"/>
    <use x="2411.542969" xlink:href="#DejaVuSans-110"/>
    <use x="2474.921875" xlink:href="#DejaVuSans-32"/>
    <use x="2506.708984" xlink:href="#DejaVuSans-73"/>
    <use x="2536.201172" xlink:href="#DejaVuSans-110"/>
    <use x="2599.580078" xlink:href="#DejaVuSans-32"/>
    <use x="2631.367188" xlink:href="#DejaVuSans-84"/>
    <use x="2692.451172" xlink:href="#DejaVuSans-104"/>
    <use x="2755.830078" xlink:href="#DejaVuSans-101"/>
    <use x="2817.353516" xlink:href="#DejaVuSans-32"/>
    <use x="2849.140625" xlink:href="#DejaVuSans-83"/>
    <use x="2912.617188" xlink:href="#DejaVuSans-116"/>
    <use x="2951.826172" xlink:href="#DejaVuSans-97"/>
    <use x="3013.105469" xlink:href="#DejaVuSans-112"/>
    <use x="3076.582031" xlink:href="#DejaVuSans-104"/>
    <use x="3139.960938" xlink:href="#DejaVuSans-121"/>
    <use x="3199.140625" xlink:href="#DejaVuSans-108"/>
    <use x="3226.923828" xlink:href="#DejaVuSans-111"/>
    <use x="3288.105469" xlink:href="#DejaVuSans-99"/>
    <use x="3343.085938" xlink:href="#DejaVuSans-111"/>
    <use x="3404.267578" xlink:href="#DejaVuSans-99"/>
    <use x="3459.248047" xlink:href="#DejaVuSans-99"/>
    <use x="3514.228516" xlink:href="#DejaVuSans-117"/>
    <use x="3577.607422" xlink:href="#DejaVuSans-115"/>
    <use x="3629.707031" xlink:href="#DejaVuSans-32"/>
    <use x="3661.494141" xlink:href="#DejaVuSans-65"/>
    <use x="3729.902344" xlink:href="#DejaVuSans-117"/>
    <use x="3793.28125" xlink:href="#DejaVuSans-114"/>
    <use x="3834.363281" xlink:href="#DejaVuSans-101"/>
    <use x="3895.886719" xlink:href="#DejaVuSans-117"/>
    <use x="3959.265625" xlink:href="#DejaVuSans-115"/>
    <use x="4011.365234" xlink:href="#DejaVuSans-32"/>
    <use x="4043.152344" xlink:href="#DejaVuSans-80"/>
    <use x="4103.455078" xlink:href="#DejaVuSans-104"/>
    <use x="4166.833984" xlink:href="#DejaVuSans-97"/>
    <use x="4228.113281" xlink:href="#DejaVuSans-103"/>
    <use x="4291.589844" xlink:href="#DejaVuSans-101"/>
    <use x="4353.113281" xlink:href="#DejaVuSans-32"/>
    <use x="4384.900391" xlink:href="#DejaVuSans-56"/>
    <use x="4448.523438" xlink:href="#DejaVuSans-48"/>
    <use x="4512.146484" xlink:href="#DejaVuSans-65"/>
    <use x="4580.554688" xlink:href="#DejaVuSans-108"/>
    <use x="4608.337891" xlink:href="#DejaVuSans-112"/>
    <use x="4671.814453" xlink:href="#DejaVuSans-104"/>
    <use x="4735.193359" xlink:href="#DejaVuSans-97"/>
    <use x="4796.472656" xlink:href="#DejaVuSans-45"/>
    <use x="4832.556641" xlink:href="#DejaVuSans-68"/>
    <use x="4909.558594" xlink:href="#DejaVuSans-101"/>
    <use x="4971.082031" xlink:href="#DejaVuSans-114"/>
    <use x="5012.195312" xlink:href="#DejaVuSans-105"/>
    <use x="5039.978516" xlink:href="#DejaVuSans-118"/>
    <use x="5099.158203" xlink:href="#DejaVuSans-101"/>
    <use x="5160.681641" xlink:href="#DejaVuSans-100"/>
    <use x="5224.158203" xlink:href="#DejaVuSans-32"/>
    <use x="5255.945312" xlink:href="#DejaVuSans-83"/>
    <use x="5319.421875" xlink:href="#DejaVuSans-97"/>
    <use x="5380.701172" xlink:href="#DejaVuSans-112"/>
    <use x="5444.177734" xlink:href="#DejaVuSans-105"/>
    <use x="5471.960938" xlink:href="#DejaVuSans-49"/>
    <use x="5535.583984" xlink:href="#DejaVuSans-32"/>
    <use x="5567.371094" xlink:href="#DejaVuSans-77"/>
    <use x="5653.650391" xlink:href="#DejaVuSans-97"/>
    <use x="5714.929688" xlink:href="#DejaVuSans-116"/>
    <use x="5754.138672" xlink:href="#DejaVuSans-117"/>
    <use x="5817.517578" xlink:href="#DejaVuSans-114"/>
    <use x="5858.599609" xlink:href="#DejaVuSans-101"/>
    <use x="5920.123047" xlink:href="#DejaVuSans-32"/>
    <use x="5951.910156" xlink:href="#DejaVuSans-67"/>
    <use x="6021.734375" xlink:href="#DejaVuSans-97"/>
    <use x="6083.013672" xlink:href="#DejaVuSans-112"/>
    <use x="6146.490234" xlink:href="#DejaVuSans-115"/>
    <use x="6198.589844" xlink:href="#DejaVuSans-105"/>
    <use x="6226.373047" xlink:href="#DejaVuSans-100"/>
    <use x="6289.849609" xlink:href="#DejaVuSans-32"/>
    <use x="6321.636719" xlink:href="#DejaVuSans-40"/>
    <use x="6360.650391" xlink:href="#DejaVuSans-54"/>
    <use x="6424.273438" xlink:href="#DejaVuSans-99"/>
    <use x="6479.253906" xlink:href="#DejaVuSans-50"/>
    <use x="6542.876953" xlink:href="#DejaVuSans-50"/>
    <use x="6606.5" xlink:href="#DejaVuSans-41"/>
   </g>
   <!--  $\gamma = $3.14631$\pm$0.14492 $k_{b}T/Å^{2}$  CC = -0.57337 -->
   <defs>
    <path d="M 23.296875 46.09375 
L 28.71875 12.3125 
L 54 54.6875 
L 63.53125 54.6875 
L 30.8125 0 
L 26.765625 -20.796875 
L 17.78125 -20.796875 
L 21.828125 0 
L 15.4375 40.828125 
Q 14.453125 46.96875 9.8125 46.96875 
L 7.421875 46.96875 
L 8.890625 54.6875 
L 12.3125 54.6875 
Q 21.921875 54.6875 23.296875 46.09375 
z
" id="DejaVuSans-Oblique-947"/>
    <path d="M 10.59375 45.40625 
L 73.1875 45.40625 
L 73.1875 37.203125 
L 10.59375 37.203125 
z
M 10.59375 25.484375 
L 73.1875 25.484375 
L 73.1875 17.1875 
L 10.59375 17.1875 
z
" id="DejaVuSans-61"/>
    <path d="M 10.6875 12.40625 
L 21 12.40625 
L 21 0 
L 10.6875 0 
z
" id="DejaVuSans-46"/>
    <path d="M 46 62.703125 
L 46 43.796875 
L 73.1875 43.796875 
L 73.1875 35.5 
L 46 35.5 
L 46 16.609375 
L 37.796875 16.609375 
L 37.796875 35.5 
L 10.59375 35.5 
L 10.59375 43.796875 
L 37.796875 43.796875 
L 37.796875 62.703125 
z
M 10.59375 8.296875 
L 73.1875 8.296875 
L 73.1875 0 
L 10.59375 0 
z
" id="DejaVuSans-177"/>
    <path d="M 10.984375 1.515625 
L 10.984375 10.5 
Q 14.703125 8.734375 18.5 7.8125 
Q 22.3125 6.890625 25.984375 6.890625 
Q 35.75 6.890625 40.890625 13.453125 
Q 46.046875 20.015625 46.78125 33.40625 
Q 43.953125 29.203125 39.59375 26.953125 
Q 35.25 24.703125 29.984375 24.703125 
Q 19.046875 24.703125 12.671875 31.3125 
Q 6.296875 37.9375 6.296875 49.421875 
Q 6.296875 60.640625 12.9375 67.421875 
Q 19.578125 74.21875 30.609375 74.21875 
Q 43.265625 74.21875 49.921875 64.515625 
Q 56.59375 54.828125 56.59375 36.375 
Q 56.59375 19.140625 48.40625 8.859375 
Q 40.234375 -1.421875 26.421875 -1.421875 
Q 22.703125 -1.421875 18.890625 -0.6875 
Q 15.09375 0.046875 10.984375 1.515625 
z
M 30.609375 32.421875 
Q 37.25 32.421875 41.125 36.953125 
Q 45.015625 41.5 45.015625 49.421875 
Q 45.015625 57.28125 41.125 61.84375 
Q 37.25 66.40625 30.609375 66.40625 
Q 23.96875 66.40625 20.09375 61.84375 
Q 16.21875 57.28125 16.21875 49.421875 
Q 16.21875 41.5 20.09375 36.953125 
Q 23.96875 32.421875 30.609375 32.421875 
z
" id="DejaVuSans-57"/>
    <path d="M 18.3125 75.984375 
L 27.296875 75.984375 
L 18.703125 31.6875 
L 49.515625 54.6875 
L 61.1875 54.6875 
L 26.8125 28.515625 
L 51.90625 0 
L 41.015625 0 
L 17.671875 26.703125 
L 12.5 0 
L 3.515625 0 
z
" id="DejaVuSans-Oblique-107"/>
    <path d="M 49.515625 33.40625 
Q 49.515625 40.484375 46.265625 44.484375 
Q 43.015625 48.484375 37.3125 48.484375 
Q 33.15625 48.484375 29.515625 46.453125 
Q 25.875 44.4375 23.1875 40.578125 
Q 20.359375 36.53125 18.71875 31.171875 
Q 17.09375 25.828125 17.09375 20.515625 
Q 17.09375 13.765625 20.28125 9.9375 
Q 23.484375 6.109375 29.109375 6.109375 
Q 33.34375 6.109375 36.953125 8.078125 
Q 40.578125 10.0625 43.3125 13.921875 
Q 46.09375 17.921875 47.796875 23.234375 
Q 49.515625 28.5625 49.515625 33.40625 
z
M 21.578125 46.390625 
Q 24.90625 50.875 29.90625 53.4375 
Q 34.90625 56 40.375 56 
Q 48.78125 56 53.734375 50.328125 
Q 58.6875 44.671875 58.6875 35.015625 
Q 58.6875 27.09375 55.78125 19.671875 
Q 52.875 12.25 47.515625 6.5 
Q 44 2.6875 39.40625 0.625 
Q 34.8125 -1.421875 29.78125 -1.421875 
Q 24.46875 -1.421875 20.5625 1.015625 
Q 16.65625 3.46875 14.203125 8.296875 
L 12.59375 0 
L 3.609375 0 
L 18.40625 75.984375 
L 27.390625 75.984375 
z
" id="DejaVuSans-Oblique-98"/>
    <path d="M 5.90625 72.90625 
L 67.578125 72.90625 
L 66.015625 64.59375 
L 39.984375 64.59375 
L 27.484375 0 
L 17.578125 0 
L 30.078125 64.59375 
L 4.296875 64.59375 
z
" id="DejaVuSans-Oblique-84"/>
    <path d="M 25.390625 72.90625 
L 33.6875 72.90625 
L 8.296875 -9.28125 
L 0 -9.28125 
z
" id="DejaVuSans-47"/>
    <path d="M 8.203125 72.90625 
L 55.078125 72.90625 
L 55.078125 68.703125 
L 28.609375 0 
L 18.3125 0 
L 43.21875 64.59375 
L 8.203125 64.59375 
z
" id="DejaVuSans-55"/>
   </defs>
   <g transform="translate(223.08 32.20575)scale(0.12 -0.12)">
    <use transform="translate(0 0.171875)" xlink:href="#DejaVuSans-32"/>
    <use transform="translate(31.787109 0.171875)" xlink:href="#DejaVuSans-Oblique-947"/>
    <use transform="translate(110.449219 0.171875)" xlink:href="#DejaVuSans-61"/>
    <use transform="translate(213.720703 0.171875)" xlink:href="#DejaVuSans-51"/>
    <use transform="translate(277.34375 0.171875)" xlink:href="#DejaVuSans-46"/>
    <use transform="translate(309.130859 0.171875)" xlink:href="#DejaVuSans-49"/>
    <use transform="translate(372.753906 0.171875)" xlink:href="#DejaVuSans-52"/>
    <use transform="translate(436.376953 0.171875)" xlink:href="#DejaVuSans-54"/>
    <use transform="translate(500 0.171875)" xlink:href="#DejaVuSans-51"/>
    <use transform="translate(563.623047 0.171875)" xlink:href="#DejaVuSans-49"/>
    <use transform="translate(627.246094 0.171875)" xlink:href="#DejaVuSans-177"/>
    <use transform="translate(711.035156 0.171875)" xlink:href="#DejaVuSans-48"/>
    <use transform="translate(774.658203 0.171875)" xlink:href="#DejaVuSans-46"/>
    <use transform="translate(806.445312 0.171875)" xlink:href="#DejaVuSans-49"/>
    <use transform="translate(870.068359 0.171875)" xlink:href="#DejaVuSans-52"/>
    <use transform="translate(933.691406 0.171875)" xlink:href="#DejaVuSans-52"/>
    <use transform="translate(997.314453 0.171875)" xlink:href="#DejaVuSans-57"/>
    <use transform="translate(1060.921875 0.171875)" xlink:href="#DejaVuSans-50"/>
    <use transform="translate(1124.544922 0.171875)" xlink:href="#DejaVuSans-32"/>
    <use transform="translate(1156.332031 0.171875)" xlink:href="#DejaVuSans-Oblique-107"/>
    <use transform="translate(1214.242188 -16.234375)scale(0.7)" xlink:href="#DejaVuSans-Oblique-98"/>
    <use transform="translate(1261.410156 0.171875)" xlink:href="#DejaVuSans-Oblique-84"/>
    <use transform="translate(1322.494141 0.171875)" xlink:href="#DejaVuSans-47"/>
    <use transform="translate(1356.185547 0.171875)" xlink:href="#DejaVuSans-Oblique-197"/>
    <use transform="translate(1434.399583 38.453125)scale(0.7)" xlink:href="#DejaVuSans-50"/>
    <use transform="translate(1481.670091 0.171875)" xlink:href="#DejaVuSans-32"/>
    <use transform="translate(1513.457201 0.171875)" xlink:href="#DejaVuSans-32"/>
    <use transform="translate(1545.24431 0.171875)" xlink:href="#DejaVuSans-67"/>
    <use transform="translate(1615.068529 0.171875)" xlink:href="#DejaVuSans-67"/>
    <use transform="translate(1684.892747 0.171875)" xlink:href="#DejaVuSans-32"/>
    <use transform="translate(1716.679857 0.171875)" xlink:href="#DejaVuSans-61"/>
    <use transform="translate(1800.468919 0.171875)" xlink:href="#DejaVuSans-32"/>
    <use transform="translate(1832.256029 0.171875)" xlink:href="#DejaVuSans-45"/>
    <use transform="translate(1868.340013 0.171875)" xlink:href="#DejaVuSans-48"/>
    <use transform="translate(1931.96306 0.171875)" xlink:href="#DejaVuSans-46"/>
    <use transform="translate(1963.750169 0.171875)" xlink:href="#DejaVuSans-53"/>
    <use transform="translate(2027.263841 0.171875)" xlink:href="#DejaVuSans-55"/>
    <use transform="translate(2090.886888 0.171875)" xlink:href="#DejaVuSans-51"/>
    <use transform="translate(2154.509935 0.171875)" xlink:href="#DejaVuSans-51"/>
    <use transform="translate(2218.132982 0.171875)" xlink:href="#DejaVuSans-55"/>
   </g>
  </g>
 </g>
 <defs>
  <clipPath id="p447bab639e">
   <rect height="277.2" width="558" x="90" y="43.2"/>
  </clipPath>
 </defs>
</svg>
